<svg width="745" height="1115" viewBox="0 0 745 1115" fill="none" xmlns="http://www.w3.org/2000/svg">
<path d="M688.753 487.237C771.04 427.014 763.04 404.658 664.752 420.17C566.464 435.682 513.129 429.751 504.748 402.377C496.367 375.003 485.319 336.222 471.604 286.036C457.889 235.85 431.222 171.065 391.602 91.6794C351.982 12.2941 306.266 -15.5363 254.456 8.18799C202.645 31.9123 162.263 71.1487 133.31 125.897C104.356 180.646 113.119 254.1 159.596 346.26C206.073 438.419 196.93 488.606 132.167 496.818C67.4031 505.03 26.6401 533.317 9.87781 581.678C-6.88453 630.039 -2.31299 675.206 23.5924 717.18C49.4979 759.154 63.2125 812.99 64.7364 878.688C66.2602 944.386 109.69 932.98 195.025 844.47C280.361 755.96 329.505 715.355 342.458 722.655C355.411 729.955 385.888 812.078 433.889 969.023C481.89 1125.97 514.272 1156.08 531.034 1059.36C547.797 962.636 547.035 877.776 528.748 804.778C510.462 731.78 511.986 688.894 533.32 676.119C554.654 663.344 565.321 643.726 565.321 617.264C565.321 590.803 606.465 547.46 688.753 487.237Z" fill="url(#paint0_linear_4009_12649)"/>
<defs>
<linearGradient id="paint0_linear_4009_12649" x1="372.5" y1="1114.68" x2="372.5" y2="-390.137" gradientUnits="userSpaceOnUse">
<stop offset="0.12" stop-color="#5E01D5"/>
<stop offset="1" stop-color="#FF8902"/>
</linearGradient>
</defs>
</svg>
