<svg width="32" height="32" viewBox="0 0 32 32" fill="none" xmlns="http://www.w3.org/2000/svg">
<path d="M17.8733 16.0693H8.90664M8.52264 14.5119L4.2533 8.37326C3.95447 7.84255 3.83125 7.23088 3.90128 6.62585C3.97131 6.02082 4.231 5.45348 4.64316 5.00505C5.05532 4.55663 5.59882 4.25014 6.19581 4.12947C6.7928 4.00879 7.41266 4.08013 7.96664 4.33326L26.6666 13.2599C27.1645 13.4922 27.5858 13.8617 27.881 14.3251C28.1761 14.7885 28.3329 15.3265 28.3329 15.8759C28.3329 16.4253 28.1761 16.9633 27.881 17.4267C27.5858 17.8901 27.1645 18.2597 26.6666 18.4919L7.69597 27.6893C7.15396 27.9237 6.55307 27.9861 5.97443 27.8682C5.39579 27.7503 4.86727 27.4577 4.46023 27.0298C4.05318 26.602 3.78721 26.0596 3.69823 25.4758C3.60925 24.892 3.70154 24.2949 3.96264 23.7653L8.52264 17.4159C8.78958 16.9787 8.93081 16.4762 8.93081 15.9639C8.93081 15.4516 8.78958 14.9492 8.52264 14.5119Z" stroke="#FF8902" stroke-width="1.5" stroke-linecap="round" stroke-linejoin="round"/>
</svg>
