<svg width="32" height="32" viewBox="0 0 32 32" fill="none" xmlns="http://www.w3.org/2000/svg">
<path d="M16.8469 14.5714H22.5611M16.8469 22.5005H22.5611M28.1429 28.5714C28.1429 29.1776 27.902 29.759 27.4734 30.1876C27.0447 30.6163 26.4634 30.8571 25.8571 30.8571H5.28571C4.67951 30.8571 4.09812 30.6163 3.66947 30.1876C3.24082 29.759 3 29.1776 3 28.5714V3.42854C3 2.82233 3.24082 2.24095 3.66947 1.81229C4.09812 1.38364 4.67951 1.14282 5.28571 1.14282H18.0537C18.6599 1.14295 19.2412 1.38385 19.6697 1.81254L27.4731 9.61596C27.9018 10.0445 28.1427 10.6258 28.1429 11.232V28.5714Z" stroke="#FF8902" stroke-width="1.5" stroke-linecap="round" stroke-linejoin="round"/>
<path d="M8.00806 22.3703L9.92348 24.2858L13.1166 19.8172M8.00806 14.2995L9.92348 16.2149L13.1166 11.7463" stroke="#FF8902" stroke-width="1.5" stroke-linecap="round" stroke-linejoin="round"/>
</svg>
