<svg width="32" height="32" viewBox="0 0 32 32" fill="none" xmlns="http://www.w3.org/2000/svg">
<g clip-path="url(#clip0_8606_1045)">
<path d="M14.0614 3.24944C14.306 3.52104 14.605 3.7382 14.939 3.88684C15.273 4.03549 15.6345 4.1123 16 4.1123C16.3656 4.1123 16.7271 4.03549 17.061 3.88684C17.395 3.7382 17.694 3.52104 17.9387 3.24944L19.192 1.86144C19.5534 1.46084 20.03 1.18197 20.5562 1.06315C21.0825 0.944336 21.6327 0.991401 22.1311 1.19788C22.6296 1.40436 23.0518 1.76012 23.3399 2.21629C23.628 2.67245 23.7678 3.20664 23.74 3.74544L23.644 5.61211C23.6255 5.97718 23.6837 6.34209 23.815 6.68325C23.9462 7.02441 24.1476 7.33424 24.4061 7.59272C24.6646 7.8512 24.9744 8.05258 25.3155 8.18384C25.6567 8.31511 26.0216 8.37334 26.3867 8.35478L28.2534 8.26011C28.7915 8.23358 29.3247 8.37413 29.7799 8.66249C30.235 8.95086 30.5899 9.37293 30.7958 9.87086C31.0016 10.3688 31.0485 10.9182 30.9299 11.4438C30.8113 11.9694 30.5331 12.4455 30.1334 12.8068L28.744 14.0614C28.473 14.3065 28.2563 14.6056 28.108 14.9395C27.9597 15.2734 27.8831 15.6347 27.8831 16.0001C27.8831 16.3655 27.9597 16.7268 28.108 17.0607C28.2563 17.3946 28.473 17.6938 28.744 17.9388L30.1334 19.1921C30.5332 19.5538 30.8113 20.0303 30.9297 20.5563C31.048 21.0824 31.0008 21.6321 30.7945 22.1302C30.5881 22.6283 30.2328 23.0504 29.7771 23.3386C29.3215 23.6268 28.7878 23.7671 28.2494 23.7401L26.3827 23.6441C26.0177 23.6256 25.6529 23.6838 25.3119 23.8149C24.9708 23.9461 24.661 24.1474 24.4026 24.4057C24.1441 24.6641 23.9427 24.9737 23.8114 25.3147C23.68 25.6557 23.6216 26.0205 23.64 26.3854L23.736 28.2521C23.7614 28.7895 23.6203 29.3216 23.332 29.7758C23.0438 30.23 22.6223 30.5842 22.1253 30.7899C21.6282 30.9957 21.0798 31.0431 20.5548 30.9256C20.0298 30.8081 19.5539 30.5315 19.192 30.1334L17.9387 28.7454C17.6937 28.4744 17.3946 28.2577 17.0606 28.1095C16.7267 27.9612 16.3654 27.8846 16 27.8846C15.6346 27.8846 15.2733 27.9612 14.9394 28.1095C14.6055 28.2577 14.3064 28.4744 14.0614 28.7454L12.808 30.1334C12.4467 30.5318 11.9712 30.8088 11.4464 30.9266C10.9217 31.0445 10.3734 30.9974 9.87641 30.7918C9.37945 30.5862 8.95811 30.2322 8.66999 29.7781C8.38186 29.324 8.24101 28.792 8.26669 28.2548L8.36269 26.3881C8.38152 26.0223 8.32326 25.6567 8.19168 25.3149C8.06011 24.9731 7.85815 24.6628 7.59892 24.404C7.33969 24.1453 7.02896 23.9439 6.6869 23.813C6.34484 23.6821 5.97909 23.6246 5.61335 23.6441L3.74669 23.7401C3.20855 23.7662 2.6755 23.6253 2.22052 23.3368C1.76554 23.0482 1.41086 22.6261 1.20504 22.1282C0.999226 21.6303 0.952327 21.0809 1.07077 20.5553C1.18921 20.0297 1.4672 19.5536 1.86669 19.1921L3.25602 17.9388C3.52706 17.6938 3.74372 17.3946 3.892 17.0607C4.04029 16.7268 4.1169 16.3655 4.1169 16.0001C4.1169 15.6347 4.04029 15.2734 3.892 14.9395C3.74372 14.6056 3.52706 14.3065 3.25602 14.0614L1.86669 12.8068C1.46965 12.445 1.19379 11.9696 1.07671 11.4454C0.95962 10.9212 1.00699 10.3736 1.21237 9.87732C1.41775 9.381 1.77115 8.96007 2.22441 8.67187C2.67768 8.38367 3.20878 8.24221 3.74535 8.26678L5.61202 8.36144C5.97767 8.38026 6.3432 8.32204 6.68491 8.19054C7.02662 8.05904 7.33688 7.85721 7.59559 7.59812C7.8543 7.33904 8.05568 7.02848 8.18668 6.68658C8.31768 6.34468 8.37537 5.97907 8.35602 5.61344L8.26669 3.74544C8.24179 3.20858 8.38311 2.6771 8.67136 2.2235C8.95962 1.7699 9.38078 1.41626 9.87741 1.21082C10.374 1.00537 10.9219 0.958121 11.4464 1.07551C11.9709 1.1929 12.4464 1.46922 12.808 1.86678L14.0614 3.24944Z" stroke="#FF8902" stroke-width="1.5" stroke-linecap="round" stroke-linejoin="round"/>
<path d="M8 19.8L10.0213 16.2L14.204 19.2427L17.6187 14.0293L20.7973 17L24 12" stroke="#FF8902" stroke-width="1.5" stroke-linecap="round" stroke-linejoin="round"/>
</g>
<defs>
<clipPath id="clip0_8606_1045">
<rect width="32" height="32" fill="white"/>
</clipPath>
</defs>
</svg>
