<svg width="28" height="28" viewBox="0 0 28 28" fill="none" xmlns="http://www.w3.org/2000/svg">
<path d="M25.6667 12.2502C25.6667 10.9479 25.4102 9.65836 24.9118 8.45522C24.4134 7.25207 23.683 6.15887 22.7621 5.23802C21.8413 4.31717 20.7481 3.58672 19.5449 3.08836C18.3418 2.59 17.0523 2.3335 15.75 2.3335V12.2502H25.6667Z" stroke="#FF8902" stroke-width="1.5"/>
<path d="M12.25 25.6668C13.5523 25.6668 14.8418 25.4103 16.0449 24.912C17.2481 24.4136 18.3413 23.6832 19.2621 22.7623C20.183 21.8415 20.9134 20.7483 21.4118 19.5451C21.9101 18.342 22.1666 17.0524 22.1666 15.7502H12.25V5.8335C9.61992 5.8335 7.09757 6.87829 5.23784 8.73802C3.3781 10.5978 2.33331 13.1201 2.33331 15.7502C2.33331 18.3802 3.3781 20.9026 5.23784 22.7623C7.09757 24.622 9.61992 25.6668 12.25 25.6668Z" stroke="#FF8902" stroke-width="1.5"/>
</svg>
