<svg width="24" height="24" viewBox="0 0 24 24" fill="none" xmlns="http://www.w3.org/2000/svg">
<path d="M18.83 17.6395C18.655 17.8495 18.4683 18.0595 18.27 18.2462C17.4183 19.1095 16.415 19.7745 15.3067 20.2412C13.0083 21.2095 10.3367 21.2095 8.03833 20.2412C6.93 19.7745 5.92667 19.0978 5.075 18.2345C4.22075 17.3882 3.54268 16.3811 3.08 15.2712C2.59 14.1162 2.345 12.9028 2.345 11.6428H0.0116667C0.0116667 13.2178 0.315 14.7462 0.933333 16.1812C1.51667 17.5695 2.36833 18.8178 3.43 19.8912C4.49167 20.9645 5.75167 21.8045 7.14 22.3878C8.575 22.9945 10.1033 23.3095 11.6783 23.3095C13.2533 23.3095 14.7817 23.0062 16.2167 22.3878C17.605 21.8045 18.8533 20.9528 19.9267 19.8912C20.125 19.6928 20.3 19.4829 20.4867 19.2845L23.345 22.1428V15.1428H16.345L18.83 17.6278V17.6395ZM19.9267 3.40618C18.8645 2.34022 17.6042 1.4921 16.2167 0.909514C14.7769 0.309125 13.2324 0 11.6725 0C10.1126 0 8.5681 0.309125 7.12833 0.909514C5.74 1.49285 4.49167 2.34451 3.41833 3.40618C3.22 3.60451 3.045 3.81451 2.85833 4.01285L0 1.15451V8.15452H7L4.515 5.66951C4.69 5.45952 4.87667 5.24951 5.075 5.06285C5.92667 4.19951 6.93 3.53451 8.03833 3.06785C10.3367 2.09951 13.0083 2.09951 15.3067 3.06785C16.415 3.53451 17.4183 4.21118 18.27 5.07451C19.1333 5.92618 19.7983 6.92951 20.265 8.03785C20.755 9.19285 21 10.4062 21 11.6662H23.3333C23.3333 10.0912 23.03 8.56285 22.4117 7.12785C21.8283 5.73951 20.9767 4.49118 19.915 3.41785L19.9267 3.40618Z" fill="#FF8902"/>
</svg>
