<svg width="28" height="28" viewBox="0 0 28 28" fill="none" xmlns="http://www.w3.org/2000/svg">
<path d="M25.2552 2.94275C25.2459 2.89787 25.224 2.85658 25.192 2.82373C25.1601 2.79089 25.1194 2.76786 25.0748 2.75736C22.1009 2.03001 15.231 4.62165 11.5052 8.34478C10.8411 9.00338 10.2357 9.71847 9.69554 10.482C8.5471 10.3781 7.39867 10.4656 6.42085 10.8921C3.65968 12.1062 2.85632 15.277 2.6321 16.6381C2.61996 16.7127 2.62514 16.7891 2.64727 16.8614C2.66939 16.9336 2.70786 16.9998 2.75968 17.0548C2.81151 17.1098 2.8753 17.1521 2.94611 17.1785C3.01693 17.2049 3.09287 17.2146 3.16804 17.2069L7.60156 16.7202C7.6046 17.0546 7.62467 17.3886 7.66171 17.721C7.68485 17.9507 7.78735 18.1651 7.95156 18.3274L9.6682 20.0441C9.83064 20.2084 10.0453 20.3109 10.2752 20.3339C10.6056 20.3708 10.9376 20.3908 11.27 20.3941L10.7838 24.8238C10.7762 24.8988 10.786 24.9747 10.8124 25.0454C10.8388 25.1161 10.8811 25.1797 10.936 25.2315C10.9909 25.2832 11.057 25.3217 11.1291 25.3438C11.2013 25.3659 11.2775 25.3712 11.352 25.3592C12.7137 25.1404 15.8911 24.337 17.098 21.5764C17.5246 20.5975 17.6121 19.4551 17.5137 18.3121C18.2794 17.7725 18.9966 17.167 19.6569 16.5025C23.3964 12.7838 25.9716 6.06486 25.2552 2.94275ZM16.333 11.6851C16.0063 11.3585 15.7839 10.9425 15.6937 10.4895C15.6036 10.0365 15.6498 9.56692 15.8265 9.1402C16.0033 8.71347 16.3026 8.34874 16.6866 8.09212C17.0706 7.83551 17.5221 7.69854 17.984 7.69854C18.4459 7.69854 18.8974 7.83551 19.2814 8.09212C19.6654 8.34874 19.9647 8.71347 20.1414 9.1402C20.3182 9.56692 20.3644 10.0365 20.2742 10.4895C20.1841 10.9425 19.9616 11.3585 19.635 11.6851C19.4183 11.9022 19.161 12.0744 18.8777 12.192C18.5944 12.3095 18.2907 12.37 17.984 12.37C17.6773 12.37 17.3736 12.3095 17.0903 12.192C16.807 12.0744 16.5496 11.9022 16.333 11.6851Z" stroke="#FF8902" stroke-linecap="round" stroke-linejoin="round"/>
<path d="M5.99594 19.25C5.45077 19.3169 4.94358 19.5641 4.55492 19.9522C3.59133 20.9191 3.5 24.5 3.5 24.5C3.5 24.5 7.08312 24.4087 8.04727 23.444C8.43696 23.0559 8.68452 22.5479 8.75 22.0019" stroke="#FF8902" stroke-linecap="round" stroke-linejoin="round"/>
</svg>
