<svg width="24" height="20" viewBox="0 0 24 20" fill="none" xmlns="http://www.w3.org/2000/svg">
<path d="M2.31055 2.30997C2.8051 1.8154 3.39223 1.42308 4.0384 1.15542C4.68457 0.887763 5.37714 0.75 6.07655 0.75C6.77597 0.75 7.46853 0.887763 8.1147 1.15542C8.76088 1.42308 9.348 1.8154 9.84255 2.30997L11.5424 4.0098L13.2422 2.30997C14.2412 1.31116 15.596 0.750101 17.0086 0.75021C18.4213 0.75032 19.776 1.31159 20.7748 2.31055C21.7736 3.30951 22.3347 4.66433 22.3346 6.07696C22.3344 7.4896 21.7732 8.84433 20.7742 9.84313L19.0744 11.5418L19.0896 11.557L11.5576 19.0901L11.5424 19.075L11.5272 19.0901L3.99522 11.557L4.01038 11.5418L2.31055 9.84313C1.81581 9.34856 1.42334 8.76136 1.15558 8.11508C0.887818 7.4688 0.75 6.7761 0.75 6.07655C0.75 5.377 0.887818 4.6843 1.15558 4.03802C1.42334 3.39174 1.81581 2.80454 2.31055 2.30997Z" stroke="#FF8902" stroke-width="1.5" stroke-linejoin="round"/>
</svg>
