<svg width="28" height="28" viewBox="0 0 28 28" fill="none" xmlns="http://www.w3.org/2000/svg">
<path d="M14 20.125C15.6245 20.125 17.1824 19.4797 18.331 18.331C19.4797 17.1824 20.125 15.6245 20.125 14C20.125 12.3755 19.4797 10.8176 18.331 9.66897C17.1824 8.52031 15.6245 7.875 14 7.875C12.3755 7.875 10.8176 8.52031 9.66897 9.66897C8.52031 10.8176 7.875 12.3755 7.875 14C7.875 15.6245 8.52031 17.1824 9.66897 18.331C10.8176 19.4797 12.3755 20.125 14 20.125Z" stroke="#FF8902" stroke-width="1.5" stroke-linecap="round" stroke-linejoin="round"/>
<path d="M14 15.75C14.4641 15.75 14.9092 15.5656 15.2374 15.2374C15.5656 14.9092 15.75 14.4641 15.75 14C15.75 13.5359 15.5656 13.0908 15.2374 12.7626C14.9092 12.4344 14.4641 12.25 14 12.25C13.5359 12.25 13.0908 12.4344 12.7626 12.7626C12.4344 13.0908 12.25 13.5359 12.25 14C12.25 14.4641 12.4344 14.9092 12.7626 15.2374C13.0908 15.5656 13.5359 15.75 14 15.75Z" stroke="#FF8902" stroke-width="1.5" stroke-linecap="round" stroke-linejoin="round"/>
<path d="M24.5 14C24.5 15.3789 24.2284 16.7443 23.7007 18.0182C23.1731 19.2921 22.3996 20.4496 21.4246 21.4246C20.4496 22.3996 19.2921 23.1731 18.0182 23.7007C16.7443 24.2284 15.3789 24.5 14 24.5C12.6211 24.5 11.2557 24.2284 9.98182 23.7007C8.70791 23.1731 7.55039 22.3996 6.57538 21.4246C5.60036 20.4496 4.82694 19.2921 4.29926 18.0182C3.77159 16.7443 3.5 15.3789 3.5 14C3.5 11.2152 4.60625 8.54451 6.57538 6.57538C8.54451 4.60625 11.2152 3.5 14 3.5C16.7848 3.5 19.4555 4.60625 21.4246 6.57538C23.3938 8.54451 24.5 11.2152 24.5 14Z" stroke="#FF8902" stroke-width="1.5" stroke-linecap="round" stroke-linejoin="round"/>
</svg>
