<svg width="350" height="331" viewBox="0 0 350 331" fill="none" xmlns="http://www.w3.org/2000/svg">
<g clip-path="url(#clip0_9372_32671)">
<path d="M143.567 195.148C145.036 196.456 147.057 198.316 148.853 199.111C154.175 201.558 164.83 203.167 170.403 201.418C179.494 198.562 183.098 198.931 192.394 201.388C198.342 202.959 208.647 201.664 214.083 198.702C215.175 198.11 217.612 195.748 218.543 195.708L218.751 196.002C218.807 198.805 216.877 206.317 215.935 209.193C213.328 217.144 210.336 220.213 203.003 223.812C198.601 225.411 196.249 225.685 191.596 226.403C190.838 226.51 190.115 226.5 189.568 226.982C190.193 227.411 190.988 227.288 191.794 227.291C196.116 227.334 199.572 226.859 203.64 225.484L206.092 224.407C207.668 226.593 212.665 236.542 212.801 238.906C212.264 239.893 209.257 240.64 208.113 240.977C207.603 241.125 207.089 241.253 206.572 241.361C201.015 243.05 196.906 242.959 191.47 243.594C194.085 244.056 201.166 244.603 203.512 243.589C206.823 243.494 210.891 242.432 214.171 241.674C216.493 248.024 216.475 250.83 216.417 257.338C215.7 257.185 214.485 257.857 213.78 258.146C194.73 265.934 171.967 265.959 152.661 259.007C151.372 258.543 147.387 256.51 146.366 256.63C146.645 255.845 146.724 251.317 146.902 249.934C147.309 246.759 147.729 245.171 148.642 242.121C152.046 242.375 155.362 243.441 159.03 243.592C160.704 244.505 168.432 243.873 170.587 243.705C165.944 243.035 161.868 242.668 157.031 241.885C154.894 241.13 151.782 240.412 149.428 239.654C151.358 234.773 153.456 228.86 156.023 224.385C160.454 226.681 164.562 227.033 169.453 227.063C170.341 227.038 171.425 227.11 172.16 226.694C171.462 226.184 170.915 226.272 169.954 226.159C164.118 225.469 158.47 224.337 153.65 220.638C146.945 215.493 144.587 203.062 143.567 195.148Z" fill="#ECEAEC"/>
<path d="M216.417 257.338C221.728 254.816 227.084 251.937 231.892 248.529C251.571 234.582 265.724 211.324 268.008 187.087C268.372 183.036 268.487 178.968 268.357 174.905C268.289 172.804 267.95 169.418 268.171 167.458C269.223 165.586 271.732 164.677 273.803 163.45C274.787 174.581 275.412 182.522 273.334 193.806C268.598 219.528 254.756 240.605 233.172 255.32C213.252 268.883 188.755 273.965 165.084 269.45C141.832 265.053 119.276 250.509 105.976 230.88C95.327 215.493 89.6135 197.227 89.5945 178.514C89.5797 173.108 89.6602 169.649 90.6732 164.298C93.8897 166.133 93.7644 166.665 96.23 169.363C95.3403 182.908 96.3824 195.297 101.215 208.056C108.185 226.463 120.928 242.016 137.88 252.025C140.723 253.704 143.292 255.293 146.366 256.63C147.387 256.51 151.371 258.543 152.66 259.007C171.967 265.959 194.73 265.934 213.779 258.146C214.485 257.858 215.699 257.185 216.417 257.338Z" fill="#F6F5F5"/>
<path d="M307.04 112.047C308.227 112.543 309.497 113.662 309.743 114.973C311.093 118.557 304.385 126.145 301.182 127.318C293.113 130.275 294.137 130.985 290.147 138.414C286.216 145.729 278.946 154.078 272.588 159.593C270.719 161.216 266.306 162.579 263.812 163.297L263.659 163.668C264.038 164.384 264.311 164.743 264.339 165.551C261.816 169.067 252.606 175.525 248.427 176.3C240.323 177.803 240.222 178.958 234.066 183.644C239.08 174.689 251.617 172.844 256.558 160.208C254.714 161.992 252.969 163.889 251.077 165.711C240.157 174.995 234.947 171.188 221.572 174.262C224.747 168.831 228.065 166.008 234.174 164.554C239.151 151.941 248.357 147.98 260.998 152.047C259.906 141.464 280.409 135.663 286.018 129.315C287.188 127.993 287.426 127.436 288.001 125.763C287.157 121.509 286.919 120.462 287.213 116.173C287.047 115.95 286.884 115.726 286.721 115.5C286.189 114.755 285.504 113.882 285.664 112.942L286.169 112.624C289.394 112.628 288.638 116.623 291.002 118.134C294.822 118.77 303.348 113.614 306.809 112.143L307.04 112.047Z" fill="#F6F5F5"/>
<path d="M55.4301 111.443C56.0716 111.662 58.8331 113.122 59.6515 113.533C63.8709 115.651 67.0051 116.963 71.6502 117.925C73.1151 116.206 73.8475 112.596 76.0523 111.807C76.8672 112.115 76.5337 111.857 77.005 112.703C76.8707 113.763 76.0302 114.812 75.4173 115.756C75.6364 120.114 75.2831 121.229 74.6792 125.507L74.8112 125.813C78.7187 135.036 101.463 139.194 101.824 150.699L101.836 151.165C102.757 151.336 104.311 150.695 105.256 150.453C116.796 147.496 124.115 154.203 128.507 163.932C132.683 165.295 139.114 168.552 140.436 173.168C140.317 173.205 140.199 173.243 140.081 173.283C138.224 173.087 135.147 172.505 133.401 172.365C122.528 171.489 121.243 172.435 112.594 165.741C110.351 163.811 108.666 161.4 106.38 159.702C111.004 171.338 121.992 172.839 128.328 181.982C127.05 181.192 125.414 179.578 123.858 178.609C120.618 176.589 117.463 176.27 113.923 175.133C108.683 173.451 105.025 170.919 101.16 167.112C100.312 166.279 98.7491 165.234 98.2176 164.241C98.1935 163.435 98.5017 163.164 98.9705 162.486L99.1552 162.223C97.6157 161.445 95.0789 161.58 92.5927 160.067C85.2709 155.606 77.823 145.94 73.2851 138.699C71.538 135.912 70.2006 131.977 68.0497 129.466C66.7075 127.89 64.2459 127.87 62.6346 126.968C58.0548 124.402 47.7856 116.208 55.4301 111.443Z" fill="#F6F5F5"/>
<path d="M175.425 86.0404C177.37 85.6833 181.926 85.8258 184.127 85.8607C203.364 86.1752 222.007 92.5879 237.366 104.175C247.827 111.982 256.631 122.099 263.169 133.446C264.783 136.452 265.262 137.427 262.687 139.933C260.009 142.525 258.965 139.584 257.891 137.512C246.607 115.734 225.119 99.6875 201.288 94.2092C196.46 93.0991 191.674 92.6762 186.807 92.3153C180.995 91.7323 172.647 92.5061 166.825 93.4779C140.148 97.9307 113.914 117.719 103.65 142.965C102.111 141.698 100.066 139.69 98.554 138.287C101.085 132.402 106.81 123.941 110.995 118.951C123.128 104.481 139.254 94.163 157.393 89.0037C163.238 87.3412 169.46 86.6342 175.425 86.0404Z" fill="#F6F5F5"/>
<path d="M218.601 160.328C220.852 160.032 228.542 160.232 230.191 161.906C230.238 162.208 230.387 162.865 229.957 162.988C218.523 166.276 219.128 177.577 213.732 186.201C209.375 193.163 201.933 195.886 193.962 197.65C191.425 197.834 189.42 197.783 187.103 196.541C180.021 192.746 179.855 177.602 183.178 171.835C188.34 168.884 197.491 168.025 203.173 165.643C208.89 163.249 212.354 160.928 218.601 160.328Z" fill="#F6F5F5"/>
<path d="M140.379 160.338C147.816 160.167 152.573 163.721 159.288 166.105C164.197 167.922 172.715 169.586 177.295 171.383C181.519 173.037 180.598 189.496 177.993 192.809C175.501 195.979 175.184 196.74 171.367 197.676C166.562 197.771 161.81 196.667 157.54 194.463C143.34 187.265 146.899 178.544 138.664 167.436C137.167 165.418 132.674 163.573 130.296 162.27C133.665 160.368 136.583 160.544 140.379 160.338Z" fill="#F6F5F5"/>
<path d="M120.842 8.85769C121.239 8.84263 121.871 8.80071 121.986 9.05972C124.114 13.8694 128.59 27.2716 130.659 31.162C129.281 32.0168 127.505 32.5933 125.917 33.405C124.554 31.0794 120.768 20.9046 119.921 18.055C119.264 21.0765 118.283 25.2156 117.334 28.1043C116.088 28.5219 114.834 29.0631 113.613 29.5615C110.841 27.7685 108.037 25.8937 105.17 24.2664C106.108 26.0852 106.678 27.6152 107.379 29.5324C108.274 31.7794 110.476 36.7261 110.553 38.9292C110.204 39.4708 107.259 40.4697 106.255 40.9187C105.145 38.9992 103.66 34.7898 102.807 32.5589L97.3103 18.2251C98.7461 17.4652 100.316 16.8528 101.819 16.2256C104.699 17.7674 111.08 22.7033 113.575 23.2969C114.644 21.5478 115.577 14.7346 116.449 12.5445C117.475 9.96851 118.581 9.86787 120.842 8.85769Z" fill="#ECEAEC"/>
<path d="M173.575 0.749435L176.956 0.465332C177.714 7.07204 178.033 18.2859 178.311 25.1331L173.427 25.2641C172.233 24.0903 170.122 21.3428 168.999 19.971C166.308 16.627 163.564 13.3269 160.766 10.072C161.049 12.5993 161.876 23.6907 161.547 25.7015C160.777 26.1796 160.543 26.0152 159.484 26.0624C158.513 26.142 157.444 26.1759 156.463 26.2278C156.212 17.9531 155.298 9.97057 155.39 1.67052L160.15 1.54905C164.397 6.59117 168.559 11.7942 172.762 16.885C172.577 13.4431 171.472 4.00937 172.014 1.1535C172.541 0.676146 172.682 0.828994 173.575 0.749435Z" fill="#ECEAEC"/>
<path d="M295.618 45.3027C296.732 45.0942 299.633 48.2906 300.419 49.0767C297.397 56.2408 294.832 66.3391 291.941 73.9457C290.503 72.5538 289.19 71.4936 287.634 70.2282L289.361 64.7346L287.707 63.248C285.702 61.4751 283.671 59.7286 281.618 58.0089C279.874 58.9752 278.509 59.6789 276.697 60.5074C275.708 59.71 272.807 57.6136 273.022 56.3733C280.263 52.771 288.309 48.6387 295.618 45.3027ZM286.635 55.5127C287.516 56.6792 287.712 56.9628 288.854 57.8498C289.524 58.5104 290.189 59.1759 290.847 59.8466C291.55 58.4406 293.397 53.8045 293.454 52.3323C291.512 53.2361 288.46 54.8627 286.635 55.5127Z" fill="#ECEAEC"/>
<path d="M47.1586 52.7451C48.4059 53.0428 54.5405 55.6795 56.1307 56.3883C60.8634 58.498 66.6261 60.5219 71.1976 62.7332C71.0661 64.1277 68.7132 65.9312 67.6192 66.9341C65.8822 66.2293 64.1381 65.5419 62.3876 64.8721C60.6147 66.5278 58.8343 68.3062 57.0892 70.0015L55.1153 71.9258L57.239 77.1092C55.9317 78.6095 54.5262 79.9392 53.0257 81.24C50.0162 73.0986 46.4137 64.8178 43.228 56.6967L47.1586 52.7451ZM53.057 67.0345C54.1124 66.1759 54.6038 65.7392 55.5306 64.7483C56.2866 63.9924 56.965 63.3331 57.6559 62.5109C55.0199 62.0247 52.4479 60.3043 50.3927 59.9349C51.1888 62.3497 52.3362 64.7842 53.057 67.0345Z" fill="#ECEAEC"/>
<path d="M24.9219 119.711C26.3007 119.547 27.3435 119.624 28.7164 119.68L26.7209 125.041C24.7929 125.014 23.0544 125.096 21.1261 125.191C20.2168 127.993 18.7225 131.938 17.5873 134.647C18.6339 135.82 20.6131 137.58 21.8085 138.71C21.0415 140.503 20.3699 142.314 19.6802 144.137C17.6799 141.995 15.6008 140.149 13.4121 138.219L0.272705 126.071C0.942813 124.324 1.58557 122.541 2.23534 120.784C3.91814 120.568 7.30482 120.575 9.14323 120.483C14.3997 120.168 19.6596 119.911 24.9219 119.711ZM7.84517 125.92C9.13067 127.053 10.4014 128.203 11.657 129.37C12.3186 130.036 12.9711 130.725 13.6929 131.322C14.2057 129.962 15.7299 126.551 15.3634 125.433L14.807 125.486C12.5839 125.621 10.0364 125.713 7.84517 125.92Z" fill="#ECEAEC"/>
<path d="M240.23 12.3813C241.671 12.7274 243.623 13.5655 245.132 14.0795C244.705 15.7743 242.383 20.7966 241.565 22.7146C244.652 23.9433 248.791 25.6668 251.705 27.1727C252.199 25.5521 254.388 19.5277 255.908 18.9615C257.126 19.3951 259.078 20.1616 259.969 21.1194C257.369 27.9657 253.637 35.8512 250.698 42.751C250.231 43.0497 249.938 42.8411 249.202 42.7119C248.013 42.1236 246.806 41.7012 245.566 41.2339C246.246 39.0961 248.733 33.5783 249.86 31.6227C247.782 30.6735 241.753 27.4407 239.971 27.772C238.483 28.6655 236.315 34.7343 235.386 36.8501C234.038 35.9842 231.328 35.2049 230.856 34.1222C233.388 27.403 237.296 19.1213 240.23 12.3813Z" fill="#ECEAEC"/>
<path d="M341.09 101.46C341.79 101.824 343.286 105.205 343.753 106.143C342.018 107.195 337.215 109.242 335.275 109.858C336.703 113.24 338.327 116.742 339.822 120.109C342.249 118.852 345.648 117.435 348.197 116.297C348.79 117.604 350.092 120.058 349.899 121.416C348.418 122.295 346.202 122.911 344.621 123.719C339.873 126.15 333.744 128.363 329.106 130.705L328.83 130.847C327.848 130.757 328.303 130.926 327.487 130.17C326.94 128.84 326.375 127.516 325.795 126.199C327.831 125.407 333.47 123.369 334.64 121.897C335.177 120.283 331.844 114.326 330.943 112.049C327.733 113.276 324.646 114.997 321.351 116.099L319.175 111.491C325.489 108.185 335.4 104.8 341.09 101.46Z" fill="#ECEAEC"/>
<path d="M167.158 141.135C165.766 133.147 166.231 123.903 176.294 122.446C180.698 121.808 186.428 121.937 190.258 124.553C195.516 128.41 194.452 135.32 194.296 140.846C200.114 147.467 190.68 154.081 190.331 160.27L189.538 159.939C192.198 154.493 195.606 137.468 190.697 132.776C189.204 131.348 172.983 131.845 170.353 132.276C167.972 134.934 167.446 137.73 167.461 141.201L167.158 141.135Z" fill="url(#paint0_linear_9372_32671)"/>
<path d="M268.159 25.8276C269.973 25.8977 279.43 32.2687 281.36 33.6995C280.574 34.9782 279.555 36.6111 278.511 37.6627C276.064 35.8087 272.957 33.9911 270.317 32.351L268.174 35.9741C270.063 37.2714 274.009 39.3176 275.266 40.9061C275.191 41.4211 273.725 43.5958 273.283 44.5045L273.148 44.7899C270.909 43.6457 268.108 41.1884 265.774 40.5173C265.471 40.4297 265.094 40.9098 264.75 41.2125C264.188 42.2611 263.099 43.8746 262.429 44.9292C264.605 46.0044 268.839 48.7712 270.934 50.1842C270.041 51.6398 269.225 52.8545 268.249 54.2565C265.074 52.0253 258.82 48.0591 255.454 46.2486C258.82 40.1403 264.326 31.8104 268.159 25.8276Z" fill="#ECEAEC"/>
<path d="M145.276 3.44385L145.723 3.44435C146.299 3.99976 146.818 6.93242 147.037 7.91474C145.057 8.61949 139.41 9.66004 137.219 10.0107C137.485 11.5913 137.741 12.6308 138.156 14.1794C140.984 13.5946 143.818 13.0364 146.656 12.5054C147.06 14.1425 147.282 15.5464 147.55 17.2084C144.774 17.9019 141.941 18.3441 139.037 19.0732C139.427 21.082 139.758 22.5816 140.309 24.5467C141.759 24.0987 148.16 22.7653 149.738 22.6026L150.057 22.9937C150.313 24.3891 150.609 25.777 150.944 27.1554C146.514 28.1422 140.168 29.1451 136.045 30.459C134.122 22.8519 132.782 14.338 130.969 6.55697C134.353 5.46271 141.55 4.18548 145.276 3.44385Z" fill="#ECEAEC"/>
<path d="M205.836 3.66491C210.944 3.43427 213.865 5.01015 216.473 9.33548C215.09 10.1042 213.642 10.691 212.188 11.3215C211.197 10.2711 210.11 9.00694 208.657 8.66436C206.725 8.21009 204.483 8.32103 204.087 10.6875C204.614 13.3867 209.957 14.684 212.148 16.3455C215.604 18.9665 216.327 22.1551 213.488 25.6218C211.521 28.0257 209.355 28.3467 206.489 28.6323C201.171 28.6702 197.639 26.302 196.111 21.2119C197.682 20.9587 199.67 20.3104 201.238 19.8486C202.099 22.314 203.07 23.3166 205.922 23.6464C207.111 23.7844 208.025 23.5262 208.936 22.7414C210.803 18.2856 199.19 17.9465 198.653 12.6913C198.106 7.3618 201.158 4.72378 205.836 3.66491Z" fill="#ECEAEC"/>
<path d="M73.6751 32.8171C75.2424 32.7543 76.9518 32.4379 77.6179 34.067C77.5622 35.3301 76.8338 36.6462 76.3013 37.8434C67.7505 37.0599 67.2516 46.7478 75.8001 42.6137C90.2568 35.6225 92.165 55.4195 77.1897 57.5614C75.1277 57.516 74.0216 57.1194 72.1805 56.373C72.8288 54.9249 73.8588 53.2669 74.6172 51.6346C78.1409 52.916 81.8612 51.9137 82.2783 47.9831C81.9977 45.2171 75.4354 48.0817 74.4551 48.401C67.0849 50.8001 62.7784 45.123 65.5723 38.382C66.7632 35.5091 70.5775 33.5141 73.6751 32.8171Z" fill="#ECEAEC"/>
<path d="M17.8745 88.8271C18.6867 89.0337 18.9221 89.1213 19.6873 89.49L19.9845 89.6351C20.819 90.0361 20.9653 90.0173 21.46 90.8417C21.7898 92.8044 20.3035 94.2041 19.4851 96.3286L19.3892 96.5843C24.7716 99.5797 30.8016 103.119 36.2483 105.856C35.6866 107.208 34.4684 109.373 33.7493 110.737C32.3832 109.808 30.1378 108.633 28.6379 107.794C24.6298 105.589 20.64 103.35 16.6691 101.079C15.622 102.979 14.6349 104.875 13.366 106.637L13.0089 106.381C11.7372 105.464 10.6597 104.847 9.30469 104.053C11.5662 100.682 15.6803 92.7582 17.8745 88.8271Z" fill="#ECEAEC"/>
<path d="M327.364 79.3066C327.871 79.5293 328.172 79.9394 328.473 80.3889C329.344 81.6877 336.999 93.2296 336.806 93.8229C336.399 95.0682 334.301 96.0222 333.237 96.6745C332.122 95.153 330.878 93.142 329.776 91.5274C326.654 93.329 322.565 96.1419 319.446 98.1457C317.563 99.3684 315.269 100.967 313.261 101.856L310.483 97.5885C315.947 94.0262 321.564 90.5888 326.975 86.969C324.382 82.5734 322.229 82.5939 327.364 79.3066Z" fill="#ECEAEC"/>
<path d="M313.58 62.0166C314.798 62.3479 316.359 64.5705 316.743 65.7915C316.502 67.0271 304.254 76.839 302.332 78.4433C304.123 81.1024 306.774 83.4272 308.636 86.3362C307.19 87.4192 306.382 88.0268 305.105 89.2892C301.975 85.8569 298.108 81.1551 295.161 77.5219C301.142 72.4299 307.502 66.9598 313.58 62.0166Z" fill="#ECEAEC"/>
<path d="M25.4287 77.8291C28.5634 79.0476 37.5789 87.3303 41.1516 88.7197C42.4572 88.3907 46.151 82.7442 47.2511 81.2163C48.7062 82.2511 49.7212 83.069 51.0872 84.2255C50.3444 85.3993 48.7396 87.3978 47.8516 88.5729C46.1543 91.0638 43.8373 93.9973 42.0006 96.4528C37.7127 93.0317 27.6897 86.1284 22.9799 82.1271C22.9513 81.9649 22.9226 81.8028 22.8943 81.6409C23.4148 80.2736 24.5196 79.0185 25.4287 77.8291Z" fill="#ECEAEC"/>
<path d="M212.746 312.36C216.583 311.333 220.528 313.609 221.56 317.447C222.591 321.282 220.318 325.23 216.483 326.266C212.64 327.303 208.687 325.026 207.653 321.184C206.619 317.341 208.901 313.389 212.746 312.36ZM216.126 323.37C217.404 322.351 218.347 321.528 218.505 319.766C218.616 318.644 218.257 317.525 217.514 316.674C216.249 315.203 215.107 315.058 213.28 315.133C208.705 318.29 210.399 323.769 216.126 323.37Z" fill="#ECEAEC"/>
<path d="M74.7106 284.335C75.6914 284.584 76.1881 284.692 76.8783 285.372C77.9344 287.583 75.1666 293.235 74.3798 296.023L74.294 296.337C76.3179 294.703 80.8472 289.975 82.8207 289.315C83.7731 289.478 84.5368 290.161 85.342 290.738C84.4442 292.914 82.9539 298.741 82.2276 301.301C84.437 299.617 88.8363 293.87 91.4932 294.349C92.2117 294.811 92.1818 294.949 92.5209 295.732C92.3891 296.53 92.3219 296.35 91.5336 297.045C88.2568 299.72 85.1992 302.77 81.9407 305.545C80.7893 304.828 79.7853 304.072 78.6971 303.269C79.7959 300.039 80.281 297.16 81.6446 293.785C78.9832 295.91 76.4664 298.23 73.7945 300.38C72.756 299.745 71.6806 298.992 70.6621 298.31C71.4936 294.515 73.5875 288.354 74.7106 284.335Z" fill="#ECEAEC"/>
<path d="M52.1644 266.466C55.7729 266.285 58.2528 268.321 57.0865 272.269C56.5665 274.028 54.1245 273.91 52.5948 274.535C52.4369 275.489 52.1483 276.535 52.889 277.246C53.8512 277.183 54.2578 277.062 55.1058 277.517C55.6683 278.448 55.4999 278.877 55.5491 280.062L52.2673 280.195L52.2462 283.56C50.6006 283.711 49.5916 281.191 49.3279 279.916C46.3744 279.123 42.3153 277.032 44.7844 273.077C45.8205 271.418 48.0436 271.215 49.8634 270.976C49.9234 268.512 49.4825 267.264 52.1644 266.466ZM49.3939 277.341C49.7098 275.938 50.0755 275.25 49.4069 274.108C48.713 273.684 48.1422 273.883 47.303 273.99C46.7458 274.65 46.7302 274.59 46.666 275.439C47.0635 276.706 48.2424 276.97 49.3939 277.341Z" fill="#ECEAEC"/>
<path d="M312.423 249.472C313.789 250.09 322.899 257.571 323.178 258.648C322.974 259.619 322.39 260.016 321.664 260.728C318.276 260.621 313.563 260.621 310.398 259.712C312.255 261.963 316.025 264.443 317.066 266.059C316.871 266.905 316.123 267.58 315.523 268.253C314.446 267.949 305.323 260.219 304.693 259.085C305.788 256.264 308.975 257.192 311.412 257.262C313.52 257.323 315.648 257.526 317.769 257.604C315.387 255.649 312.983 253.721 310.554 251.826L312.423 249.472Z" fill="#ECEAEC"/>
<path d="M24.6719 227.441C26.5296 228.443 29.1817 233.545 28.4204 236.083C27.0835 240.54 22.3576 238.299 21.9327 238.542C20.8558 240.294 19.9894 243.316 19.4714 245.331L19.1416 244.945C17.9728 243.584 17.4344 243.238 17.5117 241.466C18.0832 239.97 19.9522 236.15 19.5755 234.833C18.4973 234.529 16.2232 236.341 14.741 236.996C13.3661 236.758 13.0863 235.849 13.2326 234.549C13.6138 233.711 15.2698 233.098 16.1311 232.599C18.9928 230.935 21.7899 229.058 24.6719 227.441Z" fill="#ECEAEC"/>
<path d="M144.128 313.672L147.257 314.048C146.884 315.647 146.57 317.748 146.278 319.399C148.635 319.766 150.429 320.034 152.83 320.172L153.511 315.05L156.636 315.326C156.178 319.351 155.269 325.061 154.47 329.16C154.398 329.531 154.339 329.461 153.884 329.631C153.122 329.574 152.545 329.616 151.906 329.22C151.067 327.814 152.007 325.167 152.328 323.201C150.106 322.825 148.181 322.494 145.925 322.293L145.01 328.357C143.88 328.239 143.352 328.259 142.337 327.802C141.732 326.424 143.709 316.006 144.128 313.672Z" fill="#ECEAEC"/>
<path d="M128.65 310.369C131.142 310.191 137.823 311.624 135.026 315.017C132.648 315.637 132.315 313.11 129.953 313.306C127.606 313.597 125.856 315.838 125.961 318.139C126.09 320.968 130.427 323.463 132.148 320.732C131.845 319.527 130.977 320.14 130.002 318.712C129.908 317.883 130.225 317.572 130.64 316.895C132.336 317.035 134.237 317.718 135.894 318.23C135.309 320.087 135.077 320.986 134.743 322.9C130.911 326.246 125.487 325.506 123.487 320.644C122.666 318.669 122.721 316.44 123.64 314.508C124.701 312.279 126.457 311.205 128.65 310.369Z" fill="#ECEAEC"/>
<path d="M6.62027 167.089C15.3796 167.225 24.1901 167.052 32.952 167.067C36.3349 167.072 36.2383 169.785 34.2611 170.287L15.4945 170.327C13.1938 170.33 6.60446 170.769 5.05593 169.647C4.67394 168.668 4.70079 169.147 4.92667 168.159C5.60105 167.358 5.59227 167.416 6.62027 167.089Z" fill="#F6F5F5"/>
<path d="M317.834 168.113C325.994 168.43 334.369 168.005 342.548 168.101C344.383 168.121 346.968 167.978 346.529 170.616C345.781 171.316 346.089 171.1 344.97 171.318L326.458 171.358C323.439 171.368 320.173 171.444 317.162 171.291C316.246 171.243 316.354 171.17 315.919 170.633C315.751 169.715 315.749 169.78 316.083 168.906C316.672 168.281 316.991 168.297 317.834 168.113Z" fill="#F6F5F5"/>
<path d="M98.6725 298.408C100.356 298.403 105.292 301.136 107.083 302.044C106.552 302.89 106.2 303.678 105.775 304.572C103.88 303.593 102.307 302.875 100.312 302.157L99.6265 304.331C100.451 304.702 103.264 305.854 103.731 306.419C103.893 311.489 100.113 307.056 98.2444 307.129L97.9078 307.646C97.5843 308.168 96.935 309.099 97.2701 309.659C97.9974 310.874 100.863 311.667 102.208 312.249L100.793 315.01C98.6251 313.66 94.6115 312.452 93.127 310.894C93.4879 309.114 97.6719 300.456 98.6725 298.408Z" fill="#ECEAEC"/>
<path d="M250.512 299.816C251.943 300.014 253.963 300.551 252.721 302.416C250.347 303.801 250.46 301.701 248.136 304.002C247.885 305.006 247.854 304.542 248.088 305.445C249.837 306.763 255.236 304.492 256.471 306.434C259.726 311.549 254.42 314.593 250.334 314.721L247.483 313.61C248.065 312.756 248.66 311.665 249.521 311.173C251.263 311.843 254.377 311.79 253.853 309.233C252.917 308.452 249.059 309.074 247.051 309.024C242.092 305.357 245.392 300.857 250.512 299.816Z" fill="#ECEAEC"/>
<path d="M231.975 306.815C233.341 306.695 237.042 306.62 236.716 308.773C236.023 309.466 235.82 309.496 234.939 309.862C233.132 309.581 231.097 309.41 230.813 311.807C232.773 313.657 241.768 310.578 239.984 317.349C239.399 319.568 237.62 320.315 235.78 321.324C233.466 321.447 231.503 321.663 230.073 319.552C230.522 316.644 237.301 319.982 236.576 316.101C234.718 314.508 232.221 316.315 230.57 315.477C225.111 312.713 228.261 308.642 231.975 306.815Z" fill="#ECEAEC"/>
<path d="M168.597 165.147C170.004 162.79 170.438 161.897 170.827 159.178C178.839 166.695 180.937 166.72 189.538 159.939L190.331 160.27C190.71 160.965 191.48 163.518 192.068 164.725C189.595 165.576 187 165.957 184.676 166.801L184.265 166.954C182.483 167.601 182.166 168.788 180.701 169.714C176.459 166.206 173.699 166.61 168.597 165.147Z" fill="#F6F5F5"/>
<path d="M330.667 223.705C331.214 223.903 331.071 224.144 331.452 224.749C333.044 227.243 329.507 227.045 328.968 229.439C328.167 233.337 332.75 236.023 336.01 233.837C337.767 232.659 336.472 226.837 339.12 227.688C340.357 229.025 340.249 229.605 340.387 231.4C339.546 235.844 336.377 238.751 331.698 237.558C329.583 237.009 327.776 235.631 326.686 233.736C324.134 229.206 326.782 225.901 330.667 223.705Z" fill="#ECEAEC"/>
<path d="M276.792 284.504C277.447 284.451 277.856 284.353 278.456 284.619C278.95 285.204 279.204 285.382 279.279 286.143C278.574 288.798 273.76 286.926 273.878 291.305C274.217 293.278 275.756 296.365 278.1 296.149C281.272 295.855 281.676 291.762 283.99 291.438C285.29 292.058 285.114 293.366 284.783 294.485C282.703 298.192 279.545 300.463 275.264 298.338C273.291 297.336 271.813 295.574 271.173 293.459C269.805 288.848 272.455 285.668 276.792 284.504Z" fill="#ECEAEC"/>
<path d="M16.8052 212.129L17.2214 212.19C18.039 212.702 21.0362 219.669 21.9746 221.315C21.0754 221.792 20.074 222.256 19.1531 222.708C18.5515 221.21 18.3299 220.755 17.4892 219.342C15.8653 220.314 13.1244 221.539 11.3455 222.387C9.93702 222.894 8.67812 224.041 7.32962 223.692C6.66303 223.13 6.59501 223.157 6.35156 222.299C6.86004 219.558 13.6176 218.582 16.1472 216.318C16.1344 215.455 15.4723 214.566 15.0032 213.726C15.3687 212.852 15.8957 212.732 16.8052 212.129Z" fill="#ECEAEC"/>
<path d="M162.982 316.104C166.248 315.976 170.177 316.205 173.495 316.325C173.548 317.577 173.736 318.14 173.049 319.063C172.155 319.452 170.96 319.241 169.948 319.171C169.703 322.07 169.513 324.527 169.462 327.441C169.433 328.49 169.633 329.644 169.074 330.395C168.081 330.811 167.435 330.533 166.412 330.171C165.967 328.914 166.618 320.941 166.735 319.026C165.675 319.031 164.374 319.181 163.516 318.662C162.942 317.959 163.029 317.045 162.982 316.104Z" fill="#ECEAEC"/>
<path d="M34.7147 243.05C35.3722 243.66 40.2743 250.461 40.9098 251.427C40.2221 252.072 39.4406 252.594 38.6708 253.142C37.9729 252.236 37.3454 251.227 36.717 250.265C34.9571 251.325 32.3756 253.36 30.6069 254.63C29.6382 255.446 28.4686 256.291 27.4494 257.067C26.7186 256.281 26.0869 255.814 25.9097 254.775C26.3531 253.463 32.8913 249.066 34.5475 247.725L32.5101 244.724L34.7147 243.05Z" fill="#ECEAEC"/>
<path d="M286.58 276.357C288.804 279.005 291.828 282.33 293.723 285.088C295.618 283.914 296.858 282.014 298.657 281.966C299.521 282.257 299.774 282.917 300.289 283.721C299.475 284.233 298.602 284.94 297.829 285.53C296.403 286.77 295.001 288.035 293.62 289.325C291.464 287.433 286.287 280.99 284.118 278.443C285.014 277.526 285.574 277.122 286.58 276.357Z" fill="#ECEAEC"/>
<path d="M194.241 315.203C194.828 318.295 195.247 323.51 195.661 326.788C197.509 326.49 200.079 325.649 201.547 326.788C201.843 327.687 201.75 327.744 201.534 328.653C200.847 329.363 200.746 329.125 199.424 329.233C196.954 329.511 195.187 329.634 192.702 329.695C192.336 325.079 191.518 320.172 191.312 315.713L194.241 315.203Z" fill="#ECEAEC"/>
<path d="M299.001 264.531C299.603 264.631 299.905 264.855 300.444 265.151C300.931 266.119 300.768 265.881 300.68 267.131C301.413 268.157 305.303 272.196 306.613 272.831C306.568 272.81 307.487 272.949 307.554 272.959L308.016 273.014C308.689 273.538 308.88 273.624 309.286 274.392C308.737 275.398 307.017 277.029 306.151 277.918C304.623 278.106 304.475 276.452 303.893 275.531C302.628 273.531 300.296 270.479 298.017 269.676C296.845 269.262 296.594 269.46 295.884 268.393C295.927 267.184 298.08 265.414 299.001 264.531Z" fill="#ECEAEC"/>
<path d="M113.422 304.848C114.888 305.159 117.277 305.784 118.308 306.835C118.508 307.679 118.516 307.255 118.175 308.138L117.784 308.452C115.362 310.434 114.991 313.577 113.974 316.495C113.772 317.075 114.566 318.011 113.896 319.924C112.929 319.901 110.168 318.973 109.39 318.345C108.83 317.893 108.983 317.863 108.924 317.173C109.405 316.132 109.642 316.247 110.783 315.605C111.567 313.567 113.543 309.202 113.259 307.202C113.095 306.05 113.129 306.108 113.422 304.848Z" fill="#ECEAEC"/>
<path d="M319.657 239.468C320.768 239.634 320.929 239.772 321.529 240.668C323.027 242.904 326.046 244.636 328.172 246.305C329.57 246.066 330.1 245.881 331.106 246.965C331.304 248.526 329.778 250.15 328.82 251.467C326.839 251.048 327.361 249.904 326.167 248.752C323.833 246.493 321.228 245.231 318.156 244.287C317.581 244.109 317.526 243.577 317.433 243.082C317.779 241.81 318.848 240.575 319.657 239.468Z" fill="#ECEAEC"/>
<path d="M186.548 1.41973C188.544 1.31281 190.057 1.4885 192.055 1.67096C191.006 4.36243 190.004 7.07173 189.048 9.79758L188.657 10.3982C187.48 11.1531 186.222 10.7355 184.877 10.4715C185.449 7.47379 185.946 4.39305 186.548 1.41973Z" fill="#ECEAEC"/>
<path d="M167.461 141.201C167.53 144.048 167.764 146.511 168.201 149.312C168.434 150.807 169.845 154.894 169.661 155.999L169.762 155.851L169.544 155.952C166.626 153.8 164.384 146.428 165.252 142.854C165.486 141.888 166.335 141.492 167.158 141.135L167.461 141.201Z" fill="#F6F5F5"/>
<path d="M191.596 226.403C196.249 225.685 198.6 225.411 203.003 223.812C203.181 224.686 203.148 224.683 203.64 225.484C199.572 226.859 196.116 227.334 191.794 227.291C191.776 226.982 191.679 226.711 191.596 226.403Z" fill="url(#paint1_linear_9372_32671)"/>
<path d="M191.47 243.595C196.906 242.96 201.015 243.05 206.571 241.361L206.958 242.335L206.745 242.754C205.57 243.128 204.318 242.839 203.512 243.59C201.165 244.603 194.085 244.056 191.47 243.595Z" fill="url(#paint2_linear_9372_32671)"/>
<path d="M157.031 241.885C161.868 242.668 165.944 243.035 170.586 243.705C168.431 243.873 160.704 244.505 159.03 243.592C157.569 242.749 156.062 243.097 154.859 242.41C155.596 241.86 156.07 241.956 157.031 241.885Z" fill="url(#paint3_linear_9372_32671)"/>
<path d="M169.954 226.159C170.915 226.272 171.462 226.184 172.16 226.694C171.425 227.11 170.341 227.038 169.453 227.063L169.954 226.159Z" fill="#ECEAEC" fill-opacity="0.180392"/>
<path d="M191.794 227.291C190.988 227.288 190.193 227.411 189.568 226.982C190.115 226.5 190.838 226.51 191.596 226.402C191.679 226.711 191.776 226.982 191.794 227.291Z" fill="#ECEAEC" fill-opacity="0.329412"/>
</g>
<defs>
<linearGradient id="paint0_linear_9372_32671" x1="177.458" y1="156.91" x2="184.541" y2="122.824" gradientUnits="userSpaceOnUse">
<stop stop-color="#F6F4F5" stop-opacity="0.952941"/>
<stop offset="1" stop-color="#F8F8F8"/>
</linearGradient>
<linearGradient id="paint1_linear_9372_32671" x1="197.815" y1="226.782" x2="197.102" y2="224.683" gradientUnits="userSpaceOnUse">
<stop stop-color="#E9E7EA" stop-opacity="0"/>
<stop offset="1" stop-color="#EBE8EB" stop-opacity="0.0705882"/>
</linearGradient>
<linearGradient id="paint2_linear_9372_32671" x1="201.191" y1="244.518" x2="200.259" y2="241.83" gradientUnits="userSpaceOnUse">
<stop stop-color="#E9E9EA" stop-opacity="0"/>
<stop offset="1" stop-color="#EAE6EA" stop-opacity="0.109804"/>
</linearGradient>
<linearGradient id="paint3_linear_9372_32671" x1="160.984" y1="243.876" x2="161.378" y2="242.079" gradientUnits="userSpaceOnUse">
<stop stop-color="#E9E8E9" stop-opacity="0"/>
<stop offset="1" stop-color="#EBE5EB" stop-opacity="0.141176"/>
</linearGradient>
<clipPath id="clip0_9372_32671">
<rect width="350" height="331" fill="white"/>
</clipPath>
</defs>
</svg>
