<svg width="178" height="40" viewBox="0 0 178 40" fill="none" xmlns="http://www.w3.org/2000/svg">
<path d="M122.097 25.1365C122.097 22.2269 121.478 19.6067 120.258 17.3469C119.035 15.0871 117.317 13.3009 115.149 12.046C112.979 10.7886 110.477 10.1519 107.709 10.1519C104.942 10.1519 102.422 10.7886 100.217 12.046C98.0125 13.3035 96.2552 15.0871 94.9977 17.3469C93.7402 19.6067 93.1036 22.1717 93.1036 24.9734C93.1036 27.7751 93.7586 30.3979 95.0529 32.6577C96.3446 34.9175 98.2019 36.7011 100.575 37.9586C102.94 39.2134 105.689 39.85 108.743 39.85C111.142 39.85 113.347 39.4449 115.296 38.6426C117.246 37.8402 118.9 36.6564 120.216 35.1227L120.289 35.0358L117.235 31.4633L117.135 31.5738C116.748 32.0026 116.335 32.3893 115.899 32.7392C114.007 34.2493 111.663 35.0148 108.909 35.0148C106.994 35.0148 105.279 34.6518 103.787 33.9336C103.108 33.6074 102.477 33.2049 101.893 32.7313C100.062 31.2502 98.9595 29.2693 98.6149 26.8438H121.978L121.991 26.7254C122.018 26.4913 122.036 26.2835 122.052 26.0835C122.084 25.7126 122.099 25.3916 122.099 25.1338L122.097 25.1365ZM98.607 22.8293C98.8096 21.2825 99.2989 19.9198 100.072 18.7491C100.477 18.1361 100.956 17.5758 101.514 17.0733C102.445 16.2341 103.511 15.6264 104.705 15.2555C105.102 15.1319 105.515 15.0345 105.939 14.9635C106.223 14.9161 106.512 14.8819 106.807 14.8583C107.102 14.8346 107.404 14.8241 107.712 14.8241C110.169 14.8241 112.253 15.5896 113.907 17.1023C115.528 18.5834 116.504 20.509 116.812 22.832H98.607V22.8293ZM29.8034 9.46268C29.5797 9.08912 29.3456 8.72345 29.0983 8.37093C28.851 8.01841 28.5932 7.67379 28.3249 7.34232C28.1907 7.17659 28.0539 7.01348 27.9119 6.85038C27.3515 6.20585 26.7465 5.60342 26.094 5.04308C24.955 4.06182 23.6764 3.20947 22.2585 2.48339C21.8533 2.27557 21.4403 2.08089 21.022 1.90201C18.5071 0.815521 15.7238 0.194673 12.6774 0.0394607C12.1697 0.0131536 11.6541 0 11.1305 0H0V39.5449H11.1305C11.6541 39.5449 12.1697 39.5317 12.6774 39.5054C15.0266 39.3844 17.218 38.9872 19.2542 38.3137C19.8593 38.1138 20.4485 37.8902 21.0247 37.6429C21.4456 37.4614 21.856 37.2667 22.2611 37.0589C23.6791 36.3328 24.9549 35.4804 26.0967 34.4992C26.7491 33.9388 27.3542 33.3364 27.9145 32.6919C28.0539 32.5314 28.1907 32.3683 28.3275 32.1999C28.5959 31.8685 28.8537 31.5238 29.101 31.1713C29.3482 30.8188 29.5824 30.4531 29.806 30.0796C31.5949 27.0858 32.4893 23.6501 32.4893 19.7698C32.4893 15.8895 31.5949 12.4538 29.806 9.46005H29.8034V9.46268ZM15.1345 34.1966C13.7744 34.4834 12.3302 34.6307 10.7938 34.6307H5.65077V4.91417H10.7938C13.5955 4.91417 16.1 5.39033 18.3098 6.34265C18.6255 6.47945 18.9359 6.62414 19.2384 6.77935C20.1486 7.24499 20.9826 7.78165 21.7376 8.38935C22.9951 9.39954 24.0368 10.607 24.8602 12.0066C25.6837 13.4061 26.2493 14.9451 26.5597 16.6156C26.5913 16.784 26.6202 16.9523 26.6439 17.1207C26.7728 17.9704 26.8359 18.8543 26.8359 19.7724C26.8359 20.6906 26.7728 21.5745 26.6439 22.4242C26.6176 22.5952 26.5886 22.7636 26.5597 22.9293C26.2519 24.6024 25.6837 26.1388 24.8602 27.5383C24.0368 28.9378 22.9951 30.1453 21.7376 31.1555C20.9826 31.7632 20.1513 32.2973 19.2384 32.7655C18.9359 32.9207 18.6255 33.0654 18.3098 33.2022C17.3127 33.631 16.2525 33.9599 15.1345 34.1966ZM130.917 12.7984V40H136.342V14.1953C134.543 13.6981 132.735 13.2325 130.917 12.7984ZM84.3275 8.3683V8.24729C82.4623 8.28412 80.5972 8.47353 78.7346 8.57613V39.637H84.3275V8.24992V8.37093V8.3683ZM136.342 7.40546V0.173627H130.917V5.92963C132.735 6.46892 134.543 7.04242 136.342 7.64485V7.40546ZM151.153 19.4883L151.056 19.4515L150.995 19.5357C147.465 24.5577 145.334 30.4426 144.837 36.5564C144.821 36.7432 144.931 36.901 145.113 36.951C145.15 36.9615 145.184 36.9668 145.221 36.9668C145.36 36.9668 145.486 36.8905 145.552 36.7563C148.272 31.2687 151.729 26.1624 155.83 21.5824L155.954 21.4456L155.786 21.3745C154.297 20.7405 152.739 20.1092 151.153 19.491V19.4883ZM177.221 5.19566C177.173 5.01414 177.015 4.90365 176.831 4.9168C168.353 5.51398 160.413 9.21276 154.476 15.3371L154.349 15.466L154.51 15.5475C156.012 16.2973 157.54 17.0944 159.177 17.9809L159.261 18.0256L159.329 17.9599C164.559 12.9194 170.51 8.77343 177.018 5.63762C177.186 5.55607 177.265 5.38244 177.218 5.20092V5.19566H177.221ZM176.992 30.7109C177.265 30.9135 176.979 31.3265 176.692 31.1424C152.481 15.7685 123.754 6.80303 92.9142 6.65307C85.0352 6.61624 77.2877 7.15291 69.7113 8.2315C69.6087 8.24729 69.5061 8.19993 69.4508 8.11049L65.5442 1.86518C65.4416 1.70207 65.5442 1.48635 65.7363 1.46268C72.1657 0.683986 78.7162 0.299901 85.364 0.33147C119.708 0.497205 151.392 11.7672 176.989 30.7083L176.992 30.7109ZM47.1213 11.7409C46.2322 12.1749 45.4535 12.7116 44.78 13.3456C44.1092 13.9796 43.5462 14.7162 43.0937 15.5501V10.707H38.0875V39.5449H43.3121V25.1812C43.3121 23.8159 43.4673 22.5899 43.7751 21.4982C43.8645 21.1878 43.9645 20.8852 44.0776 20.5959C44.1355 20.4512 44.1934 20.3091 44.2565 20.1697C44.6353 19.3357 45.1273 18.6018 45.7323 17.9704C46.1348 17.5495 46.5768 17.1786 47.0556 16.8629C47.5344 16.5472 48.0526 16.2841 48.6077 16.071C48.7471 16.0184 48.8866 15.9684 49.0312 15.9237C49.318 15.8316 49.6153 15.7527 49.9204 15.6869C50.686 15.5212 51.512 15.4397 52.3959 15.4397C52.5222 15.4397 52.6432 15.4397 52.7563 15.4397C52.9826 15.4449 53.1825 15.4528 53.3561 15.466C53.4429 15.4739 53.5219 15.4817 53.5955 15.4896V10.4281C51.0569 10.4281 48.8971 10.8622 47.1213 11.733V11.7382V11.7409Z" fill="white"/>
</svg>
