<svg width="224" height="40" viewBox="0 0 224 40" fill="none" xmlns="http://www.w3.org/2000/svg">
<g clip-path="url(#clip0_9149_2563)">
<path d="M0 36C0 33.7908 1.79085 32 3.99999 32H6.24682C7.21507 32 7.99999 31.2151 7.99999 30.2468V25.7532C7.99999 24.7849 8.7849 24 9.75315 24H14.2468C15.2151 24 16 23.215 16 22.2468V20C16 17.7908 17.7908 16 20 16C22.2091 16 24 17.7908 24 20C24 22.2091 22.2091 24 20 24H17.7531C16.7849 24 16 24.7849 16 25.7532V30.2468C16 31.2151 15.2151 32 14.2468 32H9.75315C8.7849 32 7.99999 32.7849 7.99999 33.7532V36C7.99999 38.2091 6.20914 40 3.99999 40C1.79085 40 0 38.2091 0 36Z" fill="white"/>
<path d="M33.215 22.409C34.5456 20.6332 34.1848 18.115 32.409 16.7843C30.6332 15.4537 28.115 15.8145 26.7843 17.5903C25.4537 19.3661 25.8146 21.8844 27.5903 23.215C29.3661 24.5456 31.8844 24.1848 33.215 22.409Z" fill="white"/>
<path d="M32.2025 0H27.7975C26.8048 0 26 0.80475 26 1.79746V6.20253C26 7.19524 26.8048 7.99999 27.7975 7.99999H32.2025C33.1952 7.99999 34 7.19524 34 6.20253V1.79746C34 0.80475 33.1952 0 32.2025 0Z" fill="white"/>
<path d="M8 14.2469V9.7532C8 8.78495 8.78492 8.00003 9.75317 8.00003H14.2468C15.2151 8.00003 16 7.21509 16 6.24686V4.00004C16 1.79087 17.7909 0 20 0C22.2091 0 24 1.79085 24 3.99999C24 6.20914 22.2091 7.99999 20 8.00001H17.7532C16.7849 8.00001 16 8.78493 16 9.75318V14.2468C16 15.2151 15.2151 16 14.2468 16H9.75317C8.78492 16 8 15.2151 8 14.2469Z" fill="white"/>
<path d="M49.9078 33.3246V17.6481H47.3516V14.065H49.9078V12.4976C49.9078 7.79447 52.2966 6.15234 55.8424 6.15234C56.9994 6.15234 58.1938 6.30149 59.5002 6.52567V9.88465C58.5297 9.73551 57.6713 9.66077 56.9623 9.66077C55.096 9.66077 54.1255 10.258 54.1255 12.7215V14.065H59.5002V17.6481H54.1255V33.3246H49.9078Z" fill="white"/>
<path d="M61.1973 24.8522V14.0654H65.415V24.8522C65.415 28.5475 67.3931 30.227 70.7524 30.227C74.1116 30.227 76.0897 28.4354 76.0897 24.6657V14.0654H80.3074V24.6657C80.3074 31.011 76.6869 33.8475 70.7524 33.8475C64.8178 33.8475 61.1973 31.1975 61.1973 24.8522Z" fill="white"/>
<path d="M82.2696 28.0621C82.2696 27.9129 82.2696 27.7264 82.3069 27.577H86.4873V27.7635C86.4873 29.3312 88.0176 30.6003 90.9662 30.6003C93.7654 30.6003 95.4451 29.7045 95.4451 27.8382C95.4451 23.8073 82.5308 27.5396 82.5308 19.627C82.5308 16.0438 85.5915 13.543 90.8541 13.543C96.6769 13.543 99.2522 16.1182 99.2522 19.4028V19.8135H95.0718V19.5896C95.0718 18.0593 93.8027 16.7528 90.8541 16.7528C88.2041 16.7528 86.7111 17.6859 86.7111 19.4775C86.7111 23.6579 99.6255 19.7761 99.6255 27.7264C99.6255 31.3096 96.6769 33.8475 90.9662 33.8475C84.6209 33.8475 82.2696 31.1228 82.2696 28.0621Z" fill="white"/>
<path d="M101.363 8.76522C101.363 7.27224 102.446 6.18994 103.939 6.18994C105.432 6.18994 106.514 7.27224 106.514 8.76522C106.514 10.2582 105.432 11.3405 103.939 11.3405C102.446 11.3405 101.363 10.2582 101.363 8.76522ZM101.811 33.3248V14.0652H106.029V33.3248H101.811Z" fill="white"/>
<path d="M108.119 23.6952C108.119 16.8275 112.449 13.543 118.421 13.543C124.43 13.543 128.722 16.8275 128.722 23.6952C128.722 30.563 124.43 33.8475 118.421 33.8475C112.449 33.8475 108.119 30.563 108.119 23.6952ZM124.43 23.6952C124.43 19.1416 121.967 16.9396 118.421 16.9396C114.837 16.9396 112.449 19.1416 112.449 23.6952C112.449 28.2489 114.875 30.4138 118.458 30.4138C122.004 30.4138 124.43 28.2489 124.43 23.6952Z" fill="white"/>
<path d="M130.893 33.325V14.0654H134.737L135.11 16.8275H135.484C137.014 14.5508 139.216 13.543 142.202 13.543C146.42 13.543 150.003 15.9691 150.003 22.1649V33.325H145.785V22.5008C145.785 18.8803 143.919 17.1261 140.933 17.1261C137.499 17.1261 135.11 19.3283 135.11 23.3219V33.325L130.893 33.325Z" fill="white"/>
<path d="M161.279 23.6952C161.279 16.977 165.348 13.543 170.237 13.543C173.112 13.543 175.313 14.5135 176.919 16.7528H177.292L177.665 14.0654H181.51V33.325H177.665L177.292 30.563H176.919C175.351 32.8396 173.149 33.8475 170.237 33.8475C165.348 33.8475 161.279 30.3764 161.279 23.6952ZM177.404 23.6952C177.404 19.4028 174.94 17.0514 171.469 17.0514C168.035 17.0514 165.609 19.3657 165.609 23.6952C165.609 27.9877 168.035 30.3391 171.469 30.3391C174.94 30.3391 177.404 27.9503 177.404 23.6952Z" fill="white"/>
<path d="M189.144 30.6372H188.77L188.397 33.3246H184.553V6.6748H188.77V16.8271H189.144C190.711 14.513 192.913 13.5425 195.825 13.5425C200.752 13.5425 204.783 16.9765 204.783 23.6948C204.783 30.376 200.752 33.8471 195.825 33.8471C192.951 33.8471 190.749 32.8765 189.144 30.6372ZM200.49 23.6948C200.49 19.3653 198.027 17.0509 194.593 17.0509C191.159 17.0509 188.696 19.4023 188.696 23.6948C188.696 27.9498 191.159 30.3386 194.593 30.3386C198.027 30.3386 200.49 27.9872 200.49 23.6948Z" fill="white"/>
<path d="M206.082 28.0621C206.082 27.9129 206.082 27.7264 206.119 27.577H210.3V27.7635C210.3 29.3312 211.83 30.6003 214.779 30.6003C217.578 30.6003 219.258 29.7045 219.258 27.8382C219.258 23.8073 206.343 27.5396 206.343 19.627C206.343 16.0438 209.404 13.543 214.667 13.543C220.489 13.543 223.065 16.1182 223.065 19.4028V19.8135H218.884V19.5896C218.884 18.0593 217.616 16.7528 214.667 16.7528C212.017 16.7528 210.524 17.6859 210.524 19.4775C210.524 23.6579 223.438 19.7761 223.438 27.7264C223.438 31.3096 220.489 33.8475 214.779 33.8475C208.433 33.8475 206.082 31.1228 206.082 28.0621Z" fill="white"/>
<path d="M159.798 30.3388L158.125 30.3386V6.6748H153.907V6.67497L152.235 6.6748L152.234 9.66063L153.907 9.66076V33.3246H158.125V33.3244L159.797 33.3246L159.798 30.3388Z" fill="white"/>
</g>
<defs>
<clipPath id="clip0_9149_2563">
<rect width="223.437" height="40" fill="white"/>
</clipPath>
</defs>
</svg>
