<svg width="462" height="149" viewBox="0 0 462 149" fill="none" xmlns="http://www.w3.org/2000/svg">
<g clip-path="url(#clip0_9371_6052)">
<path d="M91.5957 1.79C92.1075 1.9121 92.1075 1.9121 92.6296 2.03667C110.648 6.45982 127.127 18.7293 136.85 34.4873C144.023 46.4863 150.706 62.4724 147.45 76.657C146.549 79.9522 145.445 82.8317 142.424 84.6657C141.133 85.2399 140.34 85.3099 138.957 85.0152C135.515 82.9917 133.779 78.8978 131.889 75.4982C129.771 71.4461 129.771 71.4461 126.447 68.4597C123.216 67.9405 120.159 69.4195 117.511 71.1444C115.662 72.5712 113.906 74.0804 112.149 75.6188C111.676 76.0033 111.202 76.3872 110.728 76.7707C109.683 77.6713 108.94 78.4258 108.184 79.562C107.87 80.0326 107.557 80.5033 107.234 80.9882C106.792 80.8405 106.349 80.6929 105.894 80.5407C105.703 78.4388 106.002 76.9592 106.731 74.9756C108.497 69.959 109.982 62.229 107.96 57.1616C107.362 55.8941 107.362 55.8941 106.34 55.4837C103.926 55.0605 102.397 56.0026 100.427 57.2665C97.042 59.7372 94.129 62.7101 91.3165 65.8029C89 68.3482 86.6472 70.8551 84.2513 73.3257C83.9074 73.6908 83.5635 74.0559 83.2091 74.4322C82.8809 74.7672 82.5527 75.1023 82.2145 75.4475C81.9234 75.7503 81.6323 76.053 81.3324 76.3649C80.4255 76.9612 80.4255 76.9612 79.1967 76.832C78.865 76.727 78.5333 76.622 78.1915 76.5137C78.3218 75.8612 78.4521 75.2087 78.5825 74.5561C78.6631 74.1432 78.7437 73.7302 78.8268 73.3047C78.9844 72.5325 79.1537 71.7625 79.3434 70.9975C79.9122 68.6051 80.0972 66.2682 80.1463 63.8174C80.1637 63.354 80.1637 63.354 80.1814 62.8812C80.187 61.3453 80.0792 60.5397 79.1479 59.2975C78.2279 58.5023 78.2279 58.5023 77.0186 58.6158C76.521 58.7635 76.0234 58.9111 75.5106 59.0633C75.1985 59.129 74.8863 59.1948 74.5647 59.2625C70.9586 60.2926 68.9643 62.884 66.5692 65.5915C64.6213 67.7864 62.5267 69.8196 60.4309 71.8715C57.6298 74.6376 55.1018 77.4231 52.781 80.6002C49.0721 85.6025 45.0921 90.0023 38.7327 91.0837C37.4394 90.8126 36.6816 90.4527 35.8128 89.4408C33.5209 85.6752 33.0765 80.7346 32.4249 76.4544C31.9361 73.4509 31.2054 70.8071 29.1543 68.4597C27.5842 67.7609 26.2298 67.6648 24.5745 68.0122C21.0023 69.5978 18.5722 72.7144 16.0851 75.6188C15.5827 76.1877 15.08 76.7563 14.5771 77.3247C13.6168 78.4293 12.6646 79.5407 11.7148 80.6544C4.81637 88.7418 4.81637 88.7418 2.23405 91.2795C-1.95989 81.6927 -1.01797 67.2506 1.34043 57.2735C1.41236 56.9518 1.48428 56.6301 1.55838 56.2986C4.56058 43.1694 11.3621 31.6382 20.5532 21.9251C20.9293 21.5248 21.3054 21.1246 21.6929 20.7121C39.3446 2.44683 67.2015 -4.21004 91.5957 1.79ZM27.4613 42.6773C26.8085 43.4026 26.8085 43.4026 25.496 44.0458C23.5123 45.0594 22.36 46.5912 21 48.3245C20.7143 48.6752 20.4286 49.0259 20.1343 49.3872C19.2247 51.6377 19.3793 54.0739 20.0505 56.3786C20.5356 57.3363 20.5356 57.3363 21.4468 58.1684C24.629 59.0038 27.0155 58.6651 29.8384 57.0235C34.6455 53.8962 36.2278 49.2963 37.5319 43.8501C37.7635 42.4758 37.7653 41.6726 37.5319 40.2705C36.3712 39.1765 35.5809 38.9651 34.0133 38.7603C30.8256 39.1434 29.3748 40.2388 27.4613 42.6773Z" fill="white"/>
<path d="M94.1649 74.3603C95.1702 74.7238 95.1702 74.7238 95.617 75.1713C95.6818 82.3731 93.8922 89.9414 91.5648 96.7057C90.717 99.2726 90.5623 101.559 90.7021 104.255C92.7563 104.476 94.1879 104.523 95.9242 103.333C99.5852 100.288 102.571 96.2654 105.503 92.5378C113.184 82.8373 113.184 82.8373 117.818 82.0508C121.8 82.8032 124.617 86.5689 127.117 89.5455C129.215 91.977 131.699 94.2512 134.936 94.859C138.894 94.7332 141.449 93.0675 144.319 90.3845C144.982 89.5149 145.54 88.6385 146.106 87.6998C146.528 89.0472 146.559 89.9103 146.202 91.2724C146.114 91.6132 146.026 91.954 145.935 92.3052C145.785 92.8495 145.785 92.8495 145.632 93.4048C145.528 93.7844 145.424 94.164 145.318 94.5551C142.168 105.812 136.842 116.097 128.81 124.639C127.935 125.575 127.12 126.533 126.307 127.523C115.449 139.906 97.5056 147.793 81.3191 149C72.1627 149.474 63.4041 149.225 54.5106 146.763C54.1094 146.655 53.7083 146.547 53.295 146.436C41.4081 143.144 31.4033 136.604 22.3404 128.418C22.0058 128.115 21.6711 127.813 21.3263 127.502C18.5092 124.813 16.1879 121.678 13.851 118.574C13.5648 118.195 13.2785 117.817 12.9836 117.427C9.02049 111.976 6.17716 106.148 4.02124 99.7809C4.42729 99.3007 4.42729 99.3007 4.84155 98.8108C7.29124 95.8934 9.65782 92.9304 11.9626 89.8968C12.455 89.2523 12.455 89.2523 12.9574 88.5947C13.4222 87.9847 13.4222 87.9847 13.8964 87.3625C15.0266 86.0234 15.8114 85.5153 17.5372 85.1829C19.6921 85.5426 20.1862 86.2968 21.5434 87.9235C22.9593 89.9109 23.9018 92.1011 24.8816 94.3276C25.2885 95.246 25.6997 96.1626 26.1156 97.077C26.2922 97.4783 26.4689 97.8797 26.6508 98.2931C27.6697 100.047 28.7703 100.582 30.6622 101.235C35.3505 102.249 39.719 100.576 43.6912 98.1152C49.1287 94.2996 53.9577 89.5407 58.0065 84.2845C58.2236 84.0029 58.4407 83.7214 58.6644 83.4312C59.0872 82.8785 59.5061 82.3227 59.9204 81.7636C61.089 80.2238 62.1285 79.1202 63.8936 78.3034C64.9268 78.4432 64.9268 78.4432 65.6808 78.7509C65.8306 81.6893 65.3112 84.0611 64.4521 86.8608C64.3308 87.2722 64.2095 87.6835 64.0845 88.1073C63.6298 89.6473 63.1651 91.1843 62.6976 92.7205C62.4418 93.5629 62.1901 94.4067 61.9388 95.2505C61.7263 95.9409 61.7263 95.9409 61.5094 96.6453C61.1733 98.17 61.1621 99.5666 61.2127 101.123C62.6641 101.746 63.5803 102.081 65.1485 101.766C66.9759 100.942 68.0856 99.8246 69.4508 98.3826C69.707 98.1188 69.9632 97.8549 70.2272 97.5831C71.7704 95.9835 73.2704 94.3526 74.7077 92.6567C75.9536 91.2138 77.2614 89.8276 78.5576 88.4303C79.899 86.9708 81.1382 85.4656 82.3524 83.8965C84.5845 81.1115 87.2416 78.8793 90.0009 76.6383C90.653 76.1063 91.2925 75.5589 91.9308 75.0105C92.9361 74.2764 92.9361 74.2764 94.1649 74.3603Z" fill="white"/>
<path d="M353.453 46.5904C354.254 47.3185 354.727 47.7995 355.213 48.7717C355.24 48.4862 355.267 48.2007 355.295 47.9065C355.351 47.3519 355.351 47.3519 355.408 46.7861C355.463 46.2333 355.463 46.2333 355.518 45.6693C355.66 44.7447 355.66 44.7447 356.106 44.2972C357.032 44.258 357.96 44.2493 358.887 44.2535C359.45 44.255 360.013 44.2564 360.593 44.2579C361.192 44.2616 361.791 44.2654 362.39 44.2692C362.99 44.2715 363.591 44.2735 364.192 44.2754C365.667 44.2807 367.142 44.288 368.617 44.2972C368.636 52.6558 368.61 61.0143 368.535 69.3725C368.517 71.3589 368.503 73.3452 368.496 75.3317C368.489 77.2909 368.474 79.2499 368.452 81.209C368.446 81.9424 368.442 82.6758 368.442 83.4092C368.434 90.83 367.444 98.3352 362.362 104.143C355.7 110.243 346.656 110.466 338.166 110.149C334.056 109.899 329.817 108.905 326.17 106.94C325.276 105.149 326.488 102.729 326.98 100.871C327.102 100.388 327.225 99.9052 327.351 99.4075C327.471 98.9487 327.591 98.4899 327.715 98.0171C327.825 97.594 327.936 97.1709 328.05 96.735C328.404 95.7537 328.404 95.7537 329.298 95.3062C330.194 95.6194 331.076 95.9714 331.951 96.3409C336.994 98.3455 342.169 99.3497 347.425 97.5872C349.999 96.4228 351.952 94.7319 352.979 92.0622C353.608 89.7378 353.546 87.4038 353.426 85.0149C352.997 85.4994 352.997 85.4994 352.56 85.9937C349.423 89.1436 345.864 90.0407 341.557 90.0767C335.722 90.0819 331.889 88.3097 327.654 84.3053C322.449 78.7694 321.888 72.0455 322.011 64.8553C322.238 58.8481 324.422 53.2764 328.544 48.8276C335.213 42.7015 346.05 40.4275 353.453 46.5904ZM339.714 57.5249C336.582 61.3559 336.454 65.911 336.894 70.6966C337.531 73.9452 338.726 76.1368 341.358 78.1651C343.489 79.5559 345.209 79.82 347.669 79.4079C350.155 78.7882 351.513 77.1944 352.979 75.1711C354.144 72.6049 354.036 69.9941 354.04 67.2289C354.056 66.535 354.056 66.535 354.073 65.8271C354.086 62.4998 353.704 59.1175 351.422 56.5184C349.394 54.7491 347.642 54.4474 345.057 54.4976C342.705 54.7084 341.3 55.8841 339.714 57.5249Z" fill="white"/>
<path d="M417.932 48.7402C422.808 53.2366 424.936 58.9395 425.486 65.453C425.693 72.3024 423.749 78.934 419.441 84.3158C415.375 88.5605 409.41 91.2395 403.538 91.3858C396.676 91.5208 391.349 90.8807 385.596 86.8047C385.284 86.5907 384.972 86.3767 384.651 86.1562C380.849 83.2211 378.245 78.248 377.284 73.5875C376.419 66.0561 376.783 58.2762 381.594 52.0681C386.189 46.7607 391.344 43.9359 398.382 43.0527C405.592 42.5858 412.281 44.1347 417.932 48.7402ZM395.083 56.3887C391.998 60.7832 391.413 65.9703 392.13 71.2279C392.785 74.5088 393.832 77.6233 396.598 79.6735C398.748 80.9091 400.564 81.3011 403.021 80.9879C405.732 79.8645 407.463 78.2308 408.83 75.6185C410.715 70.1247 410.733 64.5556 408.83 59.0629C407.455 56.5983 405.748 54.6037 403.021 53.6936C399.818 53.4218 397.278 53.8698 395.083 56.3887Z" fill="white"/>
<path d="M231.894 45.1922C236.1 48.1678 238.376 51.8103 239.489 56.8258C240.069 60.3074 239.993 63.7945 239.98 67.3129C239.979 67.9799 239.978 68.6469 239.978 69.3139C239.976 71.0587 239.972 72.8035 239.967 74.5483C239.961 76.6475 239.959 78.7468 239.957 80.8461C239.953 84.0255 239.944 87.2049 239.936 90.3844C235.07 90.3844 230.205 90.3844 225.192 90.3844C225.175 88.4337 225.158 86.483 225.141 84.4732C225.124 82.907 225.105 81.3408 225.086 79.7747C225.066 78.1274 225.049 76.4801 225.037 74.8327C225.025 73.2428 225.007 71.653 224.985 70.0631C224.974 69.1685 224.969 68.2739 224.965 67.3792C224.907 63.7603 224.811 60.0467 222.567 57.0495C220.449 55.5529 218.882 55.32 216.35 55.695C214.104 56.2312 212.983 57.2635 211.729 59.1592C210.397 61.9505 210.623 64.9831 210.621 68.012C210.615 68.659 210.607 69.3059 210.599 69.9529C210.58 71.6447 210.571 73.3364 210.564 75.0284C210.553 77.0642 210.53 79.0999 210.509 81.1357C210.478 84.2186 210.464 87.3012 210.447 90.3844C205.581 90.3844 200.715 90.3844 195.702 90.3844C195.702 75.1756 195.702 59.9669 195.702 44.2973C199.831 44.2973 203.959 44.2973 208.213 44.2973C208.508 46.2168 208.803 48.1364 209.106 50.1141C209.475 49.6434 209.844 49.1728 210.223 48.6879C211.733 46.9357 213.307 45.7886 215.362 44.7447C215.644 44.6011 215.926 44.4575 216.217 44.3095C220.874 42.3738 227.534 42.6574 231.894 45.1922Z" fill="white"/>
<path d="M244.404 44.2974C249.565 44.2974 254.726 44.2974 260.043 44.2974C261.551 48.3257 261.551 48.3257 262.088 50.1627C262.209 50.5736 262.33 50.9846 262.454 51.408C262.58 51.841 262.706 52.2741 262.835 52.7203C263.036 53.4071 263.036 53.4071 263.241 54.1077C263.522 55.0729 263.803 56.0382 264.083 57.0037C264.507 58.4643 264.935 59.9239 265.362 61.3835C266.696 65.9532 268.018 70.5056 268.979 75.1713C269.032 74.9332 269.085 74.6951 269.14 74.4498C270.716 67.4731 272.562 60.5827 274.48 53.6938C274.602 53.2554 274.723 52.8169 274.849 52.3652C275.197 51.111 275.547 49.8574 275.899 48.6041C276.006 48.221 276.112 47.8379 276.222 47.4432C276.97 44.7967 276.97 44.7967 277.468 44.2974C278.595 44.2579 279.709 44.2459 280.835 44.2538C281.34 44.2547 281.34 44.2547 281.855 44.2557C282.934 44.2582 284.013 44.2638 285.092 44.2695C285.822 44.2717 286.551 44.2738 287.281 44.2756C289.074 44.2805 290.867 44.2883 292.66 44.2974C292.368 46.7793 291.547 48.9493 290.661 51.2661C290.423 51.8978 290.423 51.8978 290.18 52.5423C289.659 53.9245 289.135 55.3053 288.61 56.6862C288.064 58.1326 287.518 59.5794 286.972 61.0262C286.599 62.0171 286.225 63.008 285.85 63.9988C284.585 67.3494 283.334 70.7051 282.093 74.0649C281.848 74.7273 281.848 74.7273 281.599 75.4031C280.971 77.1015 280.344 78.8 279.719 80.4994C279.292 81.6614 278.863 82.8227 278.433 83.9839C278.309 84.3228 278.185 84.6616 278.058 85.0107C277.94 85.3272 277.823 85.6437 277.702 85.9697C277.602 86.2408 277.503 86.5118 277.4 86.7911C276.889 88.0169 276.274 89.1966 275.681 90.3845C270.815 90.3845 265.949 90.3845 260.936 90.3845C259.526 86.9962 258.168 83.646 256.945 80.1946C256.786 79.7512 256.627 79.3077 256.464 78.8508C255.952 77.4197 255.442 75.9879 254.932 74.5561C254.218 72.5568 253.503 70.5579 252.787 68.5592C252.519 67.8115 252.519 67.8115 252.246 67.0486C251.095 63.8392 249.927 60.6365 248.741 57.4395C248.594 57.042 248.447 56.6445 248.295 56.235C247.607 54.3783 246.915 52.5228 246.22 50.6686C245.977 50.0136 245.733 49.3587 245.49 48.7038C245.323 48.2628 245.323 48.2628 245.153 47.813C244.691 46.5672 244.404 45.6396 244.404 44.2974Z" fill="white"/>
<path d="M169.34 26.8467C174.206 26.8467 179.072 26.8467 184.085 26.8467C184.085 47.8141 184.085 68.7815 184.085 90.3842C179.219 90.3842 174.354 90.3842 169.34 90.3842C169.34 69.4168 169.34 48.4494 169.34 26.8467Z" fill="white"/>
<path d="M462 43.4023C462 47.9797 462 52.5571 462 57.2732C459.936 57.2732 457.872 57.2732 455.745 57.2732C452.85 58.2038 451.137 59.0984 449.489 61.7477C448.412 64.925 448.444 68.2332 448.411 71.5513C448.402 72.0919 448.393 72.6324 448.385 73.1893C448.358 74.9033 448.337 76.6172 448.317 78.3312C448.299 79.4985 448.282 80.6657 448.264 81.833C448.221 84.6834 448.185 87.5338 448.149 90.3843C443.283 90.3843 438.417 90.3843 433.404 90.3843C433.404 75.1756 433.404 59.9668 433.404 44.2972C437.533 44.2972 441.661 44.2972 445.915 44.2972C446.21 46.6598 446.505 49.0223 446.809 51.4564C447.196 50.8381 447.583 50.2198 447.981 49.5827C451.664 44.0976 455.452 43.4023 462 43.4023Z" fill="white"/>
<path d="M298.915 44.2974C303.781 44.2974 308.646 44.2974 313.659 44.2974C313.659 59.5061 313.659 74.7148 313.659 90.3844C308.794 90.3844 303.928 90.3844 298.915 90.3844C298.915 75.1757 298.915 59.967 298.915 44.2974Z" fill="white"/>
<path d="M171.128 98.4385C172.602 98.4385 174.077 98.4385 175.596 98.4385C177.375 102.508 178.827 106.638 180.203 110.855C180.408 111.477 180.613 112.1 180.819 112.722C181.314 114.224 181.807 115.728 182.298 117.231C183.03 116.132 183.435 115.349 183.867 114.135C183.992 113.785 184.117 113.436 184.246 113.076C184.379 112.701 184.511 112.327 184.647 111.941C184.785 111.555 184.922 111.17 185.064 110.773C185.503 109.542 185.939 108.311 186.375 107.08C186.672 106.245 186.969 105.411 187.267 104.576C187.995 102.531 188.722 100.485 189.447 98.4385C191.069 98.4385 192.691 98.4385 194.362 98.4385C194.545 100.912 194.728 103.385 194.91 105.859C194.972 106.696 195.033 107.534 195.096 108.372C195.492 113.709 195.854 119.047 196.149 124.39C193.4 124.434 193.4 124.434 192.574 124.39C191.649 123.463 191.96 121.524 191.904 120.243C191.886 119.87 191.868 119.498 191.849 119.114C191.791 117.918 191.736 116.722 191.681 115.525C191.626 114.334 191.57 113.143 191.512 111.951C191.476 111.209 191.442 110.466 191.409 109.724C191.332 108.121 191.178 106.714 190.787 105.15C188.575 111.499 186.364 117.849 184.085 124.39C183.053 124.39 182.021 124.39 180.957 124.39C179.275 120.422 177.948 116.344 176.601 112.253C175.827 109.909 175.053 107.565 174.255 105.15C173.813 111.499 173.371 117.849 172.915 124.39C171.735 124.39 170.556 124.39 169.34 124.39C169.305 121.4 169.398 118.445 169.618 115.462C169.647 115.058 169.675 114.654 169.705 114.237C169.765 113.39 169.826 112.543 169.888 111.697C169.983 110.405 170.074 109.113 170.165 107.821C170.224 106.994 170.284 106.166 170.344 105.339C170.384 104.764 170.384 104.764 170.426 104.178C170.569 102.241 170.769 100.35 171.128 98.4385Z" fill="white"/>
<path d="M236.808 100.676C239.37 102.967 240.662 105.536 240.971 108.95C241.119 113.691 240.28 117.517 237.255 121.258C233.615 124.296 229.27 124.595 224.717 124.502C224.25 124.5 223.784 124.498 223.304 124.495C219.899 124.46 219.899 124.46 219.383 123.943C219.341 123.146 219.33 122.348 219.332 121.551C219.332 121.04 219.332 120.53 219.332 120.004C219.335 119.448 219.337 118.893 219.339 118.32C219.34 117.755 219.341 117.189 219.341 116.607C219.343 115.101 219.347 113.595 219.352 112.089C219.357 110.554 219.359 109.018 219.361 107.483C219.366 104.468 219.374 101.453 219.383 98.4384C220.082 98.3647 220.78 98.2921 221.479 98.2199C221.868 98.1794 222.257 98.1388 222.658 98.097C227.431 97.6726 232.754 97.8175 236.808 100.676ZM222.957 101.571C222.916 102.189 222.905 102.809 222.907 103.429C222.907 103.823 222.907 104.217 222.907 104.623C222.909 105.051 222.911 105.48 222.914 105.921C222.914 106.357 222.915 106.794 222.916 107.243C222.918 108.643 222.924 110.043 222.929 111.442C222.932 112.389 222.934 113.335 222.936 114.282C222.941 116.607 222.948 118.933 222.957 121.258C225.118 122.34 228.169 121.744 230.447 121.173C232.988 120.253 234.88 118.713 236.138 116.308C237.383 113.009 237.372 109.287 236.054 106.017C234.752 103.532 232.959 102.296 230.314 101.361C228.551 100.98 224.324 100.202 222.957 101.571Z" fill="white"/>
<path d="M282.83 98.4385C284.304 98.4385 285.779 98.4385 287.298 98.4385C288.22 101.08 289.142 103.722 290.063 106.364C290.376 107.26 290.689 108.157 291.002 109.053C292.005 111.927 293.005 114.802 294 117.679C294.107 117.988 294.215 118.297 294.325 118.615C294.589 119.376 294.85 120.139 295.11 120.902C295.245 121.295 295.379 121.688 295.518 122.092C295.787 123.048 295.787 123.048 295.787 124.39C294.608 124.39 293.428 124.39 292.213 124.39C291.617 122.899 291.021 121.407 290.425 119.916C290.258 119.525 290.091 119.135 289.919 118.733C289.532 117.679 289.532 117.679 289.532 116.336C286.583 116.336 283.634 116.336 280.596 116.336C280.402 117.084 280.209 117.831 280.009 118.602C279.46 120.629 278.801 122.489 277.915 124.39C276.735 124.39 275.556 124.39 274.34 124.39C274.655 121.665 275.59 119.161 276.477 116.581C276.644 116.09 276.81 115.6 276.982 115.094C277.334 114.06 277.688 113.027 278.042 111.994C278.585 110.408 279.125 108.821 279.665 107.234C280.008 106.229 280.351 105.225 280.693 104.22C280.937 103.506 280.937 103.506 281.186 102.777C281.336 102.338 281.487 101.899 281.642 101.446C281.775 101.059 281.907 100.671 282.044 100.272C282.383 99.3334 282.383 99.3334 282.83 98.4385ZM284.617 102.018C283.437 105.709 282.258 109.401 281.042 113.204C283.402 113.204 285.761 113.204 288.191 113.204C287.442 109.383 286.252 105.72 285.064 102.018C284.916 102.018 284.769 102.018 284.617 102.018Z" fill="white"/>
<path d="M200.617 97.9912C205.335 97.9912 210.054 97.9912 214.915 97.9912C214.915 99.0248 214.915 100.058 214.915 101.123C211.376 101.123 207.837 101.123 204.191 101.123C204.191 103.781 204.191 106.439 204.191 109.177C207.583 109.177 210.974 109.177 214.468 109.177C214.468 110.211 214.468 111.245 214.468 112.31C211.077 112.31 207.685 112.31 204.191 112.31C204.191 115.263 204.191 118.216 204.191 121.258C207.878 121.258 211.564 121.258 215.362 121.258C215.362 122.292 215.362 123.326 215.362 124.391C210.496 124.391 205.63 124.391 200.617 124.391C200.617 115.679 200.617 106.967 200.617 97.9912Z" fill="white"/>
<path d="M310.979 25.5044C312.56 26.8415 313.59 27.9571 314.106 29.9788C314.306 32.4983 314.205 34.0817 312.766 36.2431C310.804 38.2296 309.152 38.9934 306.371 39.0397C303.962 39.0079 302.275 38.7103 300.508 36.9457C298.824 35.0253 298.302 33.5152 298.344 30.9594C298.652 28.523 299.717 26.8377 301.596 25.3086C304.823 23.6254 307.745 23.7655 310.979 25.5044Z" fill="white"/>
<path d="M266.019 97.9069C266.593 97.9006 267.168 97.8942 267.76 97.8877C269.374 97.9876 270.609 98.2982 272.106 98.8857C271.959 99.9193 271.812 100.953 271.66 102.018C271.236 101.944 270.812 101.87 270.375 101.794C266.994 101.329 263.506 101.065 260.489 102.913C258.362 104.83 257.083 106.83 256.749 109.714C256.681 113.286 256.922 116.122 259.149 119.021C261.032 120.858 263.369 121.122 265.91 121.281C267.891 121.246 269.749 120.865 271.66 120.363C271.881 121.914 271.881 121.914 272.106 123.495C268.291 125.193 263.995 125.221 260.043 123.943C256.413 122.395 254.4 119.872 252.894 116.336C251.702 112.756 252.036 108.191 253.642 104.799C255.653 101.431 258.013 99.4032 261.73 98.1761C263.165 97.9085 264.561 97.9142 266.019 97.9069Z" fill="white"/>
<path d="M299.362 98.4385C300.689 98.4385 302.016 98.4385 303.383 98.4385C303.383 105.969 303.383 113.5 303.383 121.258C306.922 121.258 310.461 121.258 314.106 121.258C314.106 122.292 314.106 123.326 314.106 124.39C309.241 124.39 304.375 124.39 299.362 124.39C299.362 115.826 299.362 107.262 299.362 98.4385Z" fill="white"/>
<path d="M244.851 98.4385C246.031 98.4385 247.21 98.4385 248.426 98.4385C248.426 107.003 248.426 115.567 248.426 124.39C247.246 124.39 246.066 124.39 244.851 124.39C244.851 115.826 244.851 107.262 244.851 98.4385Z" fill="white"/>
</g>
<defs>
<clipPath id="clip0_9371_6052">
<rect width="462" height="149" fill="white"/>
</clipPath>
</defs>
</svg>
