<svg width="603" height="204" viewBox="0 0 603 204" fill="none" xmlns="http://www.w3.org/2000/svg">
<g clip-path="url(#clip0_9372_32455)">
<path d="M335.065 0C397.388 0 397.388 0 403.963 1.76369C404.101 1.80061 404.24 1.83753 404.382 1.87557C407.921 2.83241 411.539 4.00686 414.664 5.96393C415.031 6.18958 415.406 6.39288 415.786 6.59546C416.427 6.94209 417.057 7.30346 417.682 7.6794C417.845 7.77716 418.008 7.87492 418.176 7.97564C418.295 8.05976 418.414 8.14388 418.537 8.23055C418.537 8.32755 418.537 8.42455 418.537 8.5245C418.653 8.56997 418.768 8.61544 418.887 8.66228C419.273 8.81844 419.273 8.81844 419.568 8.96542C419.568 9.06242 419.568 9.15942 419.568 9.25937C419.652 9.29802 419.736 9.33667 419.823 9.37649C425.922 12.6044 430.087 20.6985 432.134 26.8894C432.279 27.3793 432.405 27.8688 432.523 28.366C432.567 28.5493 432.567 28.5493 432.612 28.7362C433.463 32.2963 433.908 35.7641 433.894 39.4258C433.894 39.5632 433.894 39.7007 433.893 39.8423C433.888 41.8542 433.811 43.8166 433.466 45.8033C433.41 46.1305 433.361 46.4578 433.315 46.7866C432.49 52.3492 429.997 57.4509 426.798 62.0167C426.638 62.2477 426.477 62.4792 426.327 62.7168C426.191 62.931 426.045 63.139 425.898 63.3458C425.801 63.3458 425.704 63.3458 425.604 63.3458C425.57 63.4262 425.536 63.5065 425.501 63.5893C424.86 64.7393 423.68 65.7198 422.751 66.6527C422.68 66.725 422.608 66.7973 422.534 66.8718C421.35 68.049 421.35 68.049 420.893 68.049C420.893 68.146 420.893 68.243 420.893 68.3429C420.551 68.6154 420.209 68.8715 419.853 69.1237C419.756 69.1934 419.66 69.263 419.56 69.3347C419.366 69.4746 419.17 69.6138 418.975 69.7522C418.781 69.891 418.588 70.0323 418.397 70.1757C417.701 70.6945 417.701 70.6945 417.212 70.6945C417.212 70.7915 417.212 70.8885 417.212 70.9885C416.765 71.2352 416.317 71.4788 415.868 71.7213C415.679 71.8236 415.491 71.9266 415.303 72.0303C412.304 73.6856 409.154 74.9878 405.877 75.9856C405.78 76.0159 405.683 76.0462 405.584 76.0774C405.111 76.2206 404.759 76.2795 404.257 76.2795C404.257 76.3765 404.257 76.4735 404.257 76.5735C404.354 76.5735 404.452 76.5735 404.552 76.5735C404.74 76.8386 404.915 77.1135 405.085 77.391C405.7 78.3739 406.352 79.3264 407.018 80.2754C407.848 81.4605 408.673 82.6484 409.488 83.8437C409.84 84.3588 410.193 84.8724 410.554 85.381C410.616 85.469 410.678 85.557 410.742 85.6476C410.905 85.8781 411.07 86.1078 411.234 86.3375C411.446 86.6743 411.556 86.9143 411.618 87.3026C411.715 87.3026 411.812 87.3026 411.913 87.3026C412.167 87.6459 412.167 87.6459 412.446 88.0926C412.539 88.2392 412.632 88.3859 412.728 88.5369C412.943 88.9193 412.943 88.9193 412.943 89.2133C413.04 89.2133 413.137 89.2133 413.238 89.2133C413.477 89.5674 413.7 89.9215 413.918 90.288C414.438 91.1384 414.978 91.9555 415.574 92.755C416.174 93.571 416.741 94.4097 417.311 95.2462C417.438 95.4329 417.566 95.6194 417.694 95.8058C417.862 96.0512 418.03 96.2974 418.197 96.5436C418.292 96.6827 418.386 96.8217 418.484 96.965C418.685 97.2968 418.685 97.2968 418.685 97.5908C418.782 97.5908 418.879 97.5908 418.979 97.5908C419.568 98.3689 419.568 98.3689 419.568 98.9136C419.665 98.9136 419.762 98.9136 419.862 98.9136C420.116 99.2569 420.116 99.2569 420.396 99.7035C420.489 99.8502 420.582 99.9968 420.678 100.148C420.893 100.53 420.893 100.53 420.893 100.824C420.99 100.824 421.087 100.824 421.187 100.824C421.376 101.089 421.551 101.364 421.721 101.642C422.349 102.647 423.018 103.62 423.699 104.59C424.495 105.727 425.283 106.867 426.045 108.026C426.152 108.18 426.259 108.335 426.37 108.494C426.634 108.908 426.634 108.908 426.634 109.202C426.731 109.202 426.829 109.202 426.929 109.202C427.518 109.98 427.518 109.98 427.518 110.525C427.615 110.525 427.712 110.525 427.812 110.525C427.861 110.719 427.909 110.913 427.959 111.112C428.056 111.112 428.154 111.112 428.254 111.112C428.843 112.104 428.843 112.104 428.843 112.435C428.94 112.435 429.037 112.435 429.137 112.435C429.377 112.774 429.6 113.112 429.818 113.464C429.88 113.562 429.942 113.66 430.005 113.761C430.158 114.005 430.31 114.249 430.462 114.493C431.152 113.653 431.724 112.809 432.229 111.847C432.477 111.397 432.477 111.397 432.67 111.112C432.767 111.112 432.864 111.112 432.965 111.112C432.993 110.998 433.022 110.884 433.051 110.766C433.344 110.012 433.785 109.385 434.234 108.715C434.433 108.415 434.632 108.115 434.83 107.815C434.934 107.658 435.038 107.502 435.144 107.34C435.695 106.505 436.234 105.663 436.774 104.82C436.876 104.661 436.979 104.501 437.084 104.337C437.179 104.189 437.273 104.042 437.371 103.889C437.455 103.759 437.538 103.628 437.625 103.493C437.824 103.185 437.824 103.185 437.97 102.882C438.067 102.882 438.164 102.882 438.264 102.882C438.29 102.754 438.29 102.754 438.317 102.624C438.418 102.271 438.557 102.023 438.756 101.714C438.826 101.602 438.897 101.491 438.97 101.377C439.047 101.258 439.124 101.139 439.203 101.017C439.283 100.892 439.363 100.768 439.445 100.639C439.688 100.259 439.933 99.8802 440.178 99.5014C440.246 99.3973 440.313 99.2931 440.382 99.1858C440.637 98.792 440.892 98.3986 441.147 98.0055C442.051 96.6147 442.944 95.2166 443.838 93.8197C444.163 93.3136 444.487 92.8078 444.812 92.302C444.92 92.1338 445.028 91.9656 445.136 91.7974C445.341 91.4777 445.547 91.1581 445.752 90.8386C445.845 90.694 445.937 90.5495 446.033 90.4005C446.114 90.2738 446.196 90.1471 446.28 90.0166C446.44 89.7621 446.593 89.5027 446.741 89.2401C446.81 89.1342 446.879 89.0284 446.95 88.9193C447.047 88.9193 447.145 88.9193 447.245 88.9193C447.273 88.8051 447.302 88.6908 447.331 88.5731C447.624 87.8191 448.065 87.1916 448.514 86.5218C448.716 86.2174 448.917 85.9129 449.119 85.6084C449.223 85.4513 449.327 85.2943 449.434 85.1325C449.935 84.3722 450.426 83.6054 450.916 82.8383C451.013 82.687 451.109 82.5356 451.209 82.3798C451.407 82.0712 451.604 81.7625 451.801 81.4538C452.315 80.6504 452.83 79.8474 453.345 79.0445C453.437 78.9007 453.529 78.7569 453.624 78.6088C453.801 78.3329 453.98 78.0586 454.163 77.7864C454.471 77.3119 454.471 77.3119 454.695 76.781C455.013 76.1049 455.352 75.4203 456.081 75.1337C456.998 74.9424 457.935 74.9931 458.866 75.0171C459.181 75.0177 459.496 75.0174 459.811 75.0162C460.664 75.0156 461.516 75.0277 462.368 75.0421C463.26 75.055 464.152 75.0562 465.044 75.0586C466.732 75.065 468.419 75.0819 470.107 75.1025C472.029 75.1255 473.95 75.1369 475.872 75.1472C479.825 75.1687 483.777 75.2049 487.729 75.2507C487.626 75.7058 487.5 75.991 487.214 76.3622C486.958 76.6953 486.835 76.9005 486.699 77.3084C486.602 77.3084 486.504 77.3084 486.404 77.3084C486.35 77.4624 486.35 77.4624 486.294 77.6195C486.083 78.1053 485.82 78.5054 485.521 78.9435C485.388 79.1399 485.255 79.3365 485.122 79.5331C485.046 79.6445 484.971 79.756 484.893 79.8709C484.438 80.5432 483.988 81.2189 483.538 81.8941C483.251 82.3243 482.964 82.7544 482.677 83.1845C482.561 83.3579 482.445 83.5314 482.329 83.7048C481.221 85.3638 480.114 87.0228 479.006 88.6818C478.945 88.7723 478.885 88.8628 478.823 88.9561C478.209 89.8746 477.596 90.7932 476.982 91.7118C476.925 91.7982 476.867 91.8846 476.808 91.9736C476.433 92.534 476.059 93.0943 475.685 93.6546C475.627 93.741 475.57 93.8274 475.51 93.9164C475.118 94.5043 474.725 95.0922 474.333 95.6801C474.275 95.7665 474.217 95.8529 474.158 95.9419C473.596 96.7824 473.596 96.7824 473.035 97.6229C472.977 97.7093 472.92 97.7957 472.86 97.8847C472.664 98.1787 472.468 98.4726 472.271 98.7666C472.179 98.9056 472.086 99.0447 471.99 99.188C471.756 99.538 471.522 99.8878 471.288 100.237C471.22 100.338 471.153 100.438 471.084 100.542C470.952 100.739 470.819 100.936 470.687 101.133C470.353 101.627 470.353 101.627 470.063 102.147C469.966 102.147 469.869 102.147 469.769 102.147C469.732 102.277 469.694 102.406 469.656 102.54C469.469 103.043 469.25 103.377 468.922 103.8C468.424 104.459 467.996 105.13 467.594 105.851C467.534 105.938 467.475 106.025 467.413 106.115C467.316 106.115 467.219 106.115 467.119 106.115C467.082 106.245 467.045 106.374 467.006 106.508C466.819 107.011 466.6 107.346 466.272 107.769C465.775 108.428 465.346 109.098 464.944 109.819C464.884 109.906 464.825 109.994 464.763 110.084C464.666 110.084 464.569 110.084 464.469 110.084C464.432 110.213 464.395 110.343 464.356 110.476C464.169 110.98 463.95 111.314 463.622 111.737C463.125 112.396 462.696 113.067 462.294 113.787C462.235 113.875 462.175 113.962 462.114 114.052C462.016 114.052 461.919 114.052 461.819 114.052C461.802 114.138 461.784 114.224 461.766 114.313C461.668 114.654 461.541 114.877 461.341 115.169C461.275 115.265 461.21 115.362 461.143 115.461C461.074 115.56 461.006 115.659 460.936 115.76C460.801 115.958 460.666 116.156 460.531 116.354C460.471 116.441 460.411 116.528 460.349 116.618C460.19 116.85 460.19 116.85 460.052 117.138C459.955 117.138 459.858 117.138 459.758 117.138C459.661 117.429 459.564 117.72 459.464 118.02C459.366 118.02 459.269 118.02 459.169 118.02C459.152 118.106 459.134 118.192 459.116 118.281C459.018 118.622 458.891 118.846 458.691 119.137C458.625 119.234 458.56 119.33 458.493 119.429C458.425 119.528 458.356 119.627 458.286 119.729C458.151 119.927 458.016 120.124 457.881 120.322C457.821 120.409 457.761 120.497 457.699 120.586C457.54 120.818 457.54 120.818 457.403 121.107C457.305 121.107 457.208 121.107 457.108 121.107C457.074 121.231 457.041 121.356 457.006 121.484C456.781 122.074 456.474 122.508 456.096 123.008C455.597 123.676 455.155 124.344 454.753 125.075C454.656 125.075 454.558 125.075 454.458 125.075C454.424 125.2 454.39 125.325 454.354 125.454C454.14 126.021 453.835 126.461 453.474 126.94C453.339 127.123 453.204 127.307 453.07 127.491C453.005 127.58 452.939 127.67 452.872 127.762C452.636 128.093 452.419 128.432 452.204 128.777C451.731 129.533 451.229 130.266 450.723 131C450.055 131.969 449.407 132.945 448.776 133.939C448.255 134.748 447.7 135.534 447.147 136.321C447.069 136.434 446.99 136.547 446.909 136.663C446.804 136.814 446.804 136.814 446.697 136.967C446.488 137.307 446.336 137.629 446.214 138.009C446.362 138.357 446.362 138.357 446.637 138.679C446.735 138.808 446.832 138.936 446.932 139.068C447.035 139.204 447.138 139.339 447.245 139.478C447.434 139.756 447.621 140.034 447.806 140.314C447.904 140.462 448.002 140.609 448.103 140.762C448.261 140.999 448.261 140.999 448.422 141.242C448.73 141.704 449.038 142.165 449.346 142.626C449.64 143.064 449.932 143.503 450.224 143.943C450.325 144.094 450.426 144.246 450.529 144.402C450.623 144.543 450.717 144.684 450.813 144.829C451.039 145.161 451.273 145.485 451.514 145.807C451.808 146.239 451.808 146.239 451.808 146.68C451.906 146.68 452.003 146.68 452.103 146.68C452.348 147.043 452.577 147.407 452.802 147.782C453.213 148.457 453.619 149.118 454.109 149.739C454.458 150.208 454.458 150.208 454.458 150.648C454.555 150.648 454.653 150.648 454.753 150.648C454.999 151.009 455.228 151.368 455.452 151.742C455.584 151.958 455.716 152.174 455.849 152.39C455.913 152.495 455.977 152.6 456.043 152.708C456.336 153.178 456.649 153.634 456.967 154.087C457.108 154.323 457.108 154.323 457.108 154.617C457.205 154.617 457.302 154.617 457.403 154.617C457.649 154.977 457.878 155.337 458.102 155.71C458.234 155.926 458.366 156.142 458.499 156.358C458.563 156.463 458.627 156.568 458.693 156.676C458.986 157.147 459.299 157.602 459.617 158.056C459.758 158.291 459.758 158.291 459.758 158.585C459.855 158.585 459.952 158.585 460.052 158.585C460.299 158.945 460.527 159.305 460.752 159.678C460.884 159.894 461.016 160.11 461.149 160.326C461.213 160.431 461.277 160.536 461.343 160.644C461.635 161.115 461.949 161.57 462.266 162.024C462.408 162.259 462.408 162.259 462.408 162.553C462.505 162.553 462.602 162.553 462.702 162.553C462.921 162.858 463.122 163.162 463.319 163.481C463.437 163.67 463.556 163.858 463.674 164.047C463.763 164.189 463.763 164.189 463.853 164.334C464.188 164.866 464.535 165.391 464.879 165.918C465.058 166.228 465.058 166.228 465.058 166.522C465.155 166.522 465.252 166.522 465.352 166.522C465.571 166.827 465.772 167.13 465.969 167.449C466.087 167.638 466.206 167.826 466.324 168.015C466.413 168.157 466.413 168.157 466.503 168.302C466.838 168.835 467.185 169.359 467.529 169.886C467.708 170.196 467.708 170.196 467.708 170.49C467.805 170.49 467.902 170.49 468.002 170.49C468.218 170.792 468.415 171.093 468.609 171.409C468.729 171.599 468.849 171.789 468.969 171.979C469.059 172.123 469.059 172.123 469.151 172.27C469.403 172.667 469.663 173.057 469.925 173.448C470.07 173.663 470.07 173.663 470.217 173.882C470.312 174.024 470.407 174.165 470.505 174.311C470.695 174.596 470.885 174.881 471.075 175.166C471.172 175.31 471.269 175.455 471.369 175.605C472.043 176.614 472.043 176.614 472.23 176.894C472.355 177.082 472.481 177.271 472.607 177.459C472.9 177.897 473.193 178.336 473.484 178.776C473.585 178.927 473.686 179.079 473.79 179.235C473.883 179.376 473.977 179.516 474.073 179.661C474.299 179.994 474.533 180.318 474.774 180.64C475.069 181.072 475.069 181.072 475.069 181.513C475.166 181.513 475.263 181.513 475.363 181.513C475.609 181.876 475.838 182.239 476.062 182.615C476.473 183.29 476.879 183.951 477.369 184.572C477.719 185.04 477.719 185.04 477.719 185.481C477.816 185.481 477.913 185.481 478.013 185.481C478.259 185.841 478.488 186.201 478.712 186.574C478.844 186.791 478.977 187.007 479.109 187.223C479.173 187.328 479.237 187.433 479.304 187.541C479.596 188.011 479.909 188.467 480.227 188.92C480.368 189.156 480.368 189.156 480.368 189.45C480.466 189.45 480.563 189.45 480.663 189.45C480.909 189.81 481.138 190.169 481.362 190.543C481.494 190.759 481.626 190.975 481.759 191.191C481.823 191.296 481.887 191.401 481.953 191.509C482.246 191.979 482.559 192.435 482.877 192.889C483.018 193.124 483.018 193.124 483.018 193.418C483.115 193.418 483.213 193.418 483.313 193.418C483.559 193.778 483.788 194.138 484.012 194.511C484.144 194.727 484.276 194.943 484.409 195.159C484.473 195.264 484.537 195.369 484.603 195.477C484.896 195.948 485.209 196.403 485.527 196.857C485.668 197.092 485.668 197.092 485.668 197.386C485.765 197.386 485.863 197.386 485.963 197.386C486.209 197.746 486.438 198.106 486.662 198.479C486.794 198.695 486.926 198.912 487.059 199.127C487.123 199.232 487.187 199.337 487.253 199.446C487.546 199.916 487.859 200.371 488.177 200.825C488.318 201.061 488.318 201.061 488.318 201.354C488.415 201.354 488.512 201.354 488.613 201.354C488.802 201.596 488.802 201.596 488.999 201.915C489.065 202.019 489.13 202.123 489.198 202.23C489.349 202.53 489.349 202.53 489.349 202.971C485.091 203.016 480.834 203.05 476.576 203.07C476.182 203.072 475.789 203.074 475.395 203.076C475.297 203.077 475.2 203.077 475.099 203.078C473.516 203.086 471.933 203.101 470.351 203.119C468.726 203.136 467.101 203.147 465.476 203.151C464.564 203.153 463.652 203.159 462.739 203.173C461.88 203.186 461.021 203.19 460.162 203.187C459.847 203.188 459.532 203.192 459.217 203.199C456.902 203.25 456.902 203.25 456.258 202.78C455.683 202.19 455.194 201.46 455.194 200.62C455.097 200.62 455 200.62 454.9 200.62C454.654 200.256 454.425 199.893 454.201 199.517C453.739 198.76 453.271 198.032 452.724 197.333C452.496 197.028 452.315 196.701 452.134 196.367C451.792 195.785 451.398 195.234 451.015 194.678C450.778 194.3 450.778 194.3 450.778 194.006C450.681 194.006 450.584 194.006 450.483 194.006C450.313 193.762 450.313 193.762 450.115 193.409C449.649 192.602 449.135 191.834 448.607 191.067C448.128 190.363 448.128 190.363 448.128 190.037C448.031 190.037 447.934 190.037 447.833 190.037C447.663 189.793 447.663 189.793 447.465 189.44C446.999 188.633 446.485 187.866 445.957 187.099C445.478 186.395 445.478 186.395 445.478 186.069C445.381 186.069 445.284 186.069 445.184 186.069C445.013 185.825 445.013 185.825 444.816 185.472C444.427 184.803 444.014 184.157 443.583 183.516C443.487 183.373 443.487 183.373 443.39 183.228C443.262 183.039 443.135 182.85 443.008 182.661C442.75 182.279 442.495 181.896 442.239 181.513C442.144 181.371 442.049 181.229 441.952 181.082C439.754 177.791 439.754 177.791 439.535 177.463C439.387 177.242 439.24 177.021 439.092 176.8C438.702 176.216 438.312 175.631 437.922 175.046C437.842 174.926 437.763 174.806 437.68 174.682C437.527 174.453 437.375 174.223 437.222 173.993C436.815 173.382 436.815 173.382 436.374 172.794C436.203 172.548 436.203 172.548 436.203 172.107C436.106 172.107 436.009 172.107 435.909 172.107C435.734 171.852 435.734 171.852 435.532 171.491C435.059 170.673 434.525 169.916 433.974 169.15C433.742 168.79 433.615 168.555 433.553 168.138C433.456 168.138 433.359 168.138 433.259 168.138C433.084 167.884 433.084 167.884 432.882 167.523C432.41 166.705 431.876 165.947 431.324 165.182C431.092 164.821 430.965 164.587 430.904 164.17C430.806 164.17 430.709 164.17 430.609 164.17C430.423 163.9 430.423 163.9 430.213 163.527C429.885 162.962 429.543 162.413 429.174 161.874C429.09 161.75 429.005 161.627 428.918 161.5C428.845 161.411 428.771 161.322 428.695 161.231C428.598 161.231 428.501 161.231 428.401 161.231C428.354 161.314 428.306 161.398 428.257 161.484C427.43 162.94 426.599 164.391 425.711 165.811C425.388 166.341 425.096 166.884 424.803 167.431C424.461 168.047 424.085 168.641 423.708 169.236C423.448 169.657 423.211 170.088 422.976 170.523C422.527 171.35 422.055 172.162 421.574 172.97C421.49 173.111 421.407 173.252 421.321 173.397C420.869 174.156 420.412 174.912 419.945 175.662C419.328 176.655 418.762 177.673 418.243 178.72C418.146 178.72 418.049 178.72 417.948 178.72C417.936 178.796 417.924 178.872 417.912 178.95C417.755 179.457 417.483 179.885 417.212 180.337C417.062 180.594 416.912 180.851 416.762 181.109C416.672 181.262 416.582 181.415 416.49 181.573C416.204 182.062 415.92 182.552 415.636 183.043C415.357 183.524 415.077 184.006 414.798 184.488C414.633 184.771 414.469 185.055 414.305 185.338C414.035 185.802 413.765 186.267 413.495 186.731C413.412 186.874 413.329 187.018 413.243 187.166C412.749 188.013 412.238 188.844 411.705 189.665C411.383 190.178 411.098 190.709 410.812 191.242C410.496 191.822 410.161 192.389 409.826 192.958C409.555 193.422 409.289 193.888 409.023 194.355C407.875 196.37 406.682 198.361 405.478 200.344C404.963 201.214 404.465 202.094 403.963 202.971C393.421 202.971 382.879 202.971 372.017 202.971C372.224 202.349 372.349 201.977 372.685 201.46C372.758 201.346 372.831 201.233 372.906 201.116C372.983 200.998 373.06 200.879 373.139 200.757C373.3 200.508 373.46 200.258 373.621 200.008C373.699 199.887 373.777 199.765 373.858 199.64C374.149 199.186 374.431 198.728 374.713 198.268C375.13 197.588 375.555 196.913 375.985 196.24C376.896 194.816 377.803 193.389 378.688 191.948C379.365 190.846 380.042 189.749 380.795 188.696C381.189 188.142 381.525 187.576 381.848 186.978C382.087 186.55 382.359 186.15 382.635 185.744C383.009 185.189 383.374 184.628 383.739 184.067C383.808 183.961 383.877 183.856 383.948 183.747C384.3 183.205 384.634 182.658 384.952 182.093C385.244 181.594 385.56 181.11 385.873 180.623C386.335 179.9 386.79 179.172 387.245 178.445C387.341 178.29 387.438 178.136 387.538 177.976C388.114 177.055 388.688 176.132 389.255 175.204C389.686 174.51 390.127 173.823 390.566 173.135C390.729 172.88 390.892 172.624 391.056 172.368C391.136 172.242 391.217 172.116 391.3 171.985C393.632 168.517 393.632 168.517 395.719 164.905C395.816 164.905 395.913 164.905 396.013 164.905C396.03 164.791 396.03 164.791 396.048 164.675C396.209 164.162 396.497 163.738 396.786 163.288C396.85 163.188 396.913 163.087 396.979 162.984C397.365 162.377 397.757 161.774 398.151 161.173C398.237 161.04 398.324 160.908 398.413 160.772C398.584 160.511 398.755 160.251 398.927 159.991C399.045 159.812 399.045 159.812 399.165 159.629C399.235 159.523 399.305 159.418 399.377 159.309C399.569 159.011 399.569 159.011 399.694 158.585C399.791 158.585 399.888 158.585 399.988 158.585C400.024 158.455 400.061 158.324 400.098 158.19C400.293 157.676 400.526 157.392 400.871 156.968C400.98 156.78 401.084 156.589 401.186 156.397C401.675 155.508 402.226 154.66 402.776 153.808C402.928 153.571 402.928 153.571 403.084 153.329C403.531 152.635 403.98 151.943 404.442 151.259C404.737 150.821 405.007 150.375 405.265 149.914C405.672 149.209 406.115 148.526 406.548 147.838C406.745 147.525 406.941 147.212 407.138 146.899C407.268 146.693 407.268 146.693 407.4 146.483C407.565 146.217 407.724 145.947 407.877 145.674C407.946 145.57 408.014 145.465 408.085 145.357C408.182 145.357 408.279 145.357 408.379 145.357C408.396 145.273 408.413 145.189 408.431 145.102C408.536 144.736 408.685 144.47 408.885 144.145C409.002 143.955 409.002 143.955 409.121 143.761C410.09 142.213 410.09 142.213 410.39 141.736C410.728 141.205 410.728 141.205 411.029 140.654C411.126 140.654 411.224 140.654 411.324 140.654C411.336 140.578 411.348 140.503 411.361 140.425C411.518 139.913 411.785 139.497 412.06 139.037C412.157 139.037 412.254 139.037 412.354 139.037C412.372 138.95 412.391 138.862 412.409 138.771C412.501 138.45 412.501 138.45 412.796 138.009C412.749 137.448 412.563 137.087 412.242 136.632C412.159 136.514 412.076 136.396 411.991 136.274C411.905 136.152 411.818 136.031 411.729 135.905C409.999 133.447 409.999 133.447 409.999 133.012C409.902 133.012 409.804 133.012 409.704 133.012C409.465 132.657 409.242 132.303 409.023 131.937C408.503 131.083 407.96 130.265 407.36 129.464C406.919 128.857 406.508 128.232 406.098 127.605C405.827 127.195 405.56 126.811 405.244 126.433C404.993 126.104 404.993 126.104 404.993 125.663C404.896 125.663 404.799 125.663 404.699 125.663C404.46 125.309 404.237 124.955 404.018 124.588C403.494 123.73 402.948 122.905 402.348 122.097C401.997 121.624 401.653 121.147 401.313 120.666C401.201 120.508 401.088 120.35 400.973 120.188C400.724 119.784 400.724 119.784 400.724 119.343C400.627 119.343 400.53 119.343 400.43 119.343C400.381 119.149 400.333 118.955 400.282 118.755C400.185 118.755 400.088 118.755 399.988 118.755C399.399 117.763 399.399 117.763 399.399 117.432C399.302 117.432 399.205 117.432 399.105 117.432C398.898 117.142 398.71 116.853 398.525 116.55C398.016 115.738 397.489 114.941 396.942 114.153C396.874 114.054 396.805 113.955 396.735 113.853C396.543 113.576 396.352 113.3 396.16 113.023C395.979 112.76 395.798 112.497 395.618 112.233C395.55 112.135 395.483 112.037 395.413 111.936C395.277 111.7 395.277 111.7 395.277 111.406C395.18 111.406 395.083 111.406 394.983 111.406C394.818 111.168 394.818 111.168 394.624 110.818C394.22 110.123 393.784 109.459 393.326 108.798C393.223 108.648 393.223 108.648 393.118 108.496C392.767 107.99 392.412 107.489 392.048 106.992C391.98 106.898 391.912 106.805 391.842 106.708C391.712 106.531 391.581 106.354 391.449 106.178C391.008 105.576 391.008 105.576 391.008 105.086C390.911 105.086 390.813 105.086 390.713 105.086C390.459 104.743 390.459 104.743 390.18 104.296C390.087 104.15 389.994 104.003 389.898 103.852C389.683 103.47 389.683 103.47 389.683 103.176C389.586 103.176 389.489 103.176 389.388 103.176C389.202 102.906 389.202 102.906 388.992 102.532C388.53 101.738 388.018 100.993 387.484 100.246C385.414 97.3185 385.414 97.3185 385.414 96.8559C385.316 96.8559 385.219 96.8559 385.119 96.8559C384.88 96.5018 384.657 96.1477 384.438 95.7812C383.917 94.9278 383.374 94.1098 382.775 93.3084C382.334 92.7019 381.923 92.0764 381.512 91.4491C381.242 91.039 380.974 90.6558 380.659 90.2777C380.408 89.9481 380.408 89.9481 380.408 89.5072C380.311 89.5072 380.214 89.5072 380.114 89.5072C379.874 89.1531 379.652 88.799 379.433 88.4325C378.909 87.5741 378.363 86.7492 377.762 85.9414C377.412 85.4683 377.068 84.991 376.728 84.5101C376.615 84.3525 376.503 84.1948 376.387 84.0324C376.139 83.6283 376.139 83.6283 376.139 83.1873C376.042 83.1873 375.945 83.1873 375.844 83.1873C375.796 82.9933 375.747 82.7993 375.697 82.5994C375.6 82.5994 375.503 82.5994 375.403 82.5994C374.814 81.6074 374.814 81.6074 374.814 81.2767C374.717 81.2767 374.62 81.2767 374.52 81.2767C374.289 80.95 374.075 80.6246 373.866 80.2846C373.75 80.0984 373.634 79.9124 373.517 79.7265C373.462 79.6384 373.407 79.5502 373.35 79.4593C373.22 79.2587 373.077 79.0665 372.932 78.8769C372.753 78.6311 372.753 78.6311 372.753 78.3372C369.692 78.3372 366.632 78.3372 363.478 78.3372C363.478 94.7307 363.478 111.124 363.478 128.014C354.102 128.014 344.726 128.014 335.065 128.014C335.065 85.7697 335.065 43.5249 335.065 0ZM363.478 22.781C363.478 34.8578 363.478 46.9347 363.478 59.3775C368.976 59.3866 368.976 59.3866 374.584 59.3959C376.309 59.3999 376.309 59.3999 378.069 59.404C379.115 59.405 379.115 59.405 380.161 59.4056C380.621 59.4058 381.081 59.4069 381.541 59.4086C386.93 59.4267 392.264 59.3782 397.044 56.585C397.13 56.5375 397.217 56.4899 397.306 56.4409C398.555 55.752 399.819 54.759 400.724 53.6455C400.724 53.5485 400.724 53.4515 400.724 53.3516C400.821 53.3516 400.918 53.3516 401.019 53.3516C402.689 51.2474 403.684 49.0446 404.328 46.4543C404.378 46.2543 404.43 46.0548 404.484 45.8558C405.774 41.0113 405.041 35.2288 402.536 30.9028C402.146 30.2564 401.715 29.6462 401.258 29.0458C401.195 28.9626 401.132 28.8794 401.066 28.7937C400.911 28.5959 400.745 28.4065 400.577 28.219C400.48 28.219 400.383 28.219 400.282 28.219C400.25 28.1362 400.217 28.0534 400.183 27.9681C398.844 25.6527 395.037 24.2022 392.594 23.5449C389.865 22.8585 387.118 22.757 384.319 22.7643C384.086 22.7643 383.853 22.7643 383.62 22.7642C383.004 22.7642 382.388 22.7651 381.772 22.7661C381.19 22.7669 380.609 22.767 380.028 22.7671C378.336 22.7678 376.644 22.7699 374.952 22.7718C371.166 22.7748 367.379 22.7779 363.478 22.781Z" fill="white"/>
<path d="M238.491 0C263.948 0 289.405 0 315.633 0C315.633 7.22671 315.633 14.4534 315.633 21.8991C299.504 21.8991 283.375 21.8991 266.757 21.8991C266.757 31.9389 266.757 41.9787 266.757 52.3228C269.869 52.3211 272.981 52.3194 276.187 52.3176C278.152 52.3169 280.118 52.3161 282.083 52.3156C283.114 52.3153 284.146 52.315 285.178 52.3147C285.307 52.3147 285.436 52.3146 285.57 52.3146C287.66 52.3139 289.751 52.3128 291.841 52.3114C293.985 52.3101 296.129 52.3092 298.273 52.3089C299.597 52.3087 300.921 52.3081 302.245 52.3069C303.151 52.3061 304.058 52.3059 304.965 52.3061C305.489 52.3062 306.012 52.306 306.536 52.3052C307.103 52.3044 307.669 52.3047 308.236 52.3051C308.404 52.3047 308.571 52.3042 308.743 52.3038C308.894 52.3041 309.044 52.3044 309.2 52.3047C309.396 52.3046 309.396 52.3046 309.596 52.3045C309.891 52.3228 309.891 52.3228 310.039 52.4697C310.053 52.7372 310.057 53.0053 310.057 53.2732C310.058 53.5347 310.058 53.5347 310.059 53.8015C310.058 54.0911 310.058 54.0911 310.058 54.3864C310.058 54.5904 310.058 54.7943 310.058 54.9983C310.059 55.5537 310.059 56.1091 310.058 56.6645C310.058 57.2444 310.058 57.8244 310.059 58.4043C310.059 59.3785 310.058 60.3526 310.058 61.3267C310.057 62.4545 310.057 63.5824 310.058 64.7102C310.059 65.6768 310.059 66.6434 310.058 67.61C310.058 68.188 310.058 68.7661 310.059 69.3442C310.059 69.8875 310.059 70.4308 310.058 70.9742C310.058 71.2699 310.058 71.5656 310.059 71.8613C310.058 72.1228 310.058 72.1228 310.057 72.3897C310.057 72.5422 310.057 72.6947 310.057 72.8518C310.039 73.1931 310.039 73.1931 309.891 73.3401C309.661 73.3543 309.43 73.3582 309.2 73.3581C308.974 73.3586 308.974 73.3586 308.743 73.359C308.492 73.3584 308.492 73.3584 308.236 73.3577C308.06 73.3579 307.884 73.358 307.702 73.3581C307.21 73.3583 306.719 73.3579 306.228 73.3571C305.698 73.3565 305.169 73.3567 304.64 73.3568C303.723 73.3569 302.805 73.3564 301.887 73.3556C300.561 73.3544 299.234 73.354 297.908 73.3538C295.755 73.3535 293.603 73.3525 291.451 73.3512C289.36 73.3498 287.269 73.3488 285.178 73.3481C285.048 73.3481 284.918 73.3481 284.784 73.348C283.766 73.3477 282.748 73.3474 281.731 73.3471C276.74 73.3457 271.748 73.3428 266.757 73.3401C266.757 84.1559 266.757 94.9717 266.757 106.115C282.886 106.115 299.015 106.115 315.633 106.115C315.633 113.342 315.633 120.569 315.633 128.014C290.176 128.014 264.719 128.014 238.491 128.014C238.491 85.7697 238.491 43.5249 238.491 0Z" fill="white"/>
<path d="M138.678 0C165.835 0 192.992 0 220.972 0C220.972 7.22671 220.972 14.4534 220.972 21.8991C203.192 21.8991 185.411 21.8991 167.091 21.8991C167.091 32.2784 167.091 42.6578 167.091 53.3516C180.354 53.3516 193.617 53.3516 207.281 53.3516C207.281 60.3843 207.281 67.417 207.281 74.6628C194.018 74.6628 180.756 74.6628 167.091 74.6628C167.091 92.2689 167.091 109.875 167.091 128.014C157.715 128.014 148.339 128.014 138.678 128.014C138.678 85.7697 138.678 43.5249 138.678 0Z" fill="white"/>
<path d="M0 0C9.32766 0 18.6553 0 28.2656 0C28.2656 35.3091 28.2656 70.6181 28.2656 106.997C42.1599 106.997 56.0543 106.997 70.3696 106.997C70.3696 113.933 70.3696 120.869 70.3696 128.014C47.1477 128.014 23.9257 128.014 0 128.014C0 85.7697 0 43.5249 0 0Z" fill="white"/>
<path d="M89.655 0C99.0313 0 108.408 0 118.068 0C118.068 42.2448 118.068 84.4895 118.068 128.014C108.692 128.014 99.3154 128.014 89.655 128.014C89.655 85.7697 89.655 43.5249 89.655 0Z" fill="white"/>
<path d="M565.165 122.87C579.233 122.87 579.233 122.87 583.126 126.691C583.229 126.792 583.332 126.893 583.438 126.997C586.001 129.686 586.834 133.315 586.833 136.915C586.834 137.224 586.836 137.534 586.839 137.843C586.854 141.336 585.959 144.776 583.567 147.415C583.469 147.526 583.372 147.638 583.271 147.752C581.698 149.439 579.584 150.575 577.357 151.117C577.263 151.139 577.17 151.162 577.074 151.186C573.155 152.063 569.164 151.677 565.165 151.677C565.165 142.171 565.165 132.664 565.165 122.87Z" fill="white"/>
<path d="M588.634 81.7705C591.082 81.757 593.386 81.9804 595.575 83.1787C595.717 83.2533 595.718 83.2531 595.863 83.3291C597.421 84.1579 597.422 84.1582 597.995 84.6572V84.9512C598.359 85.0966 598.359 85.0967 598.731 85.2451V85.5391H599.025C600.509 86.9369 601.476 88.6874 602.264 90.5361C602.339 90.7119 602.339 90.7122 602.416 90.8916C602.913 92.1368 603.043 93.3271 603.038 94.6572C603.038 94.8959 603.038 94.896 603.039 95.1396C603.04 95.6737 603.039 96.2082 603.039 96.7422C603.039 97.1286 603.039 97.515 603.04 97.9014C603.041 98.7421 603.041 99.5831 603.041 100.424C603.04 101.674 603.041 102.925 603.042 104.175C603.045 106.538 603.045 108.901 603.044 111.264C603.044 113.088 603.045 114.914 603.045 116.738V118.71C603.047 122.383 603.048 126.057 603.047 129.73C603.047 129.869 603.046 130.007 603.046 130.149V133.523C603.046 137.909 603.047 142.295 603.049 146.681C603.052 151.609 603.054 156.537 603.053 161.465V163.434C603.053 165.386 603.054 167.339 603.055 169.292C603.057 171.513 603.058 173.735 603.056 175.956C603.055 177.199 603.055 178.442 603.057 179.685C603.058 180.515 603.058 181.345 603.056 182.176C603.055 182.649 603.056 183.122 603.057 183.595C603.059 184.105 603.057 184.616 603.055 185.126C603.056 185.271 603.057 185.418 603.058 185.567C603.04 187.869 602.133 190.149 600.939 192.095H600.644C600.605 192.204 600.566 192.313 600.525 192.426C600.357 192.814 600.189 193.103 599.909 193.418H599.614C599.58 193.5 599.547 193.582 599.512 193.666C599.264 194.103 598.956 194.406 598.583 194.741H598.289V195.035C595.573 197.166 592.528 198.149 589.089 198.14C588.956 198.14 588.822 198.14 588.685 198.141C588.241 198.141 587.796 198.14 587.352 198.14C587.03 198.14 586.708 198.14 586.385 198.141H531.797C530.171 198.14 528.544 198.141 526.917 198.142C525.068 198.142 523.218 198.141 521.368 198.141C520.424 198.14 519.479 198.14 518.536 198.141C517.672 198.141 516.808 198.14 515.944 198.14C515.631 198.139 515.319 198.14 515.006 198.141C510.966 198.145 507.753 197.555 504.512 195.035C504.366 194.938 504.22 194.841 504.07 194.741V194.447C503.924 194.399 503.779 194.35 503.628 194.3V194.006H503.334V193.712H503.04C502.794 193.401 502.565 193.091 502.34 192.766C502.275 192.672 502.21 192.579 502.142 192.482C501.95 192.207 501.759 191.931 501.568 191.654C501.471 191.515 501.374 191.376 501.274 191.233C500.684 190.373 500.684 190.372 500.684 190.037H500.39C500.151 189.683 499.927 189.329 499.708 188.963C499.184 188.105 498.639 187.279 498.039 186.472C497.688 185.999 497.343 185.521 497.003 185.04C496.891 184.883 496.779 184.725 496.664 184.562C496.415 184.158 496.415 184.159 496.415 183.718H496.121C495.932 183.453 495.756 183.178 495.586 182.9C494.858 181.732 494.068 180.606 493.275 179.48C491.704 177.245 491.704 177.244 491.704 176.81H491.41C491.17 176.456 490.948 176.102 490.729 175.735C490.289 175.014 489.845 174.309 489.339 173.632C488.877 173.012 488.445 172.379 488.024 171.73C487.965 171.641 487.907 171.551 487.846 171.459C487.435 170.82 487.435 170.819 487.435 170.49H487.14C486.698 169.846 486.699 169.845 486.699 169.461H486.404C486.22 169.193 486.22 169.193 486.011 168.821C485.454 167.863 484.812 166.975 484.163 166.077C484.074 165.953 483.985 165.829 483.894 165.701C483.814 165.59 483.734 165.479 483.652 165.365C483.464 165.059 483.377 164.814 483.313 164.464H483.018C482.429 163.686 482.429 163.686 482.429 163.142H482.135C481.896 162.788 481.672 162.433 481.454 162.066C481.022 161.359 480.588 160.665 480.092 160C479.548 159.271 479.035 158.522 478.528 157.768C478.448 157.65 478.369 157.533 478.287 157.412C478.213 157.302 478.139 157.192 478.063 157.078C477.997 156.979 477.93 156.88 477.862 156.778C477.718 156.528 477.718 156.527 477.718 156.233H477.424C477.238 155.963 477.238 155.963 477.028 155.59C476.566 154.795 476.053 154.051 475.519 153.304C473.449 150.378 473.449 150.376 473.449 149.914H473.155C472.915 149.56 472.693 149.205 472.474 148.839C472.034 148.118 471.59 147.413 471.084 146.735C470.622 146.116 470.19 145.482 469.769 144.834C469.71 144.745 469.652 144.655 469.591 144.562C469.18 143.923 469.18 143.923 469.18 143.594H468.885C468.547 143.217 468.444 143.082 468.444 142.565H468.149C468.052 142.274 467.955 141.982 467.855 141.683H467.56C467.363 141.412 467.363 141.412 467.127 141.021C466.799 140.486 466.463 139.966 466.097 139.456C466.023 139.352 465.948 139.248 465.872 139.141C465.723 138.933 465.573 138.726 465.421 138.521C465.353 138.424 465.285 138.328 465.214 138.229C465.121 138.102 465.121 138.102 465.026 137.972C464.873 137.631 464.931 137.472 465.058 137.127C465.27 136.723 465.27 136.722 465.5 136.392H465.793C465.811 136.305 465.829 136.218 465.847 136.129C465.944 135.795 466.062 135.587 466.263 135.305C466.329 135.211 466.395 135.117 466.462 135.021C466.569 134.872 466.569 134.871 466.677 134.72C467.303 133.832 467.904 132.934 468.47 132.007C468.601 131.798 468.742 131.595 468.885 131.395H469.18C469.215 131.269 469.249 131.143 469.285 131.014C469.495 130.457 469.791 130.027 470.146 129.558C470.686 128.825 471.202 128.083 471.692 127.316C471.748 127.229 471.804 127.141 471.862 127.051C472.06 126.74 472.253 126.433 472.418 126.104H472.713C472.751 125.999 472.789 125.894 472.828 125.786C473.019 125.342 473.25 124.978 473.523 124.579C473.626 124.427 473.73 124.274 473.836 124.117C473.892 124.036 473.948 123.954 474.005 123.87C474.335 123.386 474.66 122.898 474.986 122.411C475.05 122.316 475.114 122.22 475.18 122.121C475.514 121.627 475.514 121.626 475.804 121.106H476.099C476.132 120.981 476.165 120.856 476.2 120.727C476.426 120.139 476.734 119.734 477.129 119.251C477.716 118.535 477.716 118.535 478.16 117.727H478.455C478.496 117.554 478.496 117.553 478.538 117.377C478.781 116.766 479.111 116.303 479.496 115.772C479.962 115.119 480.382 114.437 480.81 113.758C480.991 113.476 481.172 113.195 481.353 112.913C481.73 112.322 482.088 111.725 482.429 111.112H482.724C482.765 110.94 482.764 110.94 482.806 110.764C483.05 110.15 483.384 109.686 483.769 109.153C484.028 108.79 484.27 108.421 484.508 108.044C484.983 107.292 485.467 106.547 485.954 105.803C486.698 104.661 487.436 103.515 488.17 102.367C488.977 101.106 489.789 99.8492 490.607 98.5957C491.381 97.4099 492.147 96.2198 492.911 95.0273C493.548 94.0327 494.197 93.0466 494.855 92.0654C495.474 91.1406 496.075 90.2042 496.661 89.2578C497.304 88.2274 497.977 87.197 498.77 86.2734H499.065V85.9795H499.359C499.41 85.8536 499.41 85.8532 499.462 85.7246C500.441 84.0179 503.168 82.8478 504.954 82.3057C505.078 82.2665 505.202 82.2268 505.33 82.1865C506.967 81.7394 508.614 81.8023 510.298 81.8066C510.648 81.8059 510.998 81.8048 511.347 81.8037C512.204 81.8016 513.062 81.802 513.919 81.8027C514.947 81.8035 515.975 81.8016 517.002 81.7998C519.133 81.7962 521.263 81.7956 523.393 81.7959C525.039 81.7961 526.684 81.795 528.33 81.7939H529.396C529.572 81.7938 529.573 81.7931 529.752 81.793C529.87 81.7929 529.988 81.793 530.11 81.793C533.425 81.7908 536.74 81.7894 540.055 81.79C540.18 81.7901 540.305 81.79 540.434 81.79C541.067 81.7902 541.701 81.7909 542.333 81.791H543.477C547.431 81.7919 551.386 81.7899 555.34 81.7852C559.787 81.7798 564.233 81.7766 568.679 81.7773H570.457C572.217 81.7775 573.978 81.7762 575.739 81.7734C577.742 81.7703 579.745 81.7696 581.749 81.7725C582.77 81.7738 583.792 81.7746 584.813 81.7715C585.749 81.7687 586.685 81.7691 587.622 81.7725C587.959 81.7731 588.297 81.7725 588.634 81.7705ZM496.836 149.562C495.492 148.895 493.163 148.807 491.837 149.564C491.696 149.666 491.696 149.667 491.557 149.767C491.191 150.023 490.862 150.285 490.539 150.594C489.473 151.805 489.251 152.953 489.289 154.505C489.449 155.991 490.033 156.875 491.115 157.851C492.441 158.91 493.938 158.989 495.568 158.833C496.909 158.498 497.834 157.752 498.678 156.665C498.76 156.518 498.839 156.376 498.917 156.233C499.561 155.155 499.478 153.819 499.301 152.604C498.941 151.241 497.992 150.311 496.836 149.562ZM556.921 158.438C565.238 158.438 575.812 160.131 584.017 156.227C588.739 153.913 592.319 150.073 594.053 145.102C594.092 144.989 594.129 144.879 594.167 144.77C594.941 142.506 595.24 140.293 595.245 137.908C595.244 137.564 595.243 137.219 595.247 136.875C595.253 136.305 595.253 135.736 595.238 135.167C595.034 130.593 593.131 125.533 589.719 122.369C589.63 122.29 589.542 122.212 589.456 122.135C582.881 115.962 582.88 115.962 556.921 115.962V158.438ZM504.806 158.438H513.05C513.1 149.343 513.149 140.516 513.198 131.688C513.498 132.388 513.789 133.067 514.081 133.746C514.624 134.952 515.123 136.175 515.618 137.402C515.994 138.338 516.362 139.277 516.774 140.197C517.267 141.262 517.715 142.343 518.153 143.432C518.568 144.465 518.97 145.505 519.426 146.521C519.768 147.258 520.09 147.997 520.39 148.751C520.798 149.781 521.221 150.804 521.649 151.825C521.889 152.397 522.128 152.97 522.368 153.542C522.417 153.66 522.464 153.774 522.512 153.889C522.966 154.975 523.417 156.062 523.862 157.151C524.04 157.589 524.213 158.013 524.386 158.438H531.011C531.65 156.826 532.279 155.21 532.979 153.624C533.717 151.958 534.415 150.277 535.104 148.591C535.164 148.444 535.222 148.301 535.28 148.159C535.512 147.591 535.744 147.023 535.976 146.455C536.794 144.452 537.618 142.451 538.475 140.465C538.905 139.469 538.906 139.469 539.844 137.273C540.645 135.325 541.422 133.433 542.2 131.542C542.25 140.686 542.298 149.562 542.346 158.438H550.59V115.962H541.168C541.013 116.35 540.856 116.738 540.681 117.117C540.22 118.096 539.786 119.082 539.375 120.082C539.19 120.537 539.003 120.991 538.816 121.445C538.776 121.543 538.736 121.638 538.697 121.732C538.258 122.795 537.806 123.853 537.35 124.909C536.923 125.899 536.497 126.889 536.081 127.883C536.037 127.987 535.995 128.088 535.953 128.189C535.744 128.688 535.535 129.186 535.328 129.686C535.004 130.465 534.681 131.245 534.328 132.012C533.719 133.309 533.17 134.624 532.63 135.951C532.15 137.132 531.672 138.311 531.132 139.467C530.82 140.133 530.525 140.803 530.25 141.484C529.452 143.473 528.612 145.444 527.772 147.415C527.552 147.137 527.353 146.872 527.195 146.554C527.157 146.459 527.12 146.367 527.083 146.274C527.018 146.117 527.018 146.116 526.956 145.962C526.911 145.85 526.868 145.741 526.825 145.633C526.689 145.297 526.553 144.961 526.418 144.625C526.359 144.475 526.359 144.475 526.3 144.328C526.244 144.186 526.188 144.048 526.133 143.91C525.651 142.699 525.15 141.494 524.601 140.312C524.232 139.527 523.882 138.746 523.577 137.935C523.337 137.296 523.076 136.677 522.786 136.061C522.337 135.107 521.934 134.138 521.536 133.163C521.171 132.268 520.806 131.373 520.419 130.487C519.525 128.45 518.654 126.404 517.804 124.348C517.354 123.257 516.901 122.169 516.403 121.099C516.117 120.489 515.841 119.878 515.586 119.255C515.142 118.154 514.685 117.058 514.228 115.962H504.806V158.438Z" fill="white"/>
</g>
<defs>
<clipPath id="clip0_9372_32455">
<rect width="603" height="204" fill="white"/>
</clipPath>
</defs>
</svg>
