<svg width="232" height="211" viewBox="0 0 232 211" fill="none" xmlns="http://www.w3.org/2000/svg">
<g clip-path="url(#clip0_9369_5989)">
<path d="M76.096 17.6416C76.096 17.8714 76.096 18.1012 76.096 18.338C75.9623 18.3995 75.8286 18.4611 75.6909 18.5245C67.7321 22.2089 60.4189 26.7659 53.592 32.2654C53.3657 32.4467 53.1393 32.628 52.906 32.8148C51.6771 33.8088 50.4854 34.8345 49.3191 35.9014C48.9913 36.198 48.6622 36.4932 48.3266 36.7809C47.0492 37.8775 45.848 39.0418 44.6581 40.2326C44.3291 40.5613 43.9982 40.888 43.6672 41.2148C42.2329 42.6469 40.9305 44.1407 39.672 45.7285C39.4371 46.0144 39.2016 46.2998 38.9652 46.5845C36.3838 49.734 34.0496 53.1088 32.016 56.6383C31.866 56.8976 31.866 56.8976 31.713 57.162C21.1454 75.5864 18.648 97.1734 25.2317 129.207C25.7537 131.105 26.3191 132.987 26.912 134.864C26.9807 135.081 27.0493 135.298 27.12 135.522C29.6986 143.543 33.4393 151.334 38.512 158.076C38.6046 158.201 38.6972 158.325 38.7925 158.453C39.457 159.346 40.1376 160.224 40.832 161.094C40.928 161.214 41.0239 161.335 41.1227 161.459C44.2673 165.368 47.9192 169.041 51.968 172.004C52.2118 172.195 52.4547 172.387 52.6967 172.58C60.7046 178.962 70.2576 183.132 79.924 186.279C80.076 186.329 80.228 186.378 80.3846 186.43C82.1106 186.991 83.8162 187.489 85.608 187.788C85.4648 187.678 85.3215 187.568 85.174 187.455C84.5365 186.957 83.9106 186.448 83.288 185.931C83.1053 185.78 82.9226 185.629 82.7343 185.473C80.2581 183.229 78.825 179.807 78.6083 176.504C78.3964 172.023 78.8524 167.999 81.2 164.111C81.664 163.647 81.664 163.647 82.3745 163.589C84.0521 163.907 85.0573 165.735 85.9787 167.045C89.1005 171.631 93.2971 178.13 92.2291 183.962C91.7902 185.604 91.0796 187.469 89.6227 188.434C89.4463 188.527 89.2698 188.621 89.088 188.716C95.445 190.4 101.906 191.127 108.431 191.807C108.88 191.854 108.88 191.854 109.338 191.902C110.202 191.991 111.066 192.079 111.931 192.167C112.19 192.193 112.449 192.22 112.715 192.248C114.885 192.461 116.98 192.486 119.147 192.26C119.329 192.242 119.511 192.224 119.699 192.205C120.288 192.146 120.877 192.085 121.467 192.024C121.671 192.003 121.874 191.982 122.085 191.961C123.34 191.832 124.595 191.699 125.85 191.565C126.229 191.525 126.607 191.484 126.986 191.444C135.046 190.597 135.046 190.597 142.912 188.716C142.736 188.623 142.559 188.53 142.377 188.434C140.922 187.47 140.199 185.599 139.774 183.952C138.752 178.599 142.465 172.391 145.3 168.123C145.802 167.392 146.321 166.676 146.856 165.968C147.026 165.742 147.196 165.516 147.372 165.284C148.079 164.416 148.518 163.95 149.582 163.56C150.336 163.647 150.336 163.647 150.829 164.053C153.41 168.529 154.218 174.073 152.99 179.127C151.963 182.563 150.074 185.189 147.16 187.246C147.015 187.348 146.871 187.45 146.722 187.556C146.613 187.632 146.504 187.709 146.392 187.788C149.204 187.181 151.911 186.395 154.628 185.452C154.819 185.386 155.01 185.321 155.207 185.253C158.539 184.102 161.77 182.811 164.952 181.288C165.156 181.193 165.359 181.097 165.569 180.998C171.025 178.414 176.131 175.194 180.813 171.383C181.168 171.095 181.527 170.81 181.885 170.526C183.628 169.109 185.226 167.552 186.818 165.968C187.032 165.756 187.246 165.544 187.467 165.326C188.876 163.909 190.166 162.433 191.4 160.862C191.545 160.678 191.691 160.494 191.84 160.304C196.491 154.353 200.31 147.735 203 140.667C203.083 140.449 203.167 140.231 203.252 140.006C206.838 130.523 209.281 120.44 210.497 110.375C210.515 110.219 210.534 110.062 210.554 109.901C210.985 106.276 211.168 102.677 211.164 99.0298C211.163 98.837 211.163 98.6442 211.163 98.4455C211.138 85.6682 208.325 73.2454 202.768 61.745C202.672 61.5449 202.575 61.3449 202.476 61.1387C200.151 56.3851 197.261 51.9395 193.952 47.8176C193.786 47.6055 193.621 47.3933 193.45 47.1747C193.006 46.6089 192.553 46.052 192.096 45.4964C191.831 45.1665 191.831 45.1665 191.56 44.8299C189.988 42.9108 188.262 41.1459 186.514 39.3886C186.337 39.2105 186.337 39.2105 186.157 39.0287C184.749 37.6081 183.315 36.2779 181.746 35.0332C181.223 34.6118 180.728 34.1727 180.235 33.7161C178.63 32.2753 176.887 31.0021 175.16 29.712C174.908 29.5228 174.908 29.5228 174.651 29.3297C170.626 26.318 166.358 23.7368 161.936 21.3556C161.761 21.2609 161.586 21.1663 161.406 21.0688C159.599 20.0925 157.8 19.1314 155.904 18.338C155.904 18.1082 155.904 17.8784 155.904 17.6416C157.635 18.1664 159.207 18.8871 160.82 19.7017C161.084 19.8349 161.348 19.968 161.62 20.1052C167.314 23.0091 172.663 26.4948 177.712 30.4084C177.851 30.5151 177.99 30.6218 178.133 30.7317C182.03 33.7276 185.684 36.98 189.167 40.4477C189.395 40.6738 189.395 40.6738 189.627 40.9045C190.651 41.9329 191.618 42.9997 192.56 44.1036C192.685 44.2493 192.81 44.3949 192.939 44.545C205.99 59.8318 212.819 79.361 212.788 99.407C212.787 99.661 212.787 99.661 212.787 99.9202C212.75 116.847 208.75 134.923 200.904 149.987C200.676 150.425 200.451 150.864 200.226 151.303C197.51 156.556 193.961 161.474 189.917 165.783C189.364 166.377 188.83 166.982 188.297 167.593C187.025 169.008 185.629 170.277 184.208 171.539C184.088 171.646 183.969 171.753 183.846 171.863C179.337 175.865 174.215 179.172 168.896 181.985C168.704 182.087 168.513 182.188 168.316 182.293C154.387 189.628 138.953 192.918 123.424 194.519C123.558 194.567 123.692 194.615 123.831 194.664C131.19 197.296 138.342 201.188 144.052 206.601C144.547 207.065 145.067 207.484 145.595 207.91C146.191 208.433 146.384 208.659 146.682 209.419C146.624 210.072 146.624 210.072 146.276 210.638C145.648 211.03 145.261 211.137 144.53 210.983C143.708 210.597 143.161 209.92 142.548 209.265C141.591 208.271 140.519 207.435 139.432 206.59C139.247 206.445 139.247 206.445 139.057 206.298C133.517 202.02 127.339 198.665 120.64 196.609C120.393 196.531 120.393 196.531 120.142 196.453C117.415 195.613 115.217 195.458 112.462 196.246C112.132 196.339 112.132 196.339 111.795 196.434C103.165 198.96 95.2739 203.802 88.7736 209.971C88.16 210.536 88.16 210.536 87.464 211C86.6375 210.957 86.6375 210.957 85.84 210.768C85.376 210.072 85.376 210.072 85.3833 209.413C85.6683 208.482 86.1693 208.005 86.884 207.388C87.0175 207.269 87.151 207.15 87.2885 207.028C92.0083 202.894 97.2831 199.509 102.921 196.783C103.112 196.69 103.303 196.597 103.499 196.501C105.151 195.718 106.849 195.113 108.576 194.519C108.188 194.48 108.188 194.48 107.793 194.439C93.4552 192.943 79.4386 189.85 66.352 183.61C66.0417 183.462 66.0417 183.462 65.7251 183.311C56.6257 178.951 47.8693 172.767 41.296 165.04C41.1026 164.82 40.9091 164.601 40.7097 164.374C26.7409 148.393 20.2874 125.302 19.3639 93.2298C19.7576 87.4559 20.754 81.7181 22.272 76.1366C22.3312 75.9171 22.3903 75.6976 22.4511 75.4714C24.9071 66.5065 29.1011 57.8815 34.568 50.371C34.6597 50.2444 34.7514 50.1178 34.8459 49.9873C36.5396 47.6595 38.3486 45.4352 40.2901 43.3103C40.727 42.827 41.1531 42.3378 41.5779 41.8441C42.5174 40.7677 43.5173 39.7579 44.5295 38.7503C44.7058 38.573 44.8821 38.3957 45.0638 38.2131C46.1672 37.1109 47.3018 36.0629 48.488 35.0508C48.6131 34.9426 48.7383 34.8344 48.8671 34.7229C50.5624 33.2572 52.2944 31.8486 54.0863 30.5026C54.3915 30.2729 54.6961 30.0423 55 29.811C71.0053 17.6416 71.0053 17.6416 76.096 17.6416Z" fill="white"/>
<path d="M91.6399 43.1749C95.0949 43.1585 98.5499 43.1463 102.005 43.1388C103.61 43.1352 105.214 43.1304 106.819 43.1223C108.372 43.1146 109.924 43.1106 111.476 43.1088C112.065 43.1075 112.653 43.105 113.242 43.1012C119.723 43.0611 125.353 43.7435 131.08 46.8888C131.304 47.007 131.527 47.1252 131.758 47.247C134.541 48.8493 137.124 51.5473 138.736 54.3168C138.816 54.4536 138.897 54.5904 138.98 54.7314C141.287 58.6988 142.454 62.7947 143.144 67.3157C143.168 67.4713 143.192 67.6269 143.217 67.7873C143.461 69.6102 143.432 71.457 143.434 73.2929C143.434 73.4736 143.434 73.6544 143.434 73.8406C143.43 76.7447 143.289 79.5552 142.68 82.4037C142.641 82.5887 142.603 82.7738 142.563 82.9644C141.117 89.6586 137.607 95.749 131.776 99.5373C125.832 103.267 119.559 103.637 112.723 103.57C112.094 103.567 111.464 103.564 110.835 103.561C109.309 103.553 107.782 103.542 106.256 103.527C106.275 109.699 106.297 115.871 106.323 122.044C106.334 124.91 106.345 127.776 106.354 130.641C106.361 133.139 106.371 135.637 106.382 138.135C106.388 139.458 106.393 140.781 106.396 142.103C106.399 143.348 106.404 144.594 106.411 145.839C106.413 146.296 106.414 146.752 106.415 147.209C106.415 147.833 106.419 148.458 106.423 149.082C106.423 149.262 106.422 149.442 106.422 149.627C106.436 151.051 106.597 152.378 107.343 153.622C108.834 155.033 110.798 155.06 112.752 155.29C112.752 155.827 112.752 156.363 112.752 156.915C105.785 156.915 98.818 156.915 91.6399 156.915C91.6399 156.379 91.6399 155.843 91.6399 155.29C92.0719 155.227 92.0719 155.227 92.5126 155.163C92.8936 155.104 93.2745 155.045 93.6554 154.986C93.8448 154.958 94.0343 154.931 94.2295 154.903C95.2807 154.737 96.1148 154.568 96.9759 153.898C97.7858 152.537 97.9383 151.415 97.9344 149.858C97.9349 149.683 97.9353 149.509 97.9358 149.329C97.9371 148.741 97.9368 148.153 97.9365 147.565C97.9371 147.14 97.9378 146.715 97.9386 146.291C97.9404 145.121 97.9409 143.952 97.941 142.783C97.9415 141.522 97.9432 140.262 97.9448 139.002C97.9479 136.245 97.9493 133.489 97.9503 130.732C97.951 129.011 97.952 127.291 97.953 125.57C97.9558 120.808 97.9582 116.046 97.959 111.283C97.9591 110.978 97.9591 110.673 97.9592 110.359C97.9592 110.054 97.9593 109.748 97.9593 109.433C97.9594 108.814 97.9595 108.195 97.9596 107.575C97.9597 107.422 97.9597 107.268 97.9597 107.11C97.9605 102.13 97.9642 97.1508 97.9696 92.1713C97.9754 86.9068 97.9785 81.6424 97.9788 76.3779C97.979 73.5081 97.9804 70.6383 97.9846 67.7685C97.9881 65.325 97.9893 62.8815 97.9874 60.438C97.9865 59.191 97.9867 57.9441 97.99 56.6971C97.9929 55.5556 97.9927 54.4142 97.9898 53.2727C97.9894 52.8597 97.9901 52.4467 97.9921 52.0337C97.9947 51.4721 97.993 50.9107 97.9902 50.3492C97.9919 50.189 97.9937 50.0288 97.9955 49.8637C97.9804 48.4466 97.6797 47.1415 96.6714 46.1054C95.536 45.4185 94.3631 45.189 93.0609 45.0028C92.6598 44.9445 92.6598 44.9445 92.2507 44.885C92.0491 44.8568 91.8476 44.8287 91.6399 44.7997C91.6399 44.2635 91.6399 43.7273 91.6399 43.1749ZM107.01 46.5987C106.21 48.0391 106.189 49.6066 106.2 51.2105C106.2 51.4282 106.199 51.6459 106.199 51.8702C106.198 52.5958 106.201 53.3214 106.203 54.047C106.203 54.5687 106.203 55.0904 106.203 55.6121C106.203 57.0258 106.206 58.4395 106.209 59.8531C106.212 61.3315 106.212 62.8098 106.213 64.2882C106.214 66.7687 106.217 69.2492 106.221 71.7297C106.225 74.2839 106.228 76.8382 106.23 79.3924C106.231 79.55 106.231 79.7076 106.231 79.87C106.231 80.6607 106.232 81.4513 106.233 82.242C106.237 88.7953 106.246 95.3487 106.256 101.902C107.902 101.92 109.548 101.932 111.194 101.94C111.752 101.944 112.31 101.948 112.868 101.955C118.83 102.018 124.495 101.655 129.05 97.3176C135.088 90.9799 135.702 80.7042 135.531 72.4342C135.279 64.7417 134.814 55.6221 129.224 49.6743C129.075 49.5133 128.927 49.3524 128.773 49.1865C124.763 45.2428 119.036 44.75 113.717 44.7571C110.045 44.7618 110.045 44.7618 107.01 46.5987Z" fill="white"/>
<path d="M155.179 192.503C155.579 192.705 155.975 192.913 156.368 193.127C156.588 193.241 156.808 193.355 157.035 193.472C161.365 195.835 165.19 199.716 166.894 204.404C167.147 205.376 167.25 206.297 167.04 207.286C166.343 208.103 165.75 208.285 164.72 208.447C158.6 208.873 151.983 206.749 147.088 203.108C146.857 202.941 146.857 202.941 146.621 202.771C144.672 201.245 143.174 199.047 142.805 196.593C142.623 194.849 142.471 193.067 143.594 191.618C146.355 189.609 152.307 191.263 155.179 192.503Z" fill="white"/>
<path d="M84.9409 190.95C85.1499 190.947 85.359 190.944 85.5743 190.94C86.6915 190.949 87.5104 190.972 88.3919 191.734C89.4706 193.151 89.4415 194.944 89.2265 196.654C88.8772 198.27 88.2468 199.493 87.2319 200.786C87.0844 200.979 86.937 201.172 86.7851 201.371C83.0453 205.846 76.1168 207.871 70.5279 208.447C66.4837 208.635 66.4837 208.635 65.2744 207.681C64.7558 207.029 64.8375 206.438 64.8656 205.631C65.4493 201.504 68.9754 197.687 72.1809 195.23C72.6314 194.91 73.0855 194.595 73.5439 194.287C73.8332 194.091 73.8332 194.091 74.1284 193.891C77.4236 191.787 81.0801 190.989 84.9409 190.95Z" fill="white"/>
<path d="M187.877 188.498C190.928 191.207 190.928 191.207 191.066 193.17C190.936 194.055 190.936 194.055 190.515 194.577C185.165 197.516 177.877 197.237 172.14 195.664C169.35 194.839 166.361 193.515 164.837 190.907C163.857 188.993 163.576 187.397 163.792 185.234C164.425 184.191 165.282 183.85 166.418 183.522C173.932 181.769 181.939 183.504 187.877 188.498Z" fill="white"/>
<path d="M67.512 184.306C68.0786 184.855 68.1984 185.166 68.3085 185.954C68.3117 188.763 67.7617 190.544 65.7955 192.588C61.345 196.559 54.601 196.93 48.952 196.608C46.4804 196.397 43.3406 195.999 41.3395 194.419C40.9372 193.887 40.9269 193.369 40.9543 192.718C41.5039 190.11 44.2979 188.156 46.3887 186.778C52.0988 183.164 61.2042 180.888 67.512 184.306Z" fill="white"/>
<path d="M209.786 171.234C210.549 171.863 210.827 172.198 211.047 173.178C210.787 174.67 209.75 175.316 208.568 176.181C205.399 178.278 201.813 179.703 198.128 180.592C197.815 180.67 197.815 180.67 197.495 180.75C193.731 181.537 188.997 181.598 185.623 179.566C184.168 178.47 182.78 176.949 182.488 175.113C182.365 173.422 182.365 173.422 182.883 172.811C183.897 171.889 185.029 171.281 186.267 170.712C186.458 170.623 186.648 170.534 186.845 170.442C193.453 167.447 203.657 166.609 209.786 171.234Z" fill="white"/>
<path d="M46.922 171.336C47.0658 171.411 47.2097 171.487 47.3579 171.564C48.1646 172.005 48.8485 172.434 49.416 173.164C49.7483 174.516 49.5073 175.736 48.836 176.936C47.2752 179.24 45.255 180.39 42.5752 180.96C36.1371 182.017 28.6875 179.914 23.422 176.14C22.8684 175.703 22.3312 175.261 21.808 174.789C21.6749 174.672 21.5418 174.556 21.4047 174.436C21.112 174.093 21.112 174.093 21.0105 173.309C21.1328 172.295 21.2944 171.998 22.04 171.307C22.7098 170.861 23.4043 170.497 24.128 170.146C24.2892 170.065 24.4504 169.984 24.6165 169.9C31.6543 166.709 40.2673 167.841 46.922 171.336Z" fill="white"/>
<path d="M223.477 147.843C223.88 148.327 223.88 148.327 223.924 149.052C223.257 152.147 219.754 154.873 217.384 156.683C217.143 156.872 216.903 157.061 216.655 157.256C212.76 160.236 207.511 162.753 202.5 162.199C200.62 161.871 198.971 160.962 197.751 159.483C197.162 158.605 197.003 157.98 197.2 156.915C200.262 151.703 206.128 148.778 211.757 147.299C214.896 146.504 220.781 145.56 223.477 147.843Z" fill="white"/>
<path d="M14.036 146.629C14.2592 146.631 14.4823 146.632 14.7123 146.633C22.4681 146.763 28.6959 150.187 34.033 155.62C34.5761 156.278 34.7863 156.826 34.916 157.67C34.7261 159.095 33.9986 159.944 32.8724 160.808C30.33 162.439 27.9149 162.479 25.0192 161.885C18.6521 160.469 12.3997 155.995 8.72807 150.646C8.37171 150.072 8.13145 149.536 7.97498 148.878C8.15826 148.181 8.50398 147.839 9.07511 147.412C10.5522 146.581 12.3882 146.619 14.036 146.629Z" fill="white"/>
<path d="M229.912 123.489C230.027 123.604 230.027 123.604 230.144 123.721C229.974 128.383 225.12 133.162 221.916 136.165C220.402 137.538 218.754 138.637 216.963 139.607C216.822 139.684 216.68 139.761 216.534 139.84C214.282 141.01 211.725 141.357 209.264 140.623C208.224 140.215 207.225 139.603 206.712 138.577C206.773 134.758 209.709 131.413 212.28 128.828C215.782 125.551 225.341 120.231 229.912 123.489Z" fill="white"/>
<path d="M14.5882 125.325C18.7575 127.45 21.8444 130.574 24.128 134.631C24.2312 134.806 24.3344 134.981 24.4407 135.162C25.0399 136.243 25.3813 137.329 25.288 138.577C24.7011 139.726 23.6627 140.205 22.504 140.667C19.9326 141.491 17.45 140.779 15.1244 139.656C12.7274 138.415 10.7804 136.695 8.81604 134.864C8.65844 134.718 8.50083 134.573 8.33845 134.424C5.749 131.948 2.25624 127.885 1.76904 124.229C1.87667 123.601 2.04448 123.401 2.55204 123.025C6.26246 121.788 11.2345 123.706 14.5882 125.325Z" fill="white"/>
<path d="M231.536 97.2596C232.142 97.8665 232.09 98.1514 232.116 99.0005C232.009 105.086 227.475 111.623 223.366 115.75C220.995 118.03 218.479 119.186 215.156 119.14C213.945 119.047 212.93 118.801 212.048 117.919C211.436 114.515 213.527 110.745 215.296 107.937C215.935 107.027 216.631 106.202 217.384 105.384C217.493 105.265 217.602 105.146 217.715 105.023C220.839 101.654 226.516 96.442 231.536 97.2596Z" fill="white"/>
<path d="M1.34852 97.1582C6.32006 97.2933 11.3123 101.85 14.5716 105.262C16.692 107.56 18.0386 110.191 19.256 113.044C19.3451 113.248 19.4343 113.452 19.5261 113.662C20.0526 115.018 20.2196 116.484 19.952 117.919C18.6168 119.224 17.0114 119.162 15.2341 119.142C11.4982 118.867 8.61878 115.961 6.26402 113.276C5.48713 112.325 4.81553 111.306 4.17602 110.259C4.08754 110.114 3.99905 109.97 3.90789 109.821C2.59705 107.649 1.55382 105.451 0.696022 103.063C0.617069 102.856 0.538117 102.649 0.456772 102.435C-0.0769223 100.903 -0.180425 99.3372 2.20537e-05 97.724C0.464022 97.2598 0.464022 97.2598 1.34852 97.1582Z" fill="white"/>
<path d="M227.824 71.2617C229.422 73.42 228.537 77.8061 228.166 80.299C227.258 85.814 225.126 91.8252 220.701 95.4895C218.845 96.8033 216.848 97.1096 214.6 96.7952C213.869 96.3782 213.711 96.2144 213.44 95.4025C212.954 88.271 215.969 81.5913 220.464 76.1988C220.972 75.6232 221.494 75.0659 222.024 74.5114C222.304 74.2057 222.304 74.2057 222.589 73.8939C225.702 70.594 225.702 70.594 227.824 71.2617Z" fill="white"/>
<path d="M5.24902 71.0298C9.82584 72.3866 13.2433 77.9692 15.4265 81.8959C17.6283 85.9966 19.0761 90.6941 18.56 95.4027C18.0401 96.4753 18.0401 96.4753 17.4 96.7955C14.6021 97.025 12.6975 96.668 10.5415 94.8514C5.61494 90.103 3.57777 82.3801 3.41041 75.7415C3.40146 74.2681 3.48464 72.8971 3.94402 71.494C4.64002 71.0298 4.64002 71.0298 5.24902 71.0298Z" fill="white"/>
<path d="M216.818 46.7295C218.676 48.0163 219.138 51.3398 219.552 53.4277C220.628 59.4891 220.515 66.5622 217.181 71.9294C215.952 73.6552 214.548 74.6089 212.512 75.2081C211.667 75.3334 211.33 75.3405 210.612 74.889C209.981 73.9735 209.745 73.0351 209.496 71.9584C209.448 71.7544 209.4 71.5503 209.35 71.34C207.85 63.5503 209.938 54.8885 214.295 48.3254C214.923 47.4204 215.643 46.5861 216.818 46.7295Z" fill="white"/>
<path d="M15.312 46.6567C16.6109 46.8786 17.1597 47.5107 17.8975 48.5291C22.1011 55.1787 23.9432 63.5028 22.678 71.2763C22.6526 71.4374 22.6273 71.5985 22.6012 71.7644C22.3852 72.9231 21.9811 73.9846 21.344 74.9758C20.4635 75.4162 19.4925 75.1846 18.56 74.9758C16.0177 73.8905 14.6176 72.0345 13.5375 69.5553C11.2342 63.3344 11.4429 55.983 13.427 49.7034C13.4808 49.5306 13.5347 49.3579 13.5902 49.1799C13.972 48.0686 14.4222 47.4262 15.312 46.6567Z" fill="white"/>
<path d="M200.071 26.23C202.646 27.2113 204.227 31.0623 205.32 33.4258C207.558 38.597 209.523 45.5867 207.364 51.0708C206.593 52.7736 205.636 54.1587 203.928 55.0133C203.174 55.1293 203.174 55.1293 202.304 55.0133C199.854 52.927 198.64 49.0129 197.896 45.9605C197.858 45.8057 197.82 45.6509 197.781 45.4914C196.541 40.1137 196.21 31.9268 198.824 26.9264C199.401 26.23 199.401 26.23 200.071 26.23Z" fill="white"/>
<path d="M32.132 26.2589C32.8749 26.519 33.0281 26.6994 33.408 27.3905C36.0944 34.491 35.4646 43.7619 32.4857 50.6629C32.2547 51.1741 32.0155 51.6799 31.7695 52.1841C31.6962 52.3354 31.6228 52.4868 31.5473 52.6427C31.058 53.597 30.5128 54.3178 29.696 55.0131C28.8698 55.1847 28.3605 55.1619 27.6044 54.7719C25.8498 53.5726 24.6546 51.7286 24.128 49.6743C22.8176 42.1926 25.55 34.2533 29.696 28.0868C31.1205 26.2083 31.1205 26.2083 32.132 26.2589Z" fill="white"/>
<path d="M179.336 10.9099C180.057 10.7805 180.557 10.8103 181.196 11.182C186.84 15.4479 191.602 22.6738 192.792 29.7119C193.085 32.4283 192.881 34.7586 191.354 37.1027C190.878 37.6731 190.442 37.8446 189.732 38.0393C187.007 37.4134 184.844 34.0016 183.385 31.7378C180.039 26.3066 177.651 18.2204 178.872 11.8384C179.115 11.2944 179.115 11.2944 179.336 10.9099Z" fill="white"/>
<path d="M52.6639 10.9098C54.6392 14.344 52.8369 20.3355 51.9127 23.877C50.486 29.0206 47.7385 34.7768 43.1519 37.8361C42.3834 37.9667 42.3834 37.9667 41.5279 37.8361C40.2734 36.9111 39.5395 35.3772 39.2079 33.89C38.4963 27.732 41.6791 21.4343 45.384 16.683C50.2092 10.8564 50.2092 10.8564 52.6639 10.9098Z" fill="white"/>
<path d="M156.6 -0.000203427C159.605 -0.347084 162.234 1.96029 164.488 3.71377C168.843 7.17197 174.274 12.309 174.992 18.1613C175.137 20.1136 175.228 22.2624 174 23.9085C173.155 24.3315 172.323 24.1521 171.448 23.9085C164.16 20.1 159.347 12.0044 156.914 4.40662C156.459 2.86903 156.261 1.57243 156.6 -0.000203427Z" fill="white"/>
<path d="M74.5445 -0.0290989C74.8269 -0.0195238 75.1092 -0.0099487 75.4 -8.34651e-05C76.2669 5.25603 72.4112 11.5909 69.4596 15.7199C68.9124 16.4586 68.3338 17.1683 67.744 17.8734C67.4991 18.1755 67.4991 18.1755 67.2492 18.4836C65.8313 20.1563 64.1667 21.4568 62.408 22.748C62.2274 22.8835 62.0468 23.0191 61.8607 23.1587C60.8111 23.8875 59.7581 24.2684 58.464 24.1407C57.5543 23.5573 57.351 22.8337 57.072 21.8195C56.5474 17.5507 58.0383 14.1584 60.5466 10.751C60.9995 10.1725 61.4658 9.61046 61.944 9.05272C62.1034 8.86481 62.2628 8.6769 62.4271 8.48329C64.9806 5.55549 70.3192 -0.172406 74.5445 -0.0290989Z" fill="white"/>
<path d="M164.468 156.567C165.607 156.752 166.017 157.395 166.736 158.252C169.641 162.333 171.073 167.422 170.404 172.402C169.693 176.123 167.72 178.986 164.72 181.288C163.823 181.803 163.21 181.909 162.168 181.752C160.356 180.68 159.543 178.97 158.895 177.04C157.39 170.789 160.479 162.465 163.411 157.027C163.792 156.683 163.792 156.683 164.468 156.567Z" fill="white"/>
<path d="M67.4976 156.509C68.3099 156.708 68.353 156.784 68.7681 157.461C69.4567 158.627 69.9328 159.854 70.3976 161.123C70.4871 161.365 70.5767 161.607 70.669 161.856C72.4648 166.813 74.7169 173.171 72.6786 178.374C72.0182 179.704 71.1314 180.992 69.8321 181.753C68.7256 181.966 68.0865 181.743 67.1641 181.158C64.1979 178.994 62.1931 176.019 61.5779 172.368C60.9768 167.278 62.3407 162.209 65.4485 158.131C66.6359 156.729 66.6359 156.729 67.4976 156.509Z" fill="white"/>
<path d="M190.197 115.032C194.128 115.163 197.549 118.382 200.095 121.081C203.185 124.651 204.635 128.76 204.392 133.471C204.241 134.695 204.096 135.875 203.464 136.953C202.657 137.551 201.887 137.51 200.912 137.417C197.476 136.549 195.407 134.244 193.637 131.29C191.219 127.1 189.065 121.925 189.037 117.034C189.033 116.774 189.03 116.514 189.027 116.246C189.101 115.344 189.309 115.17 190.197 115.032Z" fill="white"/>
<path d="M42.456 115.133C43.0739 115.751 42.9893 116.054 42.9925 116.918C42.8681 123.239 39.7775 130.5 35.4951 135.118C34.0263 136.519 32.2232 137.324 30.2035 137.49C29.0274 137.374 29.0274 137.374 28.536 136.953C27.1325 134.264 27.3575 130.759 28.072 127.9C29.7105 122.982 33.2271 118.645 37.8885 116.308C39.4216 115.568 40.7286 115 42.456 115.133Z" fill="white"/>
<path d="M133.414 6.42674C133.572 6.42716 133.729 6.42759 133.892 6.42802C136.484 6.43971 138.99 6.59781 141.52 7.19565C141.686 7.23425 141.853 7.27285 142.024 7.31262C146.636 8.42427 151.306 10.6832 153.975 14.7569C154.364 15.4763 154.42 15.9075 154.28 16.7127C152.399 18.3181 148.699 17.7743 146.392 17.6412C139.779 16.9432 130.361 13.5934 125.187 9.28566C124.816 8.82051 124.816 8.82051 124.816 7.89202C125.143 7.74296 125.472 7.599 125.802 7.45679C125.985 7.376 126.168 7.29521 126.357 7.21197C128.664 6.47635 131.01 6.41648 133.414 6.42674Z" fill="white"/>
<path d="M98.368 6.44137C98.5281 6.44106 98.6883 6.44075 98.8533 6.44043C101.761 6.44166 104.564 6.4846 107.184 7.89214C107.184 8.51465 107.08 8.91833 106.646 9.37465C99.9897 14.636 88.7119 18.3655 80.272 17.6413C78.3527 17.3458 78.3527 17.3458 77.72 16.7128C77.5399 15.2336 78.1651 14.5272 79.0368 13.4023C82.7813 8.98838 88.7564 7.18836 94.3316 6.5414C95.6745 6.44005 97.0219 6.44291 98.368 6.44137Z" fill="white"/>
<path d="M175.624 146.47C177.689 146.52 179.238 148.34 180.591 149.728C182.388 151.786 183.792 154.091 184.672 156.683C184.753 156.916 184.753 156.916 184.835 157.154C185.809 160.448 185.45 163.794 184.034 166.868C183.959 167.03 183.884 167.193 183.807 167.361C183.119 168.766 182.271 169.968 180.96 170.843C180.021 170.949 179.483 170.919 178.64 170.48C175.779 168.154 174.725 165.482 174.281 161.842C174.199 160.979 174.194 160.119 174.193 159.252C174.192 159.058 174.191 158.864 174.191 158.664C174.189 158.254 174.189 157.845 174.189 157.435C174.188 156.823 174.184 156.21 174.18 155.597C174.173 153.674 174.215 151.769 174.423 149.856C174.439 149.698 174.455 149.54 174.472 149.377C174.602 148.329 174.852 147.242 175.624 146.47Z" fill="white"/>
<path d="M56.086 146.441C56.8534 146.825 56.975 147.312 57.304 148.095C57.424 148.696 57.514 149.259 57.575 149.865C57.5934 150.035 57.6118 150.206 57.6308 150.381C57.8184 152.281 57.8462 154.181 57.8413 156.089C57.8405 156.683 57.846 157.277 57.8519 157.871C57.8677 162.05 57.5973 166.274 54.5744 169.417C53.6865 170.269 53.0994 170.782 51.8375 170.959C50.7078 170.795 50.2467 170.379 49.5483 169.494C47.1617 166.128 46.2353 162.627 46.864 158.54C47.8786 154.028 50.7425 149.288 54.723 146.76C55.448 146.47 55.448 146.47 56.086 146.441Z" fill="white"/>
<path d="M183.976 132.774C187.211 132.774 189.746 135.082 191.98 137.199C195.064 140.363 196.832 144.187 196.786 148.658C196.649 150.937 196.201 153.846 194.432 155.469C193.802 155.844 193.317 155.793 192.608 155.668C190.143 154.966 188.321 153.064 187.093 150.88C184.828 146.138 183.47 140.462 183.439 135.212C183.438 135.021 183.437 134.831 183.436 134.635C183.452 133.298 183.452 133.298 183.976 132.774Z" fill="white"/>
<path d="M48.024 132.774C48.6171 133.368 48.5602 133.777 48.5762 134.588C48.5634 140.668 47.2218 148.918 42.8901 153.49C41.5536 154.758 40.2107 155.738 38.3235 155.769C37.3863 155.457 37.1589 155.212 36.656 154.362C34.9847 150.937 34.7644 147.066 35.96 143.452C37.8782 138.801 41.4903 134.879 46.1662 132.926C46.8132 132.715 47.3524 132.676 48.024 132.774Z" fill="white"/>
<path d="M193.169 97.3901C197.872 97.4887 202.142 100.399 205.297 103.667C208.174 106.953 209.073 111.073 208.8 115.365C208.641 116.023 208.463 116.409 208.104 116.99C206.933 117.576 205.361 117.352 204.135 117.036C202.344 116.361 201.074 115.337 199.752 113.972C199.61 113.829 199.467 113.686 199.321 113.539C195.917 109.899 191.934 103.407 191.58 98.3703C191.699 97.419 192.365 97.4108 193.169 97.3901Z" fill="white"/>
<path d="M39.9039 97.4918C40.3679 97.9561 40.3679 97.9561 40.3946 98.4276C40.2443 99.9503 39.8494 101.208 39.2224 102.599C39.0828 102.914 39.0828 102.914 38.9404 103.237C36.5616 108.518 33.4418 114.678 27.8399 116.99C27.1064 117.235 26.5374 117.277 25.7664 117.295C25.5251 117.304 25.2838 117.312 25.0351 117.321C24.1924 117.198 23.9394 116.967 23.4319 116.294C22.4209 113.786 23.3291 109.908 24.3019 107.546C24.4684 107.208 24.643 106.875 24.8239 106.545C24.9331 106.345 25.0423 106.145 25.1547 105.94C27.6446 101.724 31.8301 99.0071 36.4674 97.6369C37.6082 97.4498 38.7516 97.3599 39.9039 97.4918Z" fill="white"/>
<path d="M193.328 80.2274C193.638 80.228 193.638 80.228 193.954 80.2285C195.848 80.2632 197.493 80.6204 199.288 81.2429C199.499 81.3127 199.71 81.3824 199.928 81.4542C203.62 82.7917 206.748 85.4831 208.496 88.9946C209.463 91.146 210.538 93.8017 209.786 96.1859C209.316 96.7974 208.78 96.9969 208.025 97.1053C204.99 97.151 202.244 96.0944 199.986 94.0569C199.719 93.7884 199.456 93.5159 199.197 93.239C198.823 92.8478 198.431 92.5102 198.012 92.1672C197.096 91.3903 196.342 90.5224 195.576 89.5994C195.466 89.4694 195.357 89.3393 195.244 89.2054C190.187 83.1981 190.187 83.1981 190.24 80.7787C191.271 80.1965 192.167 80.2252 193.328 80.2274Z" fill="white"/>
<path d="M38.5266 80.2712C38.7349 80.2683 38.9432 80.2655 39.1578 80.2626C39.3589 80.2621 39.56 80.2617 39.7672 80.2612C39.9494 80.2602 40.1315 80.2593 40.3192 80.2583C40.8888 80.3209 41.2664 80.4948 41.7601 80.7789C41.9619 83.9816 38.4907 87.1082 36.5102 89.3666C36.1675 89.7477 35.823 90.1272 35.4761 90.5045C35.0772 90.9428 34.6981 91.3909 34.3216 91.8483C32.1879 94.3457 29.2749 96.4931 25.9841 97.0276C24.8286 97.1139 23.7862 97.1764 22.7071 96.7229C22.0715 96.1506 22.0442 95.6915 21.9821 94.8514C22.0624 91.1689 23.7657 87.6332 26.3176 85.0333C28.8198 82.7588 31.7813 81.3981 35.0321 80.5468C35.2043 80.5013 35.3766 80.4558 35.5541 80.409C36.5434 80.2628 37.5279 80.2719 38.5266 80.2712Z" fill="white"/>
<path d="M70.8035 38.4308C71.224 38.9966 71.224 38.9966 71.2277 39.557C70.8892 40.4191 70.2966 40.6661 69.4985 41.0422C69.3367 41.1201 69.175 41.1979 69.0083 41.2782C63.2756 43.9087 55.1696 46.3022 48.952 44.1033C47.7374 43.6278 46.7416 43.072 45.936 42.0142C45.762 41.3613 45.762 41.3613 45.936 40.6215C47.9719 37.5012 51.522 35.7235 55.0556 34.9399C60.344 33.9108 66.6247 34.7767 70.8035 38.4308Z" fill="white"/>
<path d="M183.744 38.0682C185.943 40.0412 185.943 40.0412 186.194 41.2454C186.019 42.279 185.585 42.6228 184.785 43.2656C180.914 45.771 175.756 44.9209 171.504 44.0422C168.423 43.3421 165.354 42.4152 162.501 41.0423C162.35 40.9707 162.198 40.8991 162.041 40.8253C161.392 40.4871 161.052 40.2542 160.746 39.5788C160.776 38.9967 160.776 38.9967 161.104 38.5261C167.259 33.2058 177.342 33.2476 183.744 38.0682Z" fill="white"/>
<path d="M201.84 67.0837C204.085 68.9467 206.282 71.9348 206.712 74.8888C206.787 75.7473 206.744 75.8597 206.204 76.6007C204.617 77.7302 202.152 77.4759 200.283 77.2064C195.423 75.912 191.208 72.3549 187.456 69.1728C187.332 69.0678 187.208 68.9629 187.08 68.8547C184.953 67.0417 184.953 67.0417 184.44 65.9231C184.444 65.3029 184.444 65.3029 184.672 64.7624C185.153 64.4542 185.153 64.4542 185.759 64.2402C185.957 64.1672 186.154 64.0941 186.357 64.0189C191.48 62.5273 197.643 63.9165 201.84 67.0837Z" fill="white"/>
<path d="M47.56 64.9946C47.56 66.3301 46.9032 67.0078 46.0348 67.9306C45.0531 68.8828 43.9978 69.7256 42.92 70.5656C42.688 70.7523 42.4559 70.939 42.2168 71.1314C38.4945 74.101 34.1057 77.277 29.2175 77.3697C29.0613 77.3739 28.9051 77.378 28.7441 77.3823C27.5632 77.3802 26.7767 77.1473 25.752 76.6008C25.2285 75.8151 25.2069 75.4121 25.3388 74.4917C26.2791 70.9825 28.6224 67.9967 31.6463 66.0292C36.0669 63.5446 43.0121 62.0886 47.56 64.9946Z" fill="white"/>
<path d="M169.462 26.9552C170.056 27.6226 170.056 27.6226 170.332 28.3189C170.273 29.251 170.015 29.7702 169.36 30.408C167.935 31.4931 166.467 32.3223 164.72 32.7293C164.523 32.7765 164.326 32.8238 164.124 32.8725C158.618 33.9449 150.025 33.8837 145 31.1044C144.922 30.265 144.909 29.8421 145.399 29.1386C151.213 22.6842 162.675 21.6707 169.462 26.9552Z" fill="white"/>
<path d="M85.5436 28.1085C86.138 28.6063 86.5799 29.0578 87 29.7116C87.058 30.4805 87.058 30.4805 87 31.1043C85.2944 31.8815 83.6586 32.2725 81.809 32.5406C81.5661 32.5788 81.3233 32.6169 81.0731 32.6562C75.2501 33.5445 68.2165 34.2717 63.1049 30.7888C62.4611 30.2883 61.9293 29.8123 61.712 29.0152C61.6908 28.0392 61.8862 27.6874 62.5385 26.9551C69.4029 21.6102 78.9776 23.0565 85.5436 28.1085Z" fill="white"/>
<path d="M195.33 51.952C196.719 53.2973 197.962 54.786 198.592 56.638C198.592 57.3489 198.592 57.3489 198.36 58.0308C196.622 59.4867 194.311 59.8456 192.096 59.6556C186.518 58.8545 178.414 56.4327 174.696 51.9956C174.57 51.3872 174.57 51.3872 174.696 50.835C176.752 48.5763 180.593 48.264 183.464 48.0732C187.742 47.8752 192.068 49.1124 195.33 51.952Z" fill="white"/>
<path d="M57.304 50.8351C57.3313 51.5048 57.3244 51.8526 57.072 52.46C53.0507 56.43 44.5076 59.5151 38.947 59.7138C37.1497 59.5978 35.3848 59.3055 33.872 58.2631C33.3822 57.528 33.3322 57.26 33.4859 56.4106C33.8048 55.4403 34.4184 54.6574 35.032 53.8527C35.1519 53.6941 35.2718 53.5355 35.3954 53.3722C37.9997 50.17 41.7895 48.5897 45.8055 48.0932C49.6329 47.857 54.2807 48.2528 57.304 50.8351Z" fill="white"/>
</g>
<defs>
<clipPath id="clip0_9369_5989">
<rect width="232" height="211" fill="white"/>
</clipPath>
</defs>
</svg>
