<svg width="814" height="235" viewBox="0 0 814 235" fill="none" xmlns="http://www.w3.org/2000/svg">
<path d="M149.146 65.3526C170.425 37.3806 221.554 35.1633 240.995 65.4856C247.815 72.9187 250.451 89.1106 249.665 98.8552C249.245 104.075 248.288 108.843 247.899 113.713C222.641 113.723 194.695 114.271 169.617 113.529L171.138 118.776C183.456 142.412 211.16 136.268 231.117 127.959C231.555 131.655 236.727 149.385 238.188 152.902C234.442 154.75 231.391 156.316 227.458 157.78C225.148 158.997 217.981 161.367 215.459 161.519C205.022 164.514 189.418 163.81 178.998 160.856C163.978 156.58 151.284 146.501 143.726 132.85C135.375 117.885 134.136 100.192 138.811 83.847C140.248 79.2327 145.311 68.352 149.146 65.3526ZM219.086 93.3609C218.285 91.5047 218.3 87.2453 216.152 82.9121C213.65 77.9831 209.323 74.2215 204.09 72.4252C188.07 67.0449 175.163 76.7092 170.145 91.6897L170.169 92.8921C171.285 93.5105 212.849 92.7138 219.086 93.3609Z" fill="white"/>
<path d="M215.459 161.519C205.022 164.514 189.418 163.81 178.998 160.856C163.978 156.58 151.284 146.501 143.726 132.851C135.375 117.885 134.136 100.192 138.811 83.8472L139.402 85.2683C140.219 85.3497 140.637 85.4279 141.45 85.2611C141.242 87.2308 139.336 88.8385 138.825 90.3879C138.12 92.5243 137.385 104.771 138.295 106.185C138.518 105.45 138.732 104.674 139.024 103.966C140.499 105.565 141.811 115.8 142.346 118.412C142.931 121.274 144.958 121.73 144.141 124.938L144.495 125.31L144.8 124.355C157.705 164.775 208.209 159.685 208.312 159.819C204.634 160.405 199.922 160.175 196.147 160.388C195.481 160.426 194.289 161.692 193.358 161.739C200.329 162.006 208.877 160.758 215.459 161.519Z" fill="white"/>
<path d="M149.146 65.3526C170.425 37.3806 221.554 35.1633 240.995 65.4856C241.352 67.0218 243.264 70.209 244.028 71.9406C247.784 80.4625 248.851 89.951 248.348 99.1819C248.242 101.123 247.553 111.174 246.633 112.289C246.096 111.708 245.93 111.356 246.019 110.489C246.947 101.511 247.676 92.5626 245.811 83.6271C244.317 76.5671 241.208 69.9474 236.727 64.2868C218.939 41.8697 183.137 39.9016 160.87 56.6953C157.123 59.5221 153.68 62.6549 150.005 65.5678L149.146 65.3526Z" fill="white"/>
<path d="M235.312 152.186C231.964 145.833 231.347 138.458 228.817 131.785C226.77 131.12 215.347 135.692 211.894 136.404C207.755 137.281 203.53 137.685 199.3 137.609C184.085 137.271 167.478 128.548 167.974 111.447C168.855 113.792 169.63 116.974 171.137 118.776C183.456 142.412 211.16 136.268 231.117 127.959C231.555 131.655 236.727 149.385 238.188 152.902C234.442 154.75 231.391 156.316 227.458 157.78C225.3 157.512 221.738 160.024 215.923 159.729C222.644 157.935 229.147 155.405 235.312 152.186Z" fill="white"/>
<path d="M188.976 71.0003C193.944 70.3683 201.242 68.8579 205.94 70.6002C204.71 67.7544 198.561 68.0155 198.107 67.5983C204.332 66.0895 214.95 72.9208 218.16 78.325C217.979 78.924 217.891 79.2281 217.791 79.8588C219.075 81.4383 220.598 82.2001 221.031 83.7474C219.793 88.4574 221.935 87.4027 221.676 89.9813C220.889 90.9638 220.614 91.3405 219.586 92.113C219.464 92.5457 219.379 93.0371 219.086 93.361C218.285 91.5048 218.3 87.2455 216.152 82.9122C213.65 77.9832 209.323 74.2216 204.09 72.4254C188.07 67.045 175.163 76.7094 170.145 91.6898L169.694 90.5144L168.941 93.629L168.243 93.8596C166.973 84.3572 179.35 70.4084 188.904 70.1004C189.644 70.0766 190.684 69.713 191.273 70.1587L188.976 71.0003Z" fill="white"/>
<path d="M168.243 93.8595C166.973 84.3571 179.35 70.4083 188.904 70.1003C189.644 70.0765 190.684 69.7128 191.273 70.1586L188.976 71.0002C178.346 73.5753 173.027 80.6987 169.694 90.5143L168.941 93.6289L168.243 93.8595Z" fill="white"/>
<path d="M168.243 93.8595L168.941 93.6289C171.729 95.4196 216.799 92.7417 219.491 94.8404C217.419 96.2413 186.007 95.5538 181.277 95.6145C178.591 95.649 169.712 96.8562 168.543 94.0378L168.243 93.8595Z" fill="white"/>
<path d="M301.438 61.1503C303.691 58.1342 306.926 54.7787 309.805 52.3648C326.125 38.6778 354.708 41.0625 368.341 57.4736C371.951 59.4664 375.721 69.0958 376.924 73.1019C379.327 81.101 378.744 89.6277 378.814 97.89C378.992 118.886 378.431 140 378.843 160.985C368.71 161.425 355.991 161.033 345.644 161.061C345.799 146.576 345.852 132.091 345.802 117.606C345.81 109.001 346.494 95.7659 344.796 87.6199C341.419 71.4156 317.996 70.0755 308.215 81.2463C300.18 89.5325 301.145 96.0902 301.089 106.691C301.33 124.681 300.784 143.116 301.259 161.065C290.284 160.953 279.309 160.927 268.334 160.985C268.753 137.597 268.407 113.355 268.445 89.8838L268.451 61.5595C268.449 56.9139 268.65 50.638 268.324 46.1984C278.737 46.1777 290.822 46.454 301.099 46.0833C300.884 49.8147 300.931 58.4041 300.209 61.3146L301.438 61.1503Z" fill="white"/>
<path d="M268.324 46.1981C278.737 46.1775 290.822 46.4538 301.099 46.083C300.884 49.8144 300.931 58.4038 300.209 61.3143C299.852 60.0889 300.005 51.5345 299.972 49.4651C299.997 48.618 299.934 48.25 299.806 47.4136L299.278 47.4489L298.06 48.8439C295.601 50.4893 280.08 49.4961 276.279 50.0895C274.432 50.3777 272.827 49.6707 271.323 48.5652C270.963 50.972 272.397 55.2968 272.269 56.656C272.118 58.2379 271.187 59.3419 271.147 62.3953L271.422 62.6684L272.158 61.7574C272.751 63.2579 271.078 72.5749 271.151 74.5263C272.121 97.7088 272.19 120.92 271.356 144.107C271.282 146.64 272.608 147.882 272.594 148.642C272.564 150.366 271.691 155.035 271.39 156.831C271.882 156.641 273.393 155.788 273.535 155.826C278.701 157.242 293.929 154.69 297.858 157.184C297.575 154.64 297.811 150.843 297.805 148.125C297.739 141.365 297.761 134.605 297.873 127.846C297.977 117.785 297.768 107.452 298.326 97.4079C298.93 86.5252 307.113 75.4826 318.289 73.2974L318.425 73.6042L316.788 74.6752L316.899 74.6629C318.748 74.4426 323.417 72.9417 325.716 72.4153C324.448 72.0854 323.688 71.9866 322.417 71.8346L322.487 71.5757C323.301 71.4868 325.929 71.2129 326.603 71.3523C330.572 72.1755 329.392 73.1517 333.301 72.4288L333.711 72.7877C333.339 72.9409 332.995 73.0477 332.693 73.3081C333.364 73.4061 334.009 73.5272 334.686 73.5185L335.04 73.0588C332.683 70.44 323.827 70.9843 322.624 70.1519C332.98 66.195 344.675 73.4379 348.661 83.1122C349.06 84.0812 348.561 86.0163 348.799 87.0901C350.51 88.3727 350.682 89.2746 349.797 91.511C349.026 93.4569 348.115 93.3478 348.064 95.5632C348.587 96.7847 350.144 98.307 350.136 98.2431C350.37 100.001 348.928 106.867 349.046 108.308C349.539 114.364 351.467 117.334 349.739 123.522C349.319 125.024 348.409 129.464 349.101 130.83L348.96 130.627L350.074 130.708L349.952 132.501L350.4 132.294L350.771 131.001C351.216 133.204 349.261 135.312 349.117 137.525C348.941 140.231 349.721 142.898 349.889 145.59C350.01 147.823 348.928 154.015 350.141 155.679C355.799 157.66 371.949 154.519 375.366 157.307L376.876 159.321L377.384 159.382C377.422 156.667 377.037 153.786 377.015 150.948L377.034 122.165C377.13 108.337 377.365 94.4335 376.837 80.6252C376.623 75.0297 375.167 70.4051 372.866 65.4106C372.089 63.7251 368.402 58.3316 368.341 57.4734C371.951 59.4661 375.721 69.0955 376.924 73.1017C379.327 81.1008 378.744 89.6275 378.814 97.8898C378.992 118.885 378.431 140 378.843 160.985C368.71 161.424 355.991 161.033 345.644 161.06C345.799 146.576 345.852 132.091 345.802 117.606C345.81 109.001 346.494 95.7657 344.796 87.6197C341.419 71.4154 317.996 70.0752 308.215 81.2461C300.18 89.5322 301.145 96.09 301.089 106.69C301.33 124.681 300.784 143.115 301.259 161.065C290.284 160.953 279.309 160.927 268.334 160.985C268.753 137.596 268.407 113.355 268.445 89.8835L268.451 61.5593C268.449 56.9136 268.65 50.6377 268.324 46.1981Z" fill="white"/>
<path d="M297.858 157.184C297.575 154.64 297.811 150.843 297.806 148.125C297.739 141.365 297.762 134.605 297.873 127.846C297.977 117.785 297.768 107.452 298.326 97.4079C298.93 86.5252 307.113 75.4826 318.289 73.2974L318.425 73.6042L316.788 74.6752C308.06 77.4293 300.86 86.3077 300.182 95.5616C299.477 105.192 299.988 114.91 299.863 124.565C300.077 134.277 299.07 151.377 300.363 160.414L297.858 157.184Z" fill="white"/>
<path d="M301.438 61.1503C303.691 58.1342 306.926 54.7787 309.805 52.3648C326.125 38.6778 354.708 41.0625 368.341 57.4736C368.402 58.3318 372.089 63.7253 372.866 65.4108C375.167 70.4054 376.623 75.0299 376.837 80.6255C377.365 94.4337 377.13 108.337 377.034 122.165L377.015 150.948C377.037 153.786 377.422 156.667 377.384 159.382L376.876 159.322L375.366 157.307C375.013 150.172 375.254 141.884 375.288 134.643L375.299 103.111C375.311 96.4304 375.687 85.002 374.558 78.7701C373.477 72.5585 371.04 66.6605 367.42 61.496C361.521 53.1253 353.122 47.8994 342.93 46.2524C328.111 43.8567 318.165 47.3579 306.837 56.9183C304.73 58.6963 302.465 62.0891 300.708 63.3284L301.438 61.1503Z" fill="white"/>
<path d="M298.06 48.8438L299.278 47.4489L299.806 47.4136C299.934 48.25 299.997 48.6179 299.972 49.4651C299.631 51.2474 299.538 62.9442 299.367 65.8654C297.778 60.6605 297.915 54.2242 298.06 48.8438Z" fill="white"/>
<path d="M477.367 46.1935C488.181 46.18 499.378 46.3281 510.157 46.1582L510.113 119.019C510.105 132.245 509.704 147.711 510.197 160.731C509.239 161.291 480.681 161.086 477.661 161.096C477.669 156.02 477.549 149.735 478.086 144.796C475.546 148.659 473.956 150.561 470.638 153.719C465.403 158.35 460.701 160.791 453.908 162.384C427.565 167.047 403.944 155.139 399.893 126.964C398.622 118.144 399.333 107.416 399.254 98.4124C399.103 81.0331 399.393 63.6292 399.186 46.242H432.247L432.012 93.5246C432.004 100.516 431.237 113.761 433.002 119.959C437.982 137.474 459.286 136.355 470.216 125.975C477.788 115.803 477.84 111.129 477.458 98.5191C476.941 81.3475 478.233 63.2898 477.367 46.1935Z" fill="white"/>
<path d="M399.186 46.2417H432.247L432.012 93.5243C432.004 100.516 431.237 113.761 433.002 119.959C437.982 137.474 459.286 136.355 470.216 125.975L471.047 126.477C470.868 127.883 468.718 129.459 467.633 130.311C453.658 141.29 432.06 136.267 429.325 117.212C428.173 109.182 428.65 100.826 428.662 92.7042L428.654 55.4774C428.666 53.7633 429.727 49.2332 428.785 48.4329C426.817 48.5691 425.661 49.9985 424.341 49.962C416.654 49.7492 410.486 50.2276 402.894 49.0557L402.656 49.5234C403.634 51.5197 403.018 63.8584 402.656 66.8022C402.409 68.7822 404.083 72.7526 402.874 74.3945L402.755 72.8364L402.27 72.5212C401.833 73.7371 401.805 73.9796 401.921 75.267C403.22 75.862 402.954 75.5302 403.598 76.598C402.274 89.3432 404.23 102.458 403.312 115.289C403.141 117.676 404.254 121.099 402.827 122.985C402.759 125.042 404.13 126.468 404.703 128.336C404.822 129.343 404.405 130.556 404.456 131.525C404.516 132.59 407.08 134.905 407.084 135.483C407.115 140.46 407.93 140.46 411.762 143.1C412.39 143.531 411.929 146.64 412.902 147.154C413.61 147.895 416.507 149.204 416.73 149.445C418.646 151.526 418.797 152.256 421.372 153.928C425.633 156.694 429.62 156.66 434.21 157.721C437.143 158.399 435.828 159.422 440.458 159.266C442.35 159.202 446.301 158.964 447.7 160.063C447.831 159.986 434.91 160.082 434.159 160.017C434.278 159.285 434.528 159.03 434.957 158.447C433.535 157.621 432.767 158.885 431.873 158.945C429.957 159.072 425.204 156.563 423.634 157.76C425.637 161.15 449.481 162.527 453.908 162.384C427.565 167.047 403.944 155.138 399.893 126.964C398.622 118.144 399.333 107.416 399.254 98.4121C399.103 81.0328 399.393 63.6289 399.186 46.2417Z" fill="white"/>
<path d="M477.867 143.494C478.976 144.099 479.616 144.508 480.379 145.519C480.693 147.688 478.173 148.92 479.533 151.406L480.121 151.184C480.224 149.965 480.149 147.643 480.721 146.91C481.301 147.962 480.876 149.171 481.162 150.293C481.417 151.289 482.227 152.155 482.287 153.2C482.311 153.674 481.874 155.26 481.997 155.543C482.124 155.838 483.257 156.303 483.555 156.389C488.567 157.849 503.241 155.39 506.202 156.864C506.27 156.897 506.337 156.929 506.405 156.963C506.536 157.028 506.655 157.098 506.779 157.179C507.339 157.941 508.233 159.244 508.825 159.915L510.197 160.731C509.239 161.291 480.681 161.085 477.661 161.096C477.669 156.019 477.549 149.735 478.086 144.796C475.546 148.659 473.956 150.56 470.637 153.719L470.268 153.138C473.177 150.43 476.087 147.047 477.867 143.494Z" fill="white"/>
<path d="M508.066 48.3047C508.619 49.7635 508.305 62.2253 508.313 64.9774L508.356 129.129C508.372 136.145 507.991 153.476 508.825 159.915C508.233 159.244 507.339 157.941 506.779 157.179C506.421 152.368 506.675 144.497 506.687 139.475L506.679 109.077L506.691 71.1176C506.695 67.3703 506.21 51.0552 507.585 48.5397L508.066 48.3047Z" fill="white"/>
<path d="M482.203 49.79C481.186 49.0973 479.874 48.3268 479.187 47.3439C482.056 47.147 507.387 47.045 508.301 47.5535L508.066 48.3049L507.585 48.54C503.837 50.934 487.291 50.3187 482.203 49.79Z" fill="white"/>
<path d="M470.268 153.138C469.942 153.25 467.78 154.951 467.267 155.288C463.046 158.059 457.382 161.734 452.211 161.588L452.334 161.626L451.365 160.778C451.746 160.036 452.104 159.921 452.843 159.534C460.228 160.102 468.781 153.056 473.42 147.797C474.811 146.221 475.955 144.376 477.867 143.494C476.087 147.047 473.177 150.43 470.268 153.138Z" fill="white"/>
<path d="M21.8842 15.6077L143.163 15.5757C142.739 23.9804 142.809 37.963 143.191 46.3572C140.012 45.7601 132.833 46.067 129.301 46.0158C119.386 45.8721 108.956 46.3405 99.0783 45.907L99.1924 120.389C99.1765 132.226 98.7091 148.836 99.4118 160.402C99.2337 160.559 99.0191 160.749 98.7687 160.97C89.6621 161.2 72.9882 161.037 64.6932 161.02C64.3887 158.548 64.502 151.516 64.4936 148.818L64.475 124.712L64.4825 46.0011L21.903 45.9999L21.8842 15.6077Z" fill="white"/>
<path d="M21.8842 15.6077L143.163 15.5757C142.739 23.9804 142.809 37.963 143.191 46.3572C140.012 45.7601 132.833 46.067 129.301 46.0158C119.386 45.8721 108.956 46.3405 99.0783 45.907L99.1284 45.5227C99.8029 45.015 137.229 45.2703 142.163 45.2925C141.359 44.3219 140.303 42.6456 139.568 41.546C139.441 35.1909 139.19 25.069 139.754 18.9552C135.719 19.7389 131.199 19.8505 127.087 19.9324C115.509 20.1626 103.856 19.4671 92.2718 19.4083C85.1417 19.3722 28.0517 20.6551 26.0497 19.3532C26.0026 19.3225 25.9573 19.2893 25.911 19.2574C25.3289 19.8016 23.6046 23.7611 23.8115 24.57L24.7781 23.9491C24.133 25.1035 23.5232 25.592 23.831 26.923C24.382 29.305 22.8215 31.4332 23.4642 33.9553L23.8463 34.1524C23.8469 34.151 24.5122 28.6358 24.5088 28.3569C25.0141 29.7336 24.2341 39.2015 25.3697 41.1165C28.8213 41.6052 33.6747 41.13 37.3445 41.2447C42.7418 41.3805 48.0495 41.8667 53.4601 41.8421C56.8441 41.8267 60.5198 41.261 63.7989 41.8096C65.0266 42.2863 67.2552 45.8455 67.3478 46.9756C67.5879 49.9076 66.8808 52.7415 66.9058 55.6631C66.9225 57.6117 68.5469 64.4541 67.9778 65.8387L67.5513 65.0277L67.101 65.3675C68.3085 77.7324 68.3478 90.6781 67.5827 103.1C67.5143 104.21 67.3967 105.34 67.4201 106.467C68.2528 122.456 66.3172 140.257 68.1586 155.983C70.9993 156.922 85.0479 155.468 89.9419 156.642C92.391 156.586 93.337 156.723 95.7686 157.137L97.9845 160.024C98.378 160.146 99.0258 160.377 99.4118 160.402C99.2337 160.559 99.0191 160.749 98.7687 160.97C89.6621 161.2 72.9882 161.037 64.6932 161.02C64.3887 158.548 64.502 151.516 64.4936 148.818L64.475 124.712L64.4825 46.0011L21.903 45.9999L21.8842 15.6077Z" fill="white"/>
<path d="M64.6931 161.02C65.1729 154.359 63.8473 123.983 65.2003 120.535C65.4845 125.831 65.5755 154.326 67.589 156.71C74.8741 156.958 82.4541 156.415 89.9418 156.642C92.391 156.587 93.337 156.723 95.7686 157.137L97.9845 160.024C98.378 160.147 99.0258 160.377 99.4118 160.402C99.2337 160.559 99.0191 160.749 98.7687 160.97C89.662 161.2 72.9882 161.037 64.6931 161.02Z" fill="white"/>
<path d="M139.754 18.9553L142.201 15.8779C141.665 24.0063 141.91 36.8367 142.163 45.2926C141.359 44.322 140.303 42.6457 139.568 41.5461C139.441 35.191 139.19 25.0691 139.754 18.9553Z" fill="white"/>
<path d="M43.3086 42.6216C48.7109 43.0948 54.8862 42.9923 61.0167 43.5374L61.3227 44.0625C57.7809 44.0824 44.5364 44.5365 42.464 43.2714L43.3086 42.6216Z" fill="white"/>
<path d="M95.7686 157.137C95.6465 150.779 95.4649 128.848 95.8099 123.123C96.3345 114.421 94.8059 47.7624 96.6978 45.1104C98.3799 46.5958 97.6628 71.8075 97.6632 76.1962C97.4824 96.5499 97.4872 116.905 97.678 137.259C97.763 145.346 97.608 151.842 97.9844 160.024L95.7686 157.137Z" fill="white"/>
<path d="M699.285 67.9149C714.182 36.1511 760.74 40.4755 787.163 52.7042C786.078 61.0261 783.511 70.8981 782.326 80.131C778.9 78.3649 768.415 74.2615 764.719 73.8447C758.98 72.5951 754.087 71.8937 748.324 71.02C741.607 70.677 736.626 70.5321 730.545 73.9721C728.041 78.8607 729.003 82.9672 733.892 84.8564C754.019 92.6388 783.177 90.5797 791.834 115.115C794.067 121.449 793.964 136.173 789.314 141.858C789.27 142.134 789.147 142.474 789.02 142.723C783.296 153.645 770.526 159.969 758.892 162.017C737.763 165.735 715.144 162.07 695.68 153.499C697.476 143.874 699.412 135.8 700.847 125.826L701.435 125.656L702.385 126.383C708.852 129.272 716.487 132.109 723.435 133.548C732.54 135.436 753.109 138.79 760.172 131.118C760.263 130.565 760.804 129.935 761.154 129.449C761.233 127.384 761.277 125.05 759.882 123.355C751.821 113.541 714.424 117.55 701.24 97.3459C696.777 90.5027 695.879 81.6279 697.56 73.7538C697.536 72.4014 698.768 69.2833 699.285 67.9149Z" fill="white"/>
<path d="M699.285 67.9149C714.182 36.1511 760.74 40.4755 787.164 52.7042C786.078 61.0261 783.511 70.8981 782.326 80.131C778.9 78.3649 768.415 74.2615 764.719 73.8447C758.98 72.5951 754.087 71.8937 748.324 71.02C741.607 70.677 736.626 70.5321 730.545 73.9721C728.041 78.8607 729.003 82.9672 733.892 84.8564C754.019 92.6388 783.177 90.5797 791.834 115.115C794.067 121.449 793.964 136.173 789.314 141.858C788.427 142.277 788.197 142.971 787.593 143.768C783.415 149.296 777.259 155.511 770.403 157.387C768.996 157.771 763.216 159.79 762.072 159.27C767.879 157.482 776.977 152.207 781.206 147.76C793.877 134.429 792.688 111.117 776.297 101.044C763.145 92.9599 748.658 92.6006 734.5 87.6319C731.193 86.4656 729.353 85.0552 727.572 82.1789C725.243 77.8635 726.837 75.1086 729.687 71.6916L729.818 70.6754C740.211 62.8116 769.314 68.4572 779.838 74.4838C779.906 74.5898 779.973 74.6958 780.041 74.8018C780.518 72.9539 781.102 68.4536 781.46 66.3549C782.159 62.0201 783.117 57.7301 784.318 53.5061C779.115 52.6503 773.809 50.2423 768.829 49.186C744.635 44.0573 716.328 43.5992 701.201 66.7907C700.7 67.5589 700.048 69.92 699.349 70.0061L699.285 67.9149Z" fill="white"/>
<path d="M748.323 71.0202C751.062 70.8701 753.471 70.8288 756.213 70.8348L756.364 70.6351C753.713 69.819 751.173 69.1334 748.451 68.5698C746.75 68.218 744.13 68.6817 743.256 68.0609C746.94 65.822 764.437 68.8468 768.821 70.9797C770.41 71.7522 774.385 72.3175 775.542 73.2316C774.5 73.7314 772.282 73.0006 771.062 72.6989L771.054 72.9839L772.096 73.6675L771.643 74.1482C769.838 73.3428 766.786 73.8779 764.719 73.845C758.979 72.5953 754.087 71.8939 748.323 71.0202Z" fill="white"/>
<path d="M784.318 53.5063L785.637 53.1304C785.733 53.309 785.844 53.5218 785.979 53.7691C784.349 61.0747 782.303 71.6152 781.484 78.766L780.041 74.802C780.518 72.9541 781.102 68.4538 781.46 66.3551C782.159 62.0203 783.117 57.7303 784.318 53.5063Z" fill="white"/>
<path d="M729.687 71.6918C733.017 70.1242 733.9 69.6534 737.632 69.5073L737.771 69.7542C722.922 76.1123 731.495 77.073 727.572 82.1791C725.243 77.8637 726.837 75.1088 729.687 71.6918Z" fill="white"/>
<path d="M697.56 73.7539C697.81 79.118 698.534 84.4496 699.722 89.6863L700.585 90.3111L700.95 90.0856L700.334 85.3932C700.008 84.4496 706.372 97.1364 705.227 96.0765C710.143 100.63 715.43 104.699 721.753 107.182C729.528 110.708 764.631 113.932 764.604 124.88C764.003 126.055 762.871 125.971 762.449 126.351C761.491 127.218 762.839 128.745 761.154 129.449C761.233 127.384 761.277 125.051 759.882 123.355C751.821 113.541 714.424 117.55 701.24 97.346C696.777 90.5028 695.879 81.628 697.56 73.7539Z" fill="white"/>
<path d="M702.385 126.383C708.852 129.272 716.487 132.109 723.435 133.548C732.54 135.436 753.109 138.791 760.172 131.118L760.796 131.558L760.963 132.573C754.48 145.358 704.273 134.075 701.717 126.901L702.385 126.383Z" fill="white"/>
<path d="M607.726 48.2224C613.668 43.5561 634.626 43.3537 642.428 44.2818C653.402 45.5369 664.141 48.3577 674.316 52.6576C672.416 59.9497 670.091 72.6243 669.149 80.1732C655.962 73.9037 635.778 68.7162 621.1 72.5C617.285 73.4841 615.675 77.0464 616.875 80.6373C617.332 82.0028 618.787 82.9464 619.272 83.8896C637.249 93.3237 670.886 89.7626 678.712 115.528C684.738 135.361 672.714 154.96 653.064 160.233C629.53 166.886 604.621 162.486 582.769 153.279C584.017 148.486 587.777 129.875 587.65 125.225C602.809 133.017 624.924 138.643 642.174 134.281C643.66 133.905 645.417 132.804 646.657 131.872C646.681 131.209 647.201 130.803 647.666 130.318C648.048 127.89 648.338 125.659 646.685 123.581C638.914 113.811 601.016 117.561 588.186 96.757C583.779 89.6117 583.163 80.5047 585.098 72.4746C585.639 70.1187 586.45 67.7409 587.63 65.6294C591.692 57.595 599.288 51.2535 607.726 48.2224Z" fill="white"/>
<path d="M615.73 78.4849C615.901 80.1279 617.197 84.113 619.272 83.8895C637.249 93.3236 670.886 89.7625 678.712 115.528C684.738 135.36 672.714 154.96 653.064 160.233C629.53 166.886 604.621 162.486 582.769 153.279C584.017 148.486 587.777 129.874 587.65 125.224C602.809 133.017 624.924 138.643 642.174 134.281C643.66 133.905 645.417 132.804 646.657 131.872C647.46 131.982 647.253 131.622 648.203 131.086C648.692 133.697 643.827 136.765 641.621 137.265C631.871 139.429 620.687 138.52 610.969 136.427C607.316 135.639 603.457 134.096 599.53 133.423C596.521 132.907 591.422 129.208 588.703 127.728C589.768 132.308 584.494 145.595 585.798 148.304L587.479 148.485C586.672 149.795 584.188 149.022 584.355 151.89C585.706 153.55 588.958 154.821 590.83 153.684L590.508 154.158L590.73 154.066C590.81 152.785 587.3 152.359 586.744 150.759C587.252 150.295 588.695 151.495 589.538 151.734C598.206 154.196 607.976 157.988 616.943 158.958C626.589 160.002 636.001 159.717 645.552 159.206L644.976 159.4C647.054 159.46 648.942 158.981 650.866 158.344C665.413 153.529 677.44 141.715 676.625 125.404C676.451 121.873 676.125 119.014 674.916 115.621C669.336 99.9167 651.824 95.7459 637.456 92.2598C630.639 90.6052 616.927 88.5351 614.387 81.2683C615.373 80.2259 615.436 79.8623 615.73 78.4849Z" fill="white"/>
<path d="M647.666 130.318C648.048 127.89 648.338 125.659 646.685 123.581C638.914 113.811 601.016 117.561 588.186 96.757C583.779 89.6117 583.163 80.5047 585.098 72.4746C585.551 80.8258 585.233 83.1647 587.988 91.14L588.206 91.1273C588.111 90.0349 587.352 84.1087 587.503 83.4744C588.004 84.6263 589.267 87.1974 589.462 88.2009C592.026 101.58 612.372 110.121 624.693 111.028C626.506 111.162 630.17 113.142 632.173 113.382C636.764 113.92 648.807 117.753 650.802 122.002C650.806 124.502 650.469 123.784 651.947 125.51C650.544 126.667 650.643 127.437 650.039 127.909L649.515 127.157C648.533 128.116 649.288 128.72 647.666 130.318Z" fill="white"/>
<path d="M607.726 48.2223C609.808 48.212 612.185 47.139 614.272 46.6725C618.088 45.8179 621.927 44.9414 625.822 44.4865C637.611 43.5914 649.924 45.7377 661.256 48.8499C664.992 49.876 669.511 51.92 672.671 52.7603L671.359 53.6388C667.754 53.0703 663.656 51.344 660.055 50.2968C637.941 43.8629 607.269 42.4473 591.613 62.6601C590.567 64.0094 589.49 65.2709 588.206 66.401C587.972 66.1466 587.741 65.9525 587.63 65.6293C591.692 57.5949 599.288 51.2535 607.726 48.2223Z" fill="white"/>
<path d="M671.359 53.6387L672.671 52.7603C672.615 55.0031 668.43 76.8648 668.044 77.255C668.016 77.2836 667.985 77.309 667.957 77.3356C666.506 73.6899 669.952 57.4507 671.359 53.6387Z" fill="white"/>
<path d="M614.387 81.2682C614.332 81.0367 614.276 80.8037 614.232 80.5699C612.71 72.9753 618.902 70.6979 625.003 69.5059L624.642 70.0815L625.067 69.719C620.592 72.7435 616.47 71.6387 615.731 78.4847C615.436 79.8621 615.373 80.2258 614.387 81.2682Z" fill="white"/>
<path d="M561.267 43.9147C560.277 41.5905 556.918 37.3904 556.835 36.5625C559.466 34.8263 564.021 37.2737 566.728 38.2579C589.558 46.5577 578.322 56.8076 565.074 66.6613C565.917 69.6357 566.028 98.1394 565.496 101.97L565.225 101.968C564.379 102.965 564.74 102.818 563.306 102.912C556.521 103.355 546.72 102.37 540.261 102.932C538.003 102.793 535.654 103.125 533.405 102.701L533.095 102.155C531.215 101.695 529.796 101.58 527.92 102.286L527.061 103.382C521.048 93.6573 524.187 73.7435 531.513 65.1922C538.107 57.4959 546.739 61.1626 555.476 60.4568C559.192 60.1571 571.752 53.2433 571.382 49.2749C569.53 46.7502 564.53 45.792 561.267 43.9147ZM534.657 101.31C538.436 97.9358 538.599 73.6212 536.672 71.7702C530.253 72.1485 530.928 97.0279 533.925 101.832L534.657 101.31Z" fill="white"/>
<path d="M534.657 101.311C539.784 100.917 560.205 100.416 564.756 101.036C564.975 101.357 565.189 101.59 565.225 101.968C564.379 102.965 564.74 102.819 563.305 102.912C556.521 103.356 546.719 102.37 540.261 102.933C538.003 102.793 535.654 103.125 533.405 102.701L533.094 102.156L533.925 101.832L534.657 101.311Z" fill="white"/>
<path d="M563.981 65.2993C564.935 66.9396 564.939 97.9123 563.484 99.5553C563.262 98.7944 563.091 98.0183 562.976 97.2335C562.058 90.8464 562.749 74.4508 562.944 67.3468C562.96 66.7855 563.627 65.7725 563.981 65.2993Z" fill="white"/>
<path d="M527.061 103.383L527.92 102.286C529.796 101.58 531.215 101.696 533.095 102.156L533.405 102.701C535.654 103.125 538.003 102.793 540.261 102.932C546.719 102.37 556.521 103.356 563.306 102.912C564.74 102.819 564.379 102.965 565.225 101.968L565.496 101.97C565.782 108.792 566.386 155.818 565.034 159.998C563.433 164 555.837 165.935 555.269 158.688C554.351 146.992 551.266 135.256 548.703 123.813C548.091 126.397 548.297 130.329 548.329 133.105L548.544 150.77C548.595 155.249 550.313 164.273 543.226 163.722C541.66 163.6 539.549 160.897 539.331 159.42C537.101 144.46 534.537 129.548 532.069 114.602C531.699 112.372 532.157 106.973 531.075 105.482C528.85 105.8 528.468 104.949 527.061 103.383Z" fill="white"/>
<path d="M565.225 101.968L565.496 101.97C565.782 108.792 566.386 155.818 565.034 159.998L563.87 159.627C562.475 157.893 563.298 114.47 562.805 109.746C562.721 108.923 562.94 104.565 563.011 103.41C560.615 103.412 541.306 103.747 540.261 102.932C546.719 102.37 556.521 103.356 563.306 102.912C564.74 102.819 564.379 102.965 565.225 101.968Z" fill="white"/>
<path d="M648.74 196.476C648.692 192.873 648.45 187.061 648.978 183.679C649.833 182.862 649.495 183.094 650.874 182.945C653.656 184.339 652.909 186.556 652.687 189.274C652.933 192.885 653.402 214.62 652.73 217.206C651.748 217.675 649.928 218.08 649.018 217.3C648.819 215.792 649.022 215.598 648.167 214.479C643.724 219.178 636.931 219.554 632.503 214.985C621.959 204.114 635.58 183.141 648.74 196.476ZM642.885 214.315C645.866 212.694 647.639 211.287 648.62 207.938C649.364 205.408 649.193 202.457 647.897 200.13C646.836 198.223 645.035 196.908 642.949 196.314C641.593 195.928 640.242 196.032 638.855 196.146C636.065 197.591 634.26 199.133 633.282 202.199C632.488 204.676 632.666 207.496 633.875 209.81C634.936 211.851 636.772 213.38 638.974 214.055C640.27 214.46 641.546 214.412 642.885 214.315Z" fill="white"/>
<path d="M652.687 189.274C652.933 192.886 653.402 214.62 652.73 217.207C651.749 217.675 649.928 218.081 649.018 217.301C648.819 215.792 649.022 215.599 648.167 214.479C649.149 213.93 650.246 213.811 651.355 213.616C652.798 212.084 652.226 192.92 652.687 189.274Z" fill="white"/>
<path d="M384.371 196.757C393.392 186.93 397.652 195.569 401.626 195.434C402.413 193.257 402.226 192.584 405.291 192.959C405.382 192.97 405.649 193.145 405.736 193.208C405.871 194.636 406.014 202.36 405.78 203.768C405.915 207.331 406.61 214.28 405.235 217.231C403.943 218.278 403.423 218.156 402.012 217.223C401.861 215.331 402.187 215.708 401.022 214.645L400.776 214.746C399.261 216.55 397.165 217.776 394.847 218.216C392.135 218.728 389.325 217.837 387.095 216.294C384.186 214.259 382.212 211.146 381.615 207.649C380.878 203.398 381.928 200.18 384.371 196.757ZM397.938 213.322C402.016 210.195 403.367 204.542 400.815 200.037C399.81 198.244 398.133 196.926 396.148 196.377C393.119 195.543 391.358 196.367 388.799 197.804C381.099 206.478 388.877 218.246 397.938 213.322Z" fill="white"/>
<path d="M401.022 214.645C401.551 214.372 403.713 214.219 404.46 214.137C406.253 212.849 404.413 207.373 405.732 203.889L405.78 203.769C405.915 207.331 406.611 214.28 405.235 217.231C403.944 218.279 403.423 218.156 402.012 217.223C401.861 215.331 402.187 215.709 401.022 214.645Z" fill="white"/>
<path d="M575.639 196.011C584.601 187.408 591.255 196.214 592.801 195.85C592.884 194.509 592.821 193.805 593.699 192.761C594.828 192.384 595.508 192.416 596.303 193.468C597.074 197.514 596.402 211.693 596.633 217.069C595.774 217.948 595.881 217.703 594.494 218.031C592.686 217.338 592.821 216.378 592.698 214.599L591.811 214.372C588.826 219.059 582.268 219.425 577.896 216.342C574.987 214.268 573.035 211.113 572.475 207.586C571.728 202.924 572.984 199.667 575.639 196.011ZM591.74 210.056C594.912 201.359 589.975 193.65 580.384 197.098C577.888 199.409 576.422 201.287 576.291 204.916C576.183 207.507 577.117 210.034 578.886 211.931C583.043 216.38 588.524 214.575 591.74 210.056Z" fill="white"/>
<path d="M575.639 196.011C577.062 195.619 577.841 195.306 579.315 195.539C580.317 196.231 580.031 195.855 580.384 197.098C577.888 199.409 576.422 201.287 576.291 204.916C576.183 207.507 577.117 210.034 578.886 211.931C583.043 216.38 588.524 214.575 591.74 210.056C592.849 211.106 592.698 210.658 592.773 211.934C592.344 212.704 591.78 213.507 591.811 214.372C588.826 219.059 582.268 219.425 577.896 216.342C574.987 214.268 573.035 211.113 572.475 207.586C571.728 202.924 572.984 199.667 575.639 196.011Z" fill="white"/>
<path d="M493.062 215.872C492.959 215.961 492.852 216.046 492.74 216.125C487.279 220.07 480.169 218.795 476.269 213.333C474.052 210.205 473.185 206.316 473.873 202.544C475.816 191.283 489.568 188.755 495.995 197.513C499.672 202.521 498.885 211.825 493.476 215.458L493.38 215.521L493.062 215.872ZM489.183 213.958C492.748 211.546 495.141 207.738 494.227 203.309C493.754 200.932 492.343 198.846 490.312 197.519C488.388 196.266 486.039 195.843 483.797 196.345C478.471 197.524 476.738 203.138 477.879 207.948C478.384 210.11 479.731 211.979 481.627 213.138C484.123 214.658 486.222 214.648 488.941 214.001L489.183 213.958Z" fill="white"/>
<path d="M538.575 40.5356C544.553 33.5835 553.305 33.3993 558.019 41.7086C559.029 44.7922 560.134 48.5145 558.369 51.6004C553.496 66.5051 528.4 57.5056 538.575 40.5356Z" fill="white"/>
<path d="M555.181 42.9892L555.169 42.2623C555.964 41.4506 556.608 41.7272 558.019 41.7086C559.029 44.7922 560.134 48.5145 558.369 51.6004L556.632 52.3638C555.376 50.8752 558.309 46.0426 555.181 42.9892Z" fill="white"/>
<path d="M779.91 192.267C783.125 192.164 786.392 192.818 788.809 195.081C792.183 198.24 792.617 202.432 792.791 206.768C786.504 207.202 780.077 206.484 773.757 206.862C773.224 206.893 773.224 206.911 772.879 207.299C773.105 209.112 773.928 211.19 775.244 212.492C776.762 213.991 778.793 214.589 780.891 214.571C783.757 214.545 785.554 213.61 787.521 211.592L788.157 210.86C788.928 210.739 789.791 210.554 790.562 210.749C791.241 210.921 791.273 211.052 791.619 211.651C791.539 212.194 791.384 212.654 791.059 213.103C789.306 215.518 785.442 217.863 782.477 218.282C779.58 218.691 775.995 217.668 773.674 215.912C770.923 213.829 769.234 210.595 768.785 207.205C768.3 203.537 769.17 199.573 771.452 196.619C773.717 193.685 776.341 192.712 779.91 192.267ZM782.7 203.67C784.186 203.695 787.136 204.101 788.368 203.337C788.932 202.553 788.964 202.357 789.004 201.397C788.149 199.396 785.431 197.161 783.459 196.327C782.374 195.869 780.983 195.781 779.81 195.779C776.996 196.528 774.31 198.308 772.875 200.933C772.593 201.445 772.549 201.981 772.569 202.554C773.209 203.412 773.328 203.603 774.445 203.757C776.988 204.107 780.105 203.726 782.7 203.67Z" fill="white"/>
<path d="M518.595 195.569C518.436 194.047 518.198 194.18 518.933 193.086C520.145 192.551 521.326 192.446 522.431 193.3L522.395 195.292L522.856 195.713C526.378 195.373 525.734 190.266 534.223 193.006C536.628 194.147 537.391 195.002 538.937 197.183C544.863 189.339 555.889 190.899 556.859 201.036C557.236 204.964 557.379 213.612 556.998 217.418C556.243 218.039 555.074 217.827 554.053 217.778L553.222 217.305C552.984 211.809 555.555 191.122 544.347 196.462C541.99 197.586 541.553 198.142 540.11 200.256C539.879 204.433 540.328 214.258 539.824 217.235C538.953 217.98 537.196 217.77 536.016 217.687L535.881 217.676C535.98 209.328 538.985 197.142 528.564 195.729C526.242 196.781 525.658 197.085 523.85 198.854C523.452 198.805 522.892 198.83 522.474 198.834L522.137 199.722C521.115 200.459 521.568 200.322 520.336 200.309C519.064 199.113 520.408 198.123 518.671 195.675L518.595 195.569Z" fill="white"/>
<path d="M518.595 195.569C518.436 194.047 518.198 194.18 518.933 193.086C520.145 192.551 521.326 192.446 522.431 193.3L522.395 195.292L522.856 195.713C526.378 195.373 525.734 190.266 534.223 193.006C532.415 195.56 531.668 193.279 529.136 193.956C529.136 193.956 529.132 193.955 529.128 193.954C531.191 195.141 531.89 194.242 532.932 195.138L532.59 195.399C531.135 195.137 530.265 194.879 528.818 195.241L528.564 195.729C526.242 196.781 525.658 197.085 523.85 198.854C523.452 198.805 522.892 198.83 522.474 198.834L522.137 199.722C521.115 200.459 521.568 200.322 520.336 200.309C519.064 199.113 520.408 198.123 518.671 195.675L518.595 195.569Z" fill="white"/>
<path d="M612.046 192.594C614.82 192.289 617.666 192.248 620.154 193.707C622.213 194.913 623.457 196.959 624.046 199.231C624.574 201.28 625.357 215.909 624.419 217.487C623.902 217.645 623.358 217.786 622.813 217.739C621.943 217.663 620.941 217.599 620.472 216.748C618.779 213.673 623.076 203.111 618.767 198.197C617.098 196.291 614.948 196.064 612.567 195.929C611.211 196.459 609.832 196.961 608.811 198.041C605.015 202.045 607.05 210.37 606.994 215.329C606.983 216.393 606.788 216.846 606.049 217.558C604.852 217.626 603.938 217.656 602.801 217.179C602.308 214.228 602.165 195.878 602.924 193.306C603.886 192.758 604.153 192.508 605.254 192.606C606.255 193.292 606.426 194.502 606.724 195.605C608.421 195.744 610.206 193.332 612.046 192.594Z" fill="white"/>
<path d="M444.814 192.592C448.702 192.214 451.086 192.717 454.465 194.717C455.216 195.927 456.257 197.439 456.186 198.903C454.369 200.801 448.781 195.206 445.733 195.873C444.652 196.109 443.463 196.972 442.871 197.899C442.402 198.635 442.263 199.419 442.477 200.261C443.201 203.076 451.901 204.503 454.381 205.986C455.741 206.8 456.889 207.945 457.263 209.535C457.629 211.076 457.176 213.023 456.341 214.36C454.878 216.705 452.323 217.566 449.775 218.179C447.156 218.405 444.401 218.006 442.076 216.733C439.95 215.57 439.051 213.907 438.407 211.642C438.292 211.243 438.459 211.123 438.654 210.769C441.651 210.353 442.871 212.728 445.232 213.998C446.679 214.776 448.415 215.078 450.009 214.585C451.166 214.228 452.99 213.299 453.535 212.17C453.781 211.656 453.741 211.328 453.527 210.808C452.398 208.081 446.023 206.753 443.527 205.608C441.524 204.69 439.29 203.172 438.527 201.001C438.074 199.71 438.332 198.383 438.896 197.177C440.116 194.57 442.235 193.549 444.814 192.592Z" fill="white"/>
<path d="M710.215 201.148C708.637 195.793 703.339 194.266 699.003 197.644C694.305 201.304 699.177 214.652 695.449 217.972C694.146 218.253 694.583 218.207 693.14 217.546C692.981 216.325 692.886 215.096 692.858 213.866C692.754 206.689 692.647 192.04 692.866 184.071C693.057 183.874 693.223 183.703 693.367 183.558C694.722 183.274 695.056 183.184 696.316 183.723C697.262 185.246 696.809 194.742 696.717 196.969C698.188 195.133 698.971 193.951 701.204 193.152C706.411 191.293 711.308 192.48 713.403 197.895C713.363 199.38 713.49 201.036 712.771 202.291C711.483 202.672 711.046 202.193 710.215 201.148Z" fill="white"/>
<path d="M687.238 184.79C687.699 184.724 688.116 184.903 688.55 185.037C688.669 185.323 688.792 185.64 688.82 185.952C688.927 187.078 688.784 187.422 688.065 188.219C685.644 189.143 682.266 188.605 679.682 188.534C679.865 197.075 680.012 208.923 679.611 217.326L678.955 217.796C677.23 217.814 677.452 218.054 676.101 217.267C675.358 215.786 675.7 212.602 675.723 210.686C675.676 203.284 675.672 195.881 675.715 188.479C673.136 188.543 669.897 188.726 667.385 188.411C666.808 187.461 667.107 186.635 667.206 185.356C668.378 184.453 684.412 184.832 687.238 184.79Z" fill="white"/>
<path d="M743.232 192.734C744.639 192.738 745.903 192.768 747.278 193.12C749.83 195.241 754.091 209.463 755.259 213.321C757.576 206.904 759.428 199.235 762.89 193.389C763.244 193.154 763.61 192.941 764.035 192.86C764.945 192.684 765.609 192.74 766.392 193.236C766.658 194.5 765.951 195.459 765.438 196.624C763.808 200.915 759.46 214.548 756.897 217.295C755.74 217.634 755.021 217.645 753.856 217.337C750.76 213.873 745.772 198.088 743.232 192.734Z" fill="white"/>
<path d="M420.999 192.768C424.659 192.232 427.346 192.037 430.478 194.369C430.597 194.456 430.713 194.548 430.824 194.645C429.369 197.661 428.01 195.782 425.252 195.872C412.847 196.376 416.563 204.795 416.086 214.215C416.022 215.407 416.336 216.829 415.506 217.726C414.186 217.769 413.407 217.886 412.195 217.308C411.754 216.184 411.98 196.035 412.076 193.665C412.827 192.645 413.503 192.238 414.723 192.568C415.585 193.321 415.748 194.643 416.026 195.791C416.734 195.725 418.952 193.609 420.999 192.768Z" fill="white"/>
<path d="M420.998 192.768C424.659 192.232 427.346 192.037 430.478 194.369C430.597 194.456 430.712 194.548 430.824 194.645C429.369 197.661 428.01 195.782 425.251 195.872C424.389 194.681 421.778 194.959 420.386 194.993L420.064 194.484L420.998 192.768Z" fill="white"/>
<path d="M379.26 192.098C379.21 193.015 379.14 195.793 378.822 196.475C365.843 198.722 374.448 213.189 370.908 217.564C369.879 218.09 368.676 218.282 367.903 217.305C367.473 214.549 367.138 195.397 368.619 193.116C372.061 190.963 371.256 195.086 371.844 195.818C372.707 195.653 373.215 194.935 373.944 194.251C375.246 193.093 377.516 192.625 379.26 192.098Z" fill="white"/>
<path d="M379.26 192.098C379.21 193.015 379.14 195.793 378.822 196.475C376.525 196.134 375.139 196.874 373.623 196.026L373.944 194.251C375.246 193.093 377.516 192.625 379.26 192.098Z" fill="white"/>
<path d="M512.136 192.549L513.352 192.621C514.183 193.284 514.187 193.794 514.461 194.774C513.523 197.503 510.666 196.599 508.686 197.935C504.914 200.488 507.522 212.964 506.572 217.365C505.546 218.081 504.032 217.781 502.836 217.709L502.927 201.661C502.915 198.903 502.573 195.931 502.971 193.213C503.13 193.141 503.285 193.08 503.452 193.031C504.326 192.774 505.868 192.923 506.627 193.348L506.623 195.332C508.412 195.092 510.24 193.182 512.136 192.549Z" fill="white"/>
<path d="M463.384 193.246C464.139 192.81 463.932 192.188 465.129 191.164C466.17 191.694 466.094 191.952 466.754 193.032C468.261 192.925 469.854 192.585 471.015 193.443L471.679 194.38C471.444 195.64 471.619 195.211 470.574 196.203C469.441 196.67 468.185 196.501 466.953 196.444C466.806 199.767 467.525 216.025 466.357 217.525C465.117 217.687 464.656 217.804 463.463 217.34C462.712 215.866 463.149 199.331 463.181 196.385C461.388 196.529 461.066 196.717 459.858 195.473C459.556 194.193 459.508 194.689 460.188 193.457C461.651 192.761 461.559 193.03 463.384 193.246Z" fill="white"/>
<path d="M351.099 188.341C353.038 189.721 351.643 190.155 353.216 190.812C353.89 189.222 353.404 188.511 354.418 187.813C354.821 187.911 355.759 188.077 356.019 188.322L355.365 188.602C353.805 190.914 356.263 215.91 354.319 217.833C353.197 217.847 352.038 218.003 351.15 217.363C350.575 215.711 350.862 190.949 351.099 188.341Z" fill="white"/>
<path d="M725.982 197.687C720.934 203.04 726.713 215.178 722.019 217.94C720.704 217.801 721.066 217.996 720.068 217.306C719.961 213.608 719.285 195.046 720.346 193.132C721.614 192.896 721.928 192.934 723.212 193.105C723.959 193.988 723.764 194.787 723.86 196.122C725.354 196.471 725.227 196.246 725.982 197.687Z" fill="white"/>
<path d="M735.454 192.859C736.817 192.823 738.149 192.701 739.44 193.224C740.243 197.292 739.957 213.101 739.607 217.784C738.455 217.837 737.417 217.805 736.269 217.656C734.726 215.822 735.641 196.671 735.454 192.859Z" fill="white"/>
<path d="M430.824 194.645C434.779 198.86 433.455 203.811 433.562 209.093C433.614 211.566 434.421 215.481 432.95 217.503C431.643 218.133 432.12 217.98 430.506 217.783C426.531 214.349 434.576 202.672 425.251 195.872C428.01 195.782 429.369 197.661 430.824 194.645Z" fill="white"/>
<path d="M341.993 184.872C345.247 184.869 362.593 184.181 363.921 185.395C364.139 186.464 364.199 186.691 364.003 187.753C362.239 189.119 358.347 188.582 356.019 188.322C355.759 188.078 354.821 187.911 354.418 187.813C353.404 188.511 353.89 189.222 353.216 190.812C351.643 190.156 353.038 189.721 351.099 188.341C348.552 188.508 344.997 189.086 342.799 188.208C341.765 187.008 342.076 186.717 341.993 184.872Z" fill="white"/>
<path d="M518.595 195.569L518.671 195.675C520.408 198.123 519.064 199.113 520.336 200.309C521.568 200.322 521.115 200.459 522.137 199.722L522.474 198.834C522.892 198.83 523.452 198.805 523.85 198.854C520.734 204.584 524.907 214.415 521.254 217.658C519.744 217.924 520.133 218.073 518.957 217.523C518.206 216.076 518.563 198.513 518.595 195.569Z" fill="white"/>
<path d="M713.403 197.895C714.551 200.49 715.45 216.019 712.807 217.766C711.475 217.946 711.956 217.96 710.621 217.403C709.841 213.001 710.505 205.964 710.215 201.148C711.046 202.193 711.483 202.672 712.771 202.291C713.49 201.035 713.363 199.38 713.403 197.895Z" fill="white"/>
<path d="M463.384 193.246C461.122 184.493 469.93 180.317 471.842 184.372C471.245 188.297 467.179 183.685 466.754 193.032C466.094 191.951 466.17 191.693 465.129 191.163C463.932 192.188 464.139 192.81 463.384 193.246Z" fill="white"/>
<path d="M723.86 196.122C725.78 194.291 727.993 191.911 730.919 193.03C731.726 194.063 731.531 193.613 731.598 194.992C730.426 197.027 728.236 196.51 725.982 197.687C725.227 196.246 725.354 196.471 723.86 196.122Z" fill="white"/>
</svg>
