<svg width="199" height="49" viewBox="0 0 199 49" fill="none" xmlns="http://www.w3.org/2000/svg">
<g clip-path="url(#clip0_4007_12663)">
<path d="M26.7428 0.32959H12.7298C10.8819 0.32959 9.39334 1.79461 9.39334 3.61327V11.292H16.2715V7.50316C16.2715 7.09901 16.6308 6.74539 17.0415 6.74539H26.6915C37.3167 6.74539 45.0675 14.3231 45.0675 24.8309C45.0675 35.3386 37.368 42.9163 26.6915 42.9163H17.5548C16.8362 42.9163 16.2715 42.3606 16.2715 41.6534C16.2715 41.1482 16.6308 40.643 17.1441 40.4915C18.992 39.8853 20.5832 38.9254 21.9178 37.6119C24.433 35.1366 25.6649 32.257 25.6649 28.8218V17.2026C25.6649 15.485 24.279 14.0705 22.5337 14.0705H17.1441V19.0213L17.6061 20.2842H18.8893C19.3 20.2842 19.6593 20.6379 19.6593 21.042V28.7713C19.6593 32.5096 17.0415 34.884 12.8324 34.884C8.62339 34.884 6.00558 32.2065 6.00558 28.2661V21.042C6.00558 20.6379 6.36489 20.2842 6.72419 20.2842H8.41808V14.0705H3.07978C1.3859 14.0705 0 15.4345 0 17.1016V28.2156C0 31.9034 1.33457 35.2376 3.74707 37.6119C5.1843 39.0265 6.87818 40.0368 8.88004 40.643C9.18802 40.7441 9.39334 41.0472 9.39334 41.3503V45.8969C9.39334 47.8166 10.9332 49.3321 12.8324 49.3321H26.6915C41.4744 49.3321 52.151 39.0265 52.151 24.8814C52.151 10.7363 41.4744 0.32959 26.7428 0.32959Z" fill="white"/>
</g>
<g clip-path="url(#clip1_4007_12663)">
<path d="M84.296 15.7927H81.5811C81.2052 15.7927 80.9964 15.9979 80.9964 16.3673V27.0374C80.9964 28.1044 80.8293 29.0073 80.4534 29.828C80.0775 30.6488 79.5763 31.2644 78.8662 31.6748C78.1562 32.1262 77.3626 32.3314 76.4019 32.3314C75.4413 32.3314 74.6477 32.1262 73.9376 31.6748C73.2693 31.2234 72.7264 30.6078 72.3504 29.828C71.9745 29.0483 71.8075 28.1044 71.8075 27.0374V16.3673C71.8075 15.9979 71.6404 15.7927 71.2227 15.7927H68.5496C68.1737 15.7927 67.9648 15.9979 67.9648 16.3673V27.4888C67.9648 29.1304 68.299 30.5667 68.9673 31.8389C69.6356 33.1111 70.5962 34.0961 71.8492 34.8348C73.1023 35.5735 74.6477 35.9018 76.4019 35.9018C78.1562 35.9018 79.6598 35.5324 80.9546 34.8348C82.2076 34.0961 83.21 33.1111 83.8783 31.8389C84.5466 30.5667 84.8808 29.1304 84.8808 27.4888V16.3673C84.8808 15.9979 84.6719 15.7927 84.296 15.7927Z" fill="white"/>
<path d="M99.4998 27.3658C99.1239 26.9964 98.6645 26.7502 98.205 26.586C98.5392 26.4219 98.7898 26.2167 99.0822 25.9294C99.4163 25.6011 99.6669 25.1907 99.834 24.6982C100.001 24.2468 100.126 23.7543 100.126 23.2619C100.126 22.359 99.9175 21.5382 99.4581 20.8816C98.9986 20.1839 98.3721 19.6504 97.5785 19.2811C96.7849 18.9117 95.8243 18.7065 94.7383 18.7065H88.4732C88.0973 18.7065 87.8884 18.9117 87.8884 19.2811V34.999C87.8884 35.3683 88.0973 35.5735 88.4732 35.5735H95.4484C96.4926 35.5735 97.4532 35.3683 98.2886 34.9579C99.1239 34.5476 99.7922 33.973 100.252 33.2754C100.711 32.5367 100.962 31.6748 100.962 30.6899C100.962 30.0333 100.836 29.4177 100.586 28.8432C100.335 28.2686 99.9593 27.7761 99.4998 27.3658ZM96.3673 24.5341C96.2002 24.8213 95.9078 25.0676 95.5737 25.2317C95.2395 25.3959 94.8636 25.478 94.446 25.478H91.2716V21.6203H94.5295C94.9472 21.6203 95.3231 21.7024 95.6572 21.8665C95.9914 22.0307 96.2002 22.2359 96.409 22.5232C96.6179 22.8104 96.6596 23.1387 96.6596 23.4671C96.6596 23.7954 96.5761 24.1647 96.3673 24.452M97.1608 31.5928C96.952 31.9211 96.7014 32.2083 96.3673 32.4135C96.0331 32.6187 95.6154 32.7008 95.1978 32.7008H91.3551V28.1455H95.0307C95.5319 28.1455 95.9496 28.2276 96.3255 28.4328C96.7014 28.638 96.9938 28.9252 97.2026 29.2535C97.4115 29.5819 97.495 29.9512 97.495 30.3616C97.495 30.813 97.4115 31.2234 97.2026 31.5517" fill="white"/>
<path d="M114.954 32.4131H106.517V28.2681H112.865C113.241 28.2681 113.45 28.0629 113.45 27.6936V25.8058C113.45 25.4365 113.241 25.2313 112.865 25.2313H106.517V21.825H114.787C115.163 21.825 115.371 21.6198 115.371 21.2505V19.2396C115.371 18.8702 115.163 18.665 114.787 18.665H103.635C103.259 18.665 103.05 18.8702 103.05 19.2396V34.9575C103.05 35.3268 103.259 35.532 103.635 35.532H114.954C115.33 35.532 115.538 35.3268 115.538 34.9575V32.9466C115.538 32.5772 115.33 32.372 114.954 32.372" fill="white"/>
<path d="M127.985 29.0481C128.82 28.5967 129.489 27.9811 129.99 27.2013C130.491 26.4216 130.742 25.4367 130.742 24.3286C130.742 23.2206 130.491 22.2356 129.99 21.4148C129.489 20.5941 128.779 19.8964 127.902 19.445C127.024 18.9935 125.98 18.7473 124.811 18.7473H118.295C117.919 18.7473 117.71 18.9525 117.71 19.3219V35.0398C117.71 35.4091 117.919 35.6143 118.295 35.6143H120.592C120.968 35.6143 121.177 35.4091 121.177 35.0398V29.992H123.934C124.184 29.992 124.435 29.992 124.685 29.992L127.15 35.2039C127.275 35.4912 127.484 35.6143 127.818 35.6143H130.491C130.491 35.6143 130.783 35.6143 130.867 35.4912C130.951 35.4091 130.992 35.327 130.992 35.2039C130.992 35.1218 130.992 35.0398 130.909 34.9166L128.027 29.0891L127.985 29.0481ZM127.233 24.3696C127.233 24.8621 127.108 25.3135 126.899 25.7239C126.69 26.1343 126.356 26.4216 125.938 26.6268C125.521 26.832 125.061 26.9551 124.518 26.9551H121.177V21.8663H124.518C125.02 21.8663 125.521 21.9894 125.938 22.1535C126.356 22.3587 126.648 22.646 126.899 23.0154C127.108 23.3847 127.233 23.8361 127.233 24.3696Z" fill="white"/>
<path d="M145.863 17.106C144.276 16.2442 142.522 15.7927 140.6 15.7927H133.917C133.541 15.7927 133.333 15.9979 133.333 16.3673V34.9168C133.333 35.2862 133.541 35.4914 133.917 35.4914H140.6C142.522 35.4914 144.276 35.081 145.863 34.1781C147.45 33.3163 148.703 32.1262 149.664 30.6488C150.624 29.1714 151.042 27.4888 151.042 25.6421C151.042 23.7953 150.583 22.1538 149.622 20.6353C148.703 19.1169 147.408 17.9267 145.821 17.0649M146.322 28.8431C145.779 29.787 144.986 30.5257 144.025 31.0592C143.065 31.5927 141.979 31.88 140.767 31.88H137.217V19.4452H140.726C141.937 19.4452 143.023 19.7325 143.983 20.266C144.986 20.7995 145.738 21.5382 146.281 22.4821C146.865 23.426 147.116 24.493 147.116 25.6831C147.116 26.8732 146.824 27.8992 146.281 28.8431" fill="white"/>
<path d="M165.995 19.5266C164.617 18.7468 163.155 18.3364 161.526 18.3364C159.897 18.3364 158.435 18.7468 157.057 19.5266C155.678 20.3063 154.592 21.3733 153.799 22.7276C153.005 24.0819 152.588 25.5593 152.588 27.1598C152.588 28.7603 153.005 30.1967 153.799 31.551C154.592 32.9052 155.678 33.9312 157.057 34.7109C158.435 35.4907 159.897 35.9011 161.526 35.9011C163.155 35.9011 164.617 35.4907 165.995 34.7109C167.373 33.9312 168.459 32.8642 169.253 31.551C170.046 30.1967 170.464 28.7603 170.464 27.1598C170.464 25.5593 170.046 24.0819 169.253 22.7276C168.459 21.3733 167.373 20.3063 165.995 19.5266ZM166.078 29.8273C165.619 30.6481 164.951 31.2637 164.157 31.7561C163.364 32.2076 162.486 32.4538 161.526 32.4538C160.565 32.4538 159.688 32.2076 158.894 31.7561C158.101 31.3047 157.433 30.6481 156.973 29.8273C156.514 29.0065 156.263 28.1037 156.263 27.1187C156.263 26.1338 156.514 25.231 156.973 24.4102C157.433 23.5894 158.101 22.9328 158.894 22.4814C159.688 22.0299 160.565 21.7837 161.526 21.7837C162.486 21.7837 163.322 22.0299 164.157 22.4814C164.951 22.9328 165.619 23.5894 166.078 24.4102C166.538 25.231 166.789 26.1338 166.789 27.1187C166.789 28.1037 166.538 29.0065 166.078 29.8273Z" fill="white"/>
<path d="M186.668 33.1521L185.457 31.4695C185.457 31.4695 185.206 31.2233 185.039 31.2233C184.914 31.2233 184.789 31.2643 184.663 31.3874C184.121 31.7978 183.536 32.1261 182.909 32.3313C182.283 32.5365 181.614 32.6596 180.904 32.6596C179.944 32.6596 179.067 32.4134 178.231 31.962C177.396 31.4695 176.769 30.8129 176.268 29.9921C175.767 29.1713 175.516 28.2274 175.516 27.2015C175.516 26.1755 175.767 25.2316 176.268 24.4108C176.769 23.59 177.396 22.9334 178.231 22.441C179.067 21.9485 179.944 21.7023 180.904 21.7023C181.656 21.7023 182.324 21.8254 182.909 22.0306C183.494 22.2358 184.079 22.5641 184.663 22.9745C184.789 23.0565 184.914 23.1386 185.039 23.1386C185.206 23.1386 185.332 23.0565 185.457 22.8924L186.668 21.2098C186.668 21.2098 186.794 20.9636 186.794 20.8404C186.794 20.6763 186.71 20.5532 186.585 20.43C185.791 19.8145 184.914 19.322 183.953 18.9937C182.951 18.6654 181.907 18.5012 180.779 18.5012C179.108 18.5012 177.605 18.9116 176.226 19.6913C174.848 20.4711 173.804 21.5381 173.052 22.8924C172.3 24.2467 171.883 25.7241 171.883 27.3246C171.883 28.9251 172.258 30.3615 173.052 31.7157C173.804 33.07 174.89 34.137 176.226 34.9168C177.563 35.6965 179.067 36.1069 180.737 36.1069C181.907 36.1069 182.951 35.9428 183.953 35.5734C184.956 35.2451 185.833 34.7116 186.627 34.096C186.752 33.9729 186.794 33.8908 186.794 33.7267C186.794 33.6035 186.752 33.4804 186.668 33.3573" fill="white"/>
</g>
<defs>
<clipPath id="clip0_4007_12663">
<rect width="52" height="49" fill="white"/>
</clipPath>
<clipPath id="clip1_4007_12663">
<rect width="131" height="34" fill="white" transform="translate(68 10)"/>
</clipPath>
</defs>
</svg>
