<svg width="249" height="42" viewBox="0 0 249 42" fill="none" xmlns="http://www.w3.org/2000/svg">
<path d="M108.713 0.73291L101.051 21.7015H95.9654L88.297 0.73291H92.7857L98.5322 17.4014L104.247 0.73291H108.71H108.713Z" fill="white"/>
<path d="M125.829 17.7058H117.507L116.134 21.7015H111.734L119.25 0.704102H124.128L131.643 21.7015H127.212L125.829 17.7058ZM124.693 14.3381L121.67 5.56494L118.643 14.3381H124.69H124.693Z" fill="white"/>
<path d="M140.431 18.3691H147.314V21.7015H136.242V0.73291H140.431V18.3691Z" fill="white"/>
<path d="M169.102 0.73291V21.7015H164.913V12.7809H155.968V21.7015H151.779V0.73291H155.968V9.35232H164.913V0.73291H169.102Z" fill="white"/>
<path d="M187.837 17.7058H179.514L178.141 21.7015H173.742L181.257 0.704102H186.132L193.648 21.7015H189.216L187.837 17.7058ZM186.697 14.3381L183.674 5.56494L180.648 14.3381H186.694H186.697Z" fill="white"/>
<path d="M202.439 18.3691H209.322V21.7015H198.25V0.73291H202.439V18.3691Z" fill="white"/>
<path d="M217.97 18.3691H224.853V21.7015H213.781V0.73291H217.97V18.3691Z" fill="white"/>
<path d="M242.122 17.7058H233.8L232.427 21.7015H228.027L235.543 0.704102H240.421L247.936 21.7015H243.505L242.122 17.7058ZM240.986 14.3381L237.959 5.56494L234.933 14.3381H240.983H240.986Z" fill="white"/>
<path d="M116.243 32.1729L118.347 39.1773L120.313 32.1729H122.701L119.352 41.7664H117.223L113.807 32.1729H116.239H116.243Z" fill="white"/>
<path d="M133.721 32.1729V41.7664H131.451V32.1729H133.721Z" fill="white"/>
<path d="M147.782 34.0796V41.7698H145.513V34.0796H142.633V32.1763H150.662V34.0796H147.782Z" fill="white"/>
<path d="M163.676 40.0846H160.235L159.647 41.7732H157.327L160.918 33.1249L160.589 32.1797H162.719L166.626 41.7732H164.261L163.676 40.0846ZM160.813 38.4248H163.092L161.962 35.1596L160.813 38.4248Z" fill="white"/>
<path d="M177.643 32.1729V39.863H181.726V41.7664H175.379V32.1729H177.643Z" fill="white"/>
<path d="M192.906 32.1729V41.7664H190.637V32.1729H192.906Z" fill="white"/>
<path d="M206.97 34.0796V41.7698H204.7V34.0796H201.82V32.1763H209.85V34.0796H206.97Z" fill="white"/>
<path d="M220.777 32.1729L222.622 36.1461L224.467 32.1729H226.98L223.701 37.9693V41.7664H221.431V38.0526L218.223 32.1729H220.777Z" fill="white"/>
<path d="M77.102 0.540039L19.8633 20.6306L39.293 41.8715L77.102 0.540039Z" fill="white"/>
<path d="M1.07617 0.0917969L19.8641 20.631L39.8333 13.6233L1.07617 0.0917969Z" fill="white"/>
<path d="M1.07617 0.0917969L19.8641 20.631L39.8333 13.6233L1.07617 0.0917969Z" fill="white"/>
</svg>
