<svg width="164" height="39" viewBox="0 0 164 39" fill="none" xmlns="http://www.w3.org/2000/svg">
<path d="M23.694 13.741H27.159L19.899 31H16.797L13.695 23.212L10.593 31H7.491L0.198 13.741H3.663L9.207 27.469L11.649 21.1L8.679 13.774H11.748L13.695 19.153L15.609 13.774H18.678L15.741 21.1L18.183 27.469L23.694 13.741ZM27.8976 25.951C27.8976 24.851 28.2056 23.894 28.8216 23.08C29.4596 22.244 30.3286 21.606 31.4286 21.166C32.5286 20.704 33.8046 20.473 35.2566 20.473C36.0266 20.473 36.8076 20.528 37.5996 20.638C38.4136 20.748 39.1286 20.924 39.7446 21.166V20.077C39.7446 18.867 39.3816 17.921 38.6556 17.239C37.9296 16.557 36.8846 16.216 35.5206 16.216C34.5526 16.216 33.6396 16.392 32.7816 16.744C31.9236 17.074 31.0106 17.547 30.0426 18.163L28.8216 15.721C29.9656 14.951 31.1096 14.379 32.2536 14.005C33.4196 13.631 34.6406 13.444 35.9166 13.444C38.2266 13.444 40.0416 14.06 41.3616 15.292C42.7036 16.502 43.3746 18.229 43.3746 20.473V26.908C43.3746 27.326 43.4406 27.623 43.5726 27.799C43.7266 27.975 43.9796 28.074 44.3316 28.096V31C44.0016 31.066 43.7046 31.11 43.4406 31.132C43.1766 31.154 42.9566 31.165 42.7806 31.165C42.0106 31.165 41.4276 30.978 41.0316 30.604C40.6356 30.23 40.4046 29.79 40.3386 29.284L40.2396 28.294C39.4916 29.262 38.5346 30.01 37.3686 30.538C36.2026 31.066 35.0256 31.33 33.8376 31.33C32.6936 31.33 31.6706 31.099 30.7686 30.637C29.8666 30.153 29.1626 29.504 28.6566 28.69C28.1506 27.876 27.8976 26.963 27.8976 25.951ZM38.8866 27.007C39.1506 26.721 39.3596 26.435 39.5136 26.149C39.6676 25.863 39.7446 25.61 39.7446 25.39V23.41C39.1286 23.168 38.4796 22.992 37.7976 22.882C37.1156 22.75 36.4446 22.684 35.7846 22.684C34.4646 22.684 33.3866 22.948 32.5506 23.476C31.7366 24.004 31.3296 24.73 31.3296 25.654C31.3296 26.16 31.4616 26.644 31.7256 27.106C32.0116 27.568 32.4076 27.942 32.9136 28.228C33.4416 28.514 34.0906 28.657 34.8606 28.657C35.6526 28.657 36.4116 28.503 37.1376 28.195C37.8636 27.887 38.4466 27.491 38.8866 27.007ZM47.7603 35.059C48.0903 35.103 48.4093 35.147 48.7173 35.191C49.0473 35.257 49.3113 35.29 49.5093 35.29C49.8833 35.29 50.2023 35.169 50.4663 34.927C50.7523 34.707 51.0383 34.289 51.3243 33.673C51.6103 33.057 51.9623 32.166 52.3803 31L45.2853 13.741H49.0803L54.3603 27.304L59.0463 13.741H62.5443L54.7233 34.993C54.4813 35.631 54.1293 36.214 53.6673 36.742C53.2053 37.292 52.6333 37.721 51.9513 38.029C51.2693 38.337 50.4663 38.491 49.5423 38.491C49.2783 38.491 49.0033 38.469 48.7173 38.425C48.4313 38.381 48.1123 38.315 47.7603 38.227V35.059ZM70.9 31.33C69.448 31.33 68.073 31.099 66.775 30.637C65.477 30.153 64.366 29.438 63.442 28.492L64.795 26.05C65.785 26.93 66.775 27.568 67.765 27.964C68.777 28.36 69.778 28.558 70.768 28.558C71.78 28.558 72.605 28.371 73.243 27.997C73.881 27.601 74.2 27.029 74.2 26.281C74.2 25.731 74.035 25.324 73.705 25.06C73.375 24.796 72.891 24.565 72.253 24.367C71.637 24.169 70.889 23.949 70.009 23.707C68.777 23.333 67.743 22.948 66.907 22.552C66.071 22.134 65.444 21.628 65.026 21.034C64.608 20.44 64.399 19.681 64.399 18.757C64.399 17.635 64.685 16.678 65.257 15.886C65.829 15.094 66.621 14.489 67.633 14.071C68.667 13.653 69.855 13.444 71.197 13.444C72.451 13.444 73.606 13.642 74.662 14.038C75.74 14.412 76.686 15.006 77.5 15.82L75.949 18.229C75.179 17.525 74.387 17.008 73.573 16.678C72.781 16.348 71.923 16.183 70.999 16.183C70.471 16.183 69.965 16.249 69.481 16.381C68.997 16.491 68.59 16.711 68.26 17.041C67.952 17.349 67.798 17.789 67.798 18.361C67.798 18.823 67.93 19.197 68.194 19.483C68.458 19.769 68.854 20.011 69.382 20.209C69.91 20.407 70.559 20.627 71.329 20.869C72.671 21.265 73.815 21.661 74.761 22.057C75.707 22.431 76.433 22.926 76.939 23.542C77.467 24.136 77.731 24.961 77.731 26.017C77.731 27.689 77.104 28.998 75.85 29.944C74.618 30.868 72.968 31.33 70.9 31.33ZM80.1139 31C80.1139 30.076 80.1909 29.229 80.3449 28.459C80.4989 27.667 80.7629 26.919 81.1369 26.215C81.5329 25.511 82.0719 24.851 82.7539 24.235C83.4579 23.597 84.3489 22.992 85.4269 22.42C86.1969 21.98 86.9229 21.595 87.6049 21.265C88.2869 20.913 88.8919 20.572 89.4199 20.242C89.9479 19.89 90.3549 19.516 90.6409 19.12C90.9489 18.724 91.1029 18.273 91.1029 17.767C91.1029 17.283 90.9709 16.832 90.7069 16.414C90.4429 15.996 90.0469 15.666 89.5189 15.424C88.9909 15.16 88.3529 15.028 87.6049 15.028C87.0109 15.028 86.4609 15.105 85.9549 15.259C85.4709 15.413 85.0199 15.622 84.6019 15.886C84.2059 16.128 83.8429 16.403 83.5129 16.711C83.1829 16.997 82.8969 17.283 82.6549 17.569L80.3779 14.962C80.5979 14.698 80.9389 14.401 81.4009 14.071C81.8849 13.719 82.4569 13.378 83.1169 13.048C83.7989 12.696 84.5689 12.41 85.4269 12.19C86.2849 11.948 87.2199 11.827 88.2319 11.827C89.6619 11.827 90.8829 12.069 91.8949 12.553C92.9069 13.015 93.6769 13.664 94.2049 14.5C94.7549 15.314 95.0299 16.238 95.0299 17.272C95.0299 18.086 94.8649 18.801 94.5349 19.417C94.2269 20.033 93.8199 20.583 93.3139 21.067C92.8079 21.529 92.2689 21.936 91.6969 22.288C91.1469 22.618 90.6299 22.915 90.1459 23.179C89.2879 23.597 88.5399 23.982 87.9019 24.334C87.2859 24.686 86.7579 25.038 86.3179 25.39C85.8779 25.72 85.5149 26.072 85.2289 26.446C84.9429 26.798 84.7009 27.227 84.5029 27.733H95.3929V31H80.1139ZM120.599 13.741H124.064L116.804 31H113.702L110.6 23.212L107.498 31H104.396L97.1033 13.741H100.568L106.112 27.469L108.554 21.1L105.584 13.774H108.653L110.6 19.153L112.514 13.774H115.583L112.646 21.1L115.088 27.469L120.599 13.741ZM133.717 31.33C132.375 31.33 131.154 31.099 130.054 30.637C128.976 30.153 128.041 29.504 127.249 28.69C126.457 27.854 125.841 26.908 125.401 25.852C124.983 24.774 124.774 23.63 124.774 22.42C124.774 20.792 125.148 19.307 125.896 17.965C126.644 16.601 127.689 15.512 129.031 14.698C130.373 13.862 131.946 13.444 133.75 13.444C135.554 13.444 137.105 13.862 138.403 14.698C139.723 15.512 140.746 16.59 141.472 17.932C142.198 19.274 142.561 20.715 142.561 22.255C142.561 22.519 142.55 22.772 142.528 23.014C142.506 23.234 142.484 23.421 142.462 23.575H128.635C128.701 24.587 128.976 25.478 129.46 26.248C129.966 26.996 130.604 27.59 131.374 28.03C132.144 28.448 132.969 28.657 133.849 28.657C134.817 28.657 135.73 28.415 136.588 27.931C137.468 27.447 138.062 26.809 138.37 26.017L141.472 26.908C141.098 27.744 140.526 28.503 139.756 29.185C139.008 29.845 138.117 30.373 137.083 30.769C136.049 31.143 134.927 31.33 133.717 31.33ZM128.536 21.166H138.964C138.898 20.176 138.612 19.307 138.106 18.559C137.622 17.789 136.995 17.195 136.225 16.777C135.477 16.337 134.641 16.117 133.717 16.117C132.815 16.117 131.979 16.337 131.209 16.777C130.461 17.195 129.845 17.789 129.361 18.559C128.877 19.307 128.602 20.176 128.536 21.166ZM145.555 6.91H149.185V26.017C149.185 26.897 149.317 27.458 149.581 27.7C149.845 27.942 150.175 28.063 150.571 28.063C151.011 28.063 151.418 28.019 151.792 27.931C152.188 27.843 152.529 27.733 152.815 27.601L153.343 30.472C152.815 30.692 152.188 30.879 151.462 31.033C150.736 31.187 150.087 31.264 149.515 31.264C148.283 31.264 147.315 30.923 146.611 30.241C145.907 29.537 145.555 28.569 145.555 27.337V6.91ZM155.481 6.91H159.111V26.017C159.111 26.897 159.243 27.458 159.507 27.7C159.771 27.942 160.101 28.063 160.497 28.063C160.937 28.063 161.344 28.019 161.718 27.931C162.114 27.843 162.455 27.733 162.741 27.601L163.269 30.472C162.741 30.692 162.114 30.879 161.388 31.033C160.662 31.187 160.013 31.264 159.441 31.264C158.209 31.264 157.241 30.923 156.537 30.241C155.833 29.537 155.481 28.569 155.481 27.337V6.91Z" fill="white"/>
</svg>
