<svg width="221" height="42" viewBox="0 0 221 42" fill="none" xmlns="http://www.w3.org/2000/svg">
<path d="M212.48 3.91016H216.11V23.0172C216.11 23.8972 216.242 24.4582 216.506 24.7002C216.77 24.9422 217.1 25.0632 217.496 25.0632C217.936 25.0632 218.343 25.0192 218.717 24.9312C219.113 24.8432 219.454 24.7332 219.74 24.6012L220.268 27.4722C219.74 27.6922 219.113 27.8792 218.387 28.0332C217.661 28.1872 217.012 28.2642 216.44 28.2642C215.208 28.2642 214.24 27.9232 213.536 27.2412C212.832 26.5372 212.48 25.5692 212.48 24.3372V3.91016Z" fill="white"/>
<path d="M202.555 3.91016H206.185V23.0172C206.185 23.8972 206.317 24.4582 206.581 24.7002C206.845 24.9422 207.175 25.0632 207.571 25.0632C208.011 25.0632 208.418 25.0192 208.792 24.9312C209.188 24.8432 209.529 24.7332 209.815 24.6012L210.343 27.4722C209.815 27.6922 209.188 27.8792 208.462 28.0332C207.736 28.1872 207.087 28.2642 206.515 28.2642C205.283 28.2642 204.315 27.9232 203.611 27.2412C202.907 26.5372 202.555 25.5692 202.555 24.3372V3.91016Z" fill="white"/>
<path d="M190.717 28.3298C189.375 28.3298 188.154 28.0988 187.054 27.6368C185.976 27.1528 185.041 26.5038 184.249 25.6898C183.457 24.8538 182.841 23.9078 182.401 22.8518C181.983 21.7738 181.774 20.6298 181.774 19.4198C181.774 17.7918 182.148 16.3068 182.896 14.9648C183.644 13.6008 184.689 12.5118 186.031 11.6978C187.373 10.8618 188.946 10.4438 190.75 10.4438C192.554 10.4438 194.105 10.8618 195.403 11.6978C196.723 12.5118 197.746 13.5898 198.472 14.9318C199.198 16.2738 199.561 17.7148 199.561 19.2548C199.561 19.5188 199.55 19.7718 199.528 20.0138C199.506 20.2338 199.484 20.4208 199.462 20.5748H185.635C185.701 21.5868 185.976 22.4778 186.46 23.2478C186.966 23.9958 187.604 24.5898 188.374 25.0298C189.144 25.4478 189.969 25.6568 190.849 25.6568C191.817 25.6568 192.73 25.4148 193.588 24.9308C194.468 24.4468 195.062 23.8088 195.37 23.0168L198.472 23.9078C198.098 24.7438 197.526 25.5028 196.756 26.1848C196.008 26.8448 195.117 27.3728 194.083 27.7688C193.049 28.1428 191.927 28.3298 190.717 28.3298ZM185.536 18.1658H195.964C195.898 17.1758 195.612 16.3068 195.106 15.5588C194.622 14.7888 193.995 14.1948 193.225 13.7768C192.477 13.3368 191.641 13.1168 190.717 13.1168C189.815 13.1168 188.979 13.3368 188.209 13.7768C187.461 14.1948 186.845 14.7888 186.361 15.5588C185.877 16.3068 185.602 17.1758 185.536 18.1658Z" fill="white"/>
<path d="M177.599 10.7412H181.064L173.804 28.0002H170.702L167.6 20.2122L164.498 28.0002H161.396L154.103 10.7412H157.568L163.112 24.4692L165.554 18.1002L162.584 10.7742H165.653L167.6 16.1532L169.514 10.7742H172.583L169.646 18.1002L172.088 24.4692L177.599 10.7412Z" fill="white"/>
<path d="M137.114 28.0001C137.114 27.0761 137.191 26.2291 137.345 25.4591C137.499 24.6671 137.763 23.9191 138.137 23.2151C138.533 22.5112 139.072 21.8511 139.754 21.2351C140.458 20.5971 141.349 19.9921 142.427 19.4201C143.197 18.9802 143.923 18.5951 144.605 18.2651C145.287 17.9131 145.892 17.5721 146.42 17.2422C146.948 16.8902 147.355 16.5161 147.641 16.1201C147.949 15.7241 148.103 15.2731 148.103 14.7671C148.103 14.2831 147.971 13.8321 147.707 13.4141C147.443 12.9961 147.047 12.6661 146.519 12.4241C145.991 12.1601 145.353 12.0281 144.605 12.0281C144.011 12.0281 143.461 12.1051 142.955 12.2591C142.471 12.4131 142.02 12.6221 141.602 12.8861C141.206 13.1281 140.843 13.4031 140.513 13.7111C140.183 13.9971 139.897 14.2831 139.655 14.5691L137.378 11.9621C137.598 11.6981 137.939 11.4011 138.401 11.0711C138.885 10.7191 139.457 10.3781 140.117 10.0481C140.799 9.69615 141.569 9.41015 142.427 9.19015C143.285 8.94815 144.22 8.82715 145.232 8.82715C146.662 8.82715 147.883 9.06915 148.895 9.55315C149.907 10.0151 150.677 10.6641 151.205 11.5001C151.755 12.3141 152.03 13.2381 152.03 14.2721C152.03 15.0861 151.865 15.8011 151.535 16.4171C151.227 17.0331 150.82 17.5831 150.314 18.0671C149.808 18.5291 149.269 18.9361 148.697 19.2881C148.147 19.6181 147.63 19.9151 147.146 20.1791C146.288 20.5971 145.54 20.9821 144.902 21.3341C144.286 21.6861 143.758 22.0381 143.318 22.3901C142.878 22.7201 142.515 23.0721 142.229 23.4461C141.943 23.7981 141.701 24.2271 141.503 24.7331H152.393V28.0001H137.114Z" fill="white"/>
<path d="M127.9 28.3298C126.448 28.3298 125.073 28.0988 123.775 27.6368C122.477 27.1528 121.366 26.4378 120.442 25.4918L121.795 23.0498C122.785 23.9298 123.775 24.5678 124.765 24.9638C125.777 25.3598 126.778 25.5578 127.768 25.5578C128.78 25.5578 129.605 25.3708 130.243 24.9968C130.881 24.6008 131.2 24.0288 131.2 23.2808C131.2 22.7308 131.035 22.3238 130.705 22.0598C130.375 21.7958 129.891 21.5648 129.253 21.3668C128.637 21.1688 127.889 20.9488 127.009 20.7068C125.777 20.3328 124.743 19.9478 123.907 19.5518C123.071 19.1338 122.444 18.6278 122.026 18.0338C121.608 17.4398 121.399 16.6808 121.399 15.7568C121.399 14.6348 121.685 13.6778 122.257 12.8858C122.829 12.0938 123.621 11.4888 124.633 11.0708C125.667 10.6528 126.855 10.4438 128.197 10.4438C129.451 10.4438 130.606 10.6418 131.662 11.0378C132.74 11.4118 133.686 12.0058 134.5 12.8198L132.949 15.2288C132.179 14.5248 131.387 14.0078 130.573 13.6778C129.781 13.3478 128.923 13.1828 127.999 13.1828C127.471 13.1828 126.965 13.2488 126.481 13.3808C125.997 13.4908 125.59 13.7108 125.26 14.0408C124.952 14.3488 124.798 14.7888 124.798 15.3608C124.798 15.8228 124.93 16.1968 125.194 16.4828C125.458 16.7688 125.854 17.0108 126.382 17.2088C126.91 17.4068 127.559 17.6268 128.329 17.8688C129.671 18.2648 130.815 18.6608 131.761 19.0568C132.707 19.4308 133.433 19.9258 133.939 20.5418C134.467 21.1358 134.731 21.9608 134.731 23.0168C134.731 24.6888 134.104 25.9978 132.85 26.9438C131.618 27.8678 129.968 28.3298 127.9 28.3298Z" fill="white"/>
<path d="M104.76 32.0592C105.09 32.1032 105.409 32.1472 105.717 32.1912C106.047 32.2572 106.311 32.2902 106.509 32.2902C106.883 32.2902 107.202 32.1692 107.466 31.9272C107.752 31.7072 108.038 31.2892 108.324 30.6732C108.61 30.0572 108.962 29.1662 109.38 28.0002L102.285 10.7412H106.08L111.36 24.3042L116.046 10.7412H119.544L111.723 31.9932C111.481 32.6312 111.129 33.2142 110.667 33.7422C110.205 34.2922 109.633 34.7212 108.951 35.0292C108.269 35.3372 107.466 35.4912 106.542 35.4912C106.278 35.4912 106.003 35.4692 105.717 35.4252C105.431 35.3812 105.112 35.3152 104.76 35.2272V32.0592Z" fill="white"/>
<path d="M84.8977 22.9508C84.8977 21.8508 85.2057 20.8938 85.8217 20.0798C86.4597 19.2438 87.3287 18.6058 88.4287 18.1658C89.5287 17.7038 90.8047 17.4728 92.2567 17.4728C93.0267 17.4728 93.8077 17.5278 94.5997 17.6378C95.4137 17.7478 96.1287 17.9238 96.7447 18.1658V17.0768C96.7447 15.8668 96.3817 14.9208 95.6557 14.2388C94.9297 13.5568 93.8847 13.2158 92.5207 13.2158C91.5527 13.2158 90.6397 13.3918 89.7817 13.7438C88.9237 14.0738 88.0107 14.5468 87.0427 15.1628L85.8217 12.7208C86.9657 11.9508 88.1097 11.3788 89.2537 11.0048C90.4197 10.6308 91.6407 10.4438 92.9167 10.4438C95.2267 10.4438 97.0417 11.0598 98.3617 12.2918C99.7037 13.5018 100.375 15.2288 100.375 17.4728V23.9078C100.375 24.3258 100.441 24.6228 100.573 24.7988C100.727 24.9748 100.98 25.0738 101.332 25.0958V27.9998C101.002 28.0658 100.705 28.1098 100.441 28.1318C100.177 28.1538 99.9567 28.1648 99.7807 28.1648C99.0107 28.1648 98.4277 27.9778 98.0317 27.6038C97.6357 27.2298 97.4047 26.7898 97.3387 26.2838L97.2397 25.2938C96.4917 26.2618 95.5347 27.0098 94.3687 27.5378C93.2027 28.0658 92.0257 28.3298 90.8377 28.3298C89.6937 28.3298 88.6707 28.0988 87.7687 27.6368C86.8667 27.1528 86.1627 26.5038 85.6567 25.6898C85.1507 24.8758 84.8977 23.9628 84.8977 22.9508ZM95.8867 24.0068C96.1507 23.7208 96.3597 23.4348 96.5137 23.1488C96.6677 22.8628 96.7447 22.6098 96.7447 22.3898V20.4098C96.1287 20.1678 95.4797 19.9918 94.7977 19.8818C94.1157 19.7498 93.4447 19.6838 92.7847 19.6838C91.4647 19.6838 90.3867 19.9478 89.5507 20.4758C88.7367 21.0038 88.3297 21.7298 88.3297 22.6538C88.3297 23.1598 88.4617 23.6438 88.7257 24.1058C89.0117 24.5678 89.4077 24.9418 89.9137 25.2278C90.4417 25.5138 91.0907 25.6568 91.8607 25.6568C92.6527 25.6568 93.4117 25.5028 94.1377 25.1948C94.8637 24.8868 95.4467 24.4908 95.8867 24.0068Z" fill="white"/>
<path d="M80.694 10.7412H84.159L76.899 28.0002H73.797L70.695 20.2122L67.593 28.0002H64.491L57.198 10.7412H60.663L66.207 24.4692L68.649 18.1002L65.679 10.7742H68.748L70.695 16.1532L72.609 10.7742H75.678L72.741 18.1002L75.183 24.4692L80.694 10.7412Z" fill="white"/>
<path fill-rule="evenodd" clip-rule="evenodd" d="M5.41535 0L17.3333 23.75L24.1608 13.7714L15 0H39L29.8392 13.7714L36.6667 23.75L48.5847 0H54L39.375 28.5H33.9583L27 18.0396L20.0417 28.5H14.625L0 0H5.41535ZM30.5044 4.5H23.4956L27 9.62179L30.5044 4.5Z" fill="white"/>
<path d="M21.7574 39.6532C21.6529 40.1885 21.6006 40.7908 21.6006 41.46H32.4006V38.7609H25.5666C25.7309 38.4933 25.9176 38.2553 26.1267 38.0471C26.3508 37.8389 26.6047 37.6382 26.8886 37.4449C27.1724 37.2367 27.501 37.0359 27.8744 36.8426C28.2479 36.6344 28.6661 36.4113 29.1292 36.1734C29.4578 35.9949 29.7939 35.7867 30.1375 35.5488C30.496 35.3109 30.8246 35.0432 31.1234 34.7458C31.4222 34.4335 31.6686 34.0766 31.8628 33.6751C32.057 33.2736 32.1541 32.8126 32.1541 32.2921C32.1541 31.5337 31.9599 30.8719 31.5715 30.3068C31.1981 29.7417 30.6529 29.303 29.9359 28.9907C29.2188 28.6636 28.3525 28.5 27.3367 28.5C26.6645 28.5 26.0296 28.5744 25.4321 28.7231C24.8495 28.8569 24.3118 29.0354 23.8188 29.2584C23.3408 29.4666 22.9226 29.6971 22.5641 29.9499C22.2205 30.1878 21.9442 30.4109 21.735 30.6191L23.6396 32.8051C23.8188 32.5821 24.0205 32.3739 24.2446 32.1806C24.4686 31.9724 24.7076 31.7865 24.9616 31.6229C25.2305 31.4593 25.5143 31.3329 25.813 31.2437C26.1267 31.1545 26.4628 31.1098 26.8213 31.1098C27.2695 31.1098 27.6429 31.1842 27.9417 31.3329C28.2404 31.4816 28.472 31.6824 28.6363 31.9352C28.8006 32.1731 28.8827 32.4408 28.8827 32.7382C28.8827 33.0208 28.8006 33.2736 28.6363 33.4966C28.472 33.7048 28.2255 33.913 27.8969 34.1212C27.5832 34.3294 27.1948 34.5599 26.7317 34.8127C26.2686 35.0506 25.7309 35.3332 25.1184 35.6603C24.4164 36.047 23.8338 36.4485 23.3707 36.8649C22.9226 37.2664 22.5641 37.6977 22.2952 38.1587C22.0412 38.6197 21.862 39.1178 21.7574 39.6532Z" fill="white"/>
</svg>
