<svg width="40" height="40" viewBox="0 0 40 40" fill="none" xmlns="http://www.w3.org/2000/svg">
<path d="M36.5334 11.0333C36.3643 10.6261 36.0406 10.3025 35.6334 10.1333C35.433 10.0479 35.2179 10.0026 35.0001 10H26.6667C26.2247 10 25.8008 10.1756 25.4882 10.4882C25.1757 10.8007 25.0001 11.2246 25.0001 11.6667C25.0001 12.1087 25.1757 12.5326 25.4882 12.8452C25.8008 13.1577 26.2247 13.3333 26.6667 13.3333H30.9834L21.6667 22.65L16.1834 17.15C16.0285 16.9938 15.8441 16.8698 15.641 16.7852C15.4379 16.7006 15.2201 16.657 15.0001 16.657C14.78 16.657 14.5622 16.7006 14.3591 16.7852C14.156 16.8698 13.9717 16.9938 13.8167 17.15L3.81673 27.15C3.66051 27.3049 3.53652 27.4893 3.45191 27.6924C3.36729 27.8955 3.32373 28.1133 3.32373 28.3333C3.32373 28.5534 3.36729 28.7712 3.45191 28.9743C3.53652 29.1774 3.66051 29.3617 3.81673 29.5167C3.97167 29.6729 4.156 29.7969 4.3591 29.8815C4.5622 29.9661 4.78004 30.0097 5.00006 30.0097C5.22008 30.0097 5.43792 29.9661 5.64102 29.8815C5.84412 29.7969 6.02846 29.6729 6.18339 29.5167L15.0001 20.6833L20.4834 26.1833C20.6383 26.3395 20.8227 26.4635 21.0258 26.5482C21.2289 26.6328 21.4467 26.6763 21.6667 26.6763C21.8867 26.6763 22.1046 26.6328 22.3077 26.5482C22.5108 26.4635 22.6951 26.3395 22.8501 26.1833L33.3334 15.6833V20C33.3334 20.442 33.509 20.8659 33.8216 21.1785C34.1341 21.4911 34.558 21.6667 35.0001 21.6667C35.4421 21.6667 35.866 21.4911 36.1786 21.1785C36.4911 20.8659 36.6667 20.442 36.6667 20V11.6667C36.6641 11.4489 36.6188 11.2337 36.5334 11.0333Z" fill="#FF8902"/>
</svg>
