<svg width="40" height="40" viewBox="0 0 40 40" fill="none" xmlns="http://www.w3.org/2000/svg">
<path d="M20 28.75C22.3206 28.75 24.5462 27.8281 26.1872 26.1872C27.8281 24.5462 28.75 22.3206 28.75 20C28.75 17.6794 27.8281 15.4538 26.1872 13.8128C24.5462 12.1719 22.3206 11.25 20 11.25C17.6794 11.25 15.4538 12.1719 13.8128 13.8128C12.1719 15.4538 11.25 17.6794 11.25 20C11.25 22.3206 12.1719 24.5462 13.8128 26.1872C15.4538 27.8281 17.6794 28.75 20 28.75Z" stroke="#A63E75" stroke-width="1.5" stroke-linecap="round" stroke-linejoin="round"/>
<path d="M20 22.5C20.663 22.5 21.2989 22.2366 21.7678 21.7678C22.2366 21.2989 22.5 20.663 22.5 20C22.5 19.337 22.2366 18.7011 21.7678 18.2322C21.2989 17.7634 20.663 17.5 20 17.5C19.337 17.5 18.7011 17.7634 18.2322 18.2322C17.7634 18.7011 17.5 19.337 17.5 20C17.5 20.663 17.7634 21.2989 18.2322 21.7678C18.7011 22.2366 19.337 22.5 20 22.5Z" stroke="#A63E75" stroke-width="1.5" stroke-linecap="round" stroke-linejoin="round"/>
<path d="M35 20C35 21.9698 34.612 23.9204 33.8582 25.7403C33.1044 27.5601 31.9995 29.2137 30.6066 30.6066C29.2137 31.9995 27.5601 33.1044 25.7403 33.8582C23.9204 34.612 21.9698 35 20 35C18.0302 35 16.0796 34.612 14.2597 33.8582C12.4399 33.1044 10.7863 31.9995 9.3934 30.6066C8.00052 29.2137 6.89563 27.5601 6.14181 25.7403C5.38799 23.9204 5 21.9698 5 20C5 16.0218 6.58035 12.2064 9.3934 9.3934C12.2064 6.58035 16.0218 5 20 5C23.9782 5 27.7936 6.58035 30.6066 9.3934C33.4196 12.2064 35 16.0218 35 20Z" stroke="#A63E75" stroke-width="1.5" stroke-linecap="round" stroke-linejoin="round"/>
</svg>
