<svg width="10" height="9" viewBox="0 0 10 9" fill="none" xmlns="http://www.w3.org/2000/svg">
<path d="M0.671978 8.96004L0.223978 7.39204C1.01331 7.37071 1.52531 7.09338 1.75998 6.56004C2.01598 6.00538 2.14398 5.28004 2.14398 4.38404H-2.19345e-05V4.19617e-05H4.41598C4.41598 0.61871 4.41598 1.21604 4.41598 1.79204C4.41598 2.36804 4.40531 2.92271 4.38398 3.45604C4.31998 5.24804 4.03198 6.61338 3.51998 7.55204C3.02931 8.46938 2.07998 8.93871 0.671978 8.96004ZM6.01598 8.96004L5.56798 7.39204C6.35731 7.37071 6.86931 7.09338 7.10398 6.56004C7.35998 6.00538 7.48798 5.28004 7.48798 4.38404H5.34398V4.19617e-05H9.75998C9.75998 0.61871 9.75998 1.21604 9.75998 1.79204C9.75998 2.36804 9.74931 2.92271 9.72798 3.45604C9.66398 5.24804 9.37598 6.61338 8.86398 7.55204C8.37331 8.46938 7.42398 8.93871 6.01598 8.96004Z" fill="url(#paint0_linear_9149_2495)"/>
<defs>
<linearGradient id="paint0_linear_9149_2495" x1="-372.367" y1="-4.04149" x2="-371.2" y2="25.7511" gradientUnits="userSpaceOnUse">
<stop stop-color="#A6B9FF" stop-opacity="0.06"/>
<stop stop-color="#FFD0E7" stop-opacity="0.18"/>
<stop offset="0.0001" stop-color="#FFD6DF" stop-opacity="0.15"/>
<stop offset="0.81053" stop-color="#FF5C00"/>
</linearGradient>
</defs>
</svg>
