<svg width="11" height="9" viewBox="0 0 11 9" fill="none" xmlns="http://www.w3.org/2000/svg">
<path d="M3.8147e-05 8.92806C3.8147e-05 8.33073 3.8147e-05 7.73339 3.8147e-05 7.13606C0.0213714 6.53873 0.0427048 5.98406 0.0640381 5.47206C0.0853714 3.68006 0.352038 2.32539 0.864038 1.40806C1.39737 0.469392 2.36804 5.91278e-05 3.77604 5.91278e-05L4.19204 1.53606C3.40271 1.57872 2.8907 1.86672 2.65604 2.40006C2.42137 2.93339 2.30404 3.65873 2.30404 4.57606H4.38404V8.92806H3.8147e-05ZM6.33604 8.92806C6.33604 8.33073 6.33604 7.73339 6.33604 7.13606C6.35737 6.53873 6.37871 5.98406 6.40004 5.47206C6.42137 3.68006 6.68804 2.32539 7.20004 1.40806C7.73337 0.469392 8.70404 5.91278e-05 10.112 5.91278e-05L10.528 1.53606C9.73871 1.57872 9.22671 1.86672 8.99204 2.40006C8.75737 2.93339 8.64004 3.65873 8.64004 4.57606H10.72V8.92806H6.33604Z" fill="url(#paint0_linear_9149_2497)"/>
<defs>
<linearGradient id="paint0_linear_9149_2497" x1="-9.07017" y1="-2.08701" x2="-0.538961" y2="18.85" gradientUnits="userSpaceOnUse">
<stop stop-color="#A6B9FF" stop-opacity="0.06"/>
<stop stop-color="#FFD0E7" stop-opacity="0.18"/>
<stop offset="0.0001" stop-color="#FFD6DF" stop-opacity="0.15"/>
<stop offset="0.81053" stop-color="#FF5C00"/>
</linearGradient>
</defs>
</svg>
